<svg width="341" height="371" viewBox="0 0 341 371" fill="none" xmlns="http://www.w3.org/2000/svg">
<path fill-rule="evenodd" clip-rule="evenodd" d="M145.229 4.65281C97.5372 18.8051 31.6223 53.3135 9.71533 75.996C2.15451 83.7507 0.991304 85.8832 0.215835 95.3827C-0.947369 109.341 2.73611 144.819 7.77666 168.083C23.0922 238.069 63.2227 303.596 116.73 344.89C160.932 379.204 179.931 379.204 224.133 344.89C288.884 294.872 330.566 215.774 339.29 126.789C342.585 93.0563 341.422 86.6587 331.147 75.996C308.853 53.1196 242.55 18.4174 194.859 4.65281C173.727 -1.55094 166.166 -1.55094 145.229 4.65281ZM92.5621 51L92.6556 50.9545V51H92.5621Z" fill="url(#paint0_linear)"/>
<path fill-rule="evenodd" clip-rule="evenodd" d="M185.311 102.781H154.166V149.498H107.449V180.643H154.166V227.361H185.311V180.643H232.029V149.498H185.311V102.781Z" fill="white"/>
<defs>
<linearGradient id="paint0_linear" x1="112.485" y1="-152.86" x2="352.77" y2="-121.374" gradientUnits="userSpaceOnUse">
<stop stop-color="#FF0000" stop-opacity="0.8"/>
<stop offset="1" stop-color="#ED0080"/>
</linearGradient>
</defs>
</svg>
