<svg width="1440" height="2062" viewBox="0 0 1440 2062" fill="none" xmlns="http://www.w3.org/2000/svg">
<rect x="-4" y="608" width="1447" height="831" fill="url(#paint0_linear)"/>
<mask id="mask0" mask-type="alpha" maskUnits="userSpaceOnUse" x="1208" y="1114" width="635" height="624">
<path d="M1370.13 1221.62C1370.94 1223.84 1373.6 1231.16 1373.6 1231.16C1373.6 1231.16 1367.11 1233.52 1364.07 1234.63C1361.69 1235.49 1354.53 1238.1 1354.53 1238.1C1354.53 1238.1 1352.11 1231.45 1351.06 1228.56C1349.14 1223.29 1351.86 1217.47 1357.12 1215.55C1362.39 1213.63 1368.22 1216.35 1370.13 1221.62Z" fill="white"/>
<path d="M1392.69 1224.17L1411.77 1217.23L1404.82 1198.15C1394.29 1201.99 1388.85 1213.63 1392.69 1224.17Z" fill="white"/>
<path d="M1423.89 1191.22L1404.82 1198.16L1411.76 1217.24L1430.84 1210.3L1423.89 1191.22Z" fill="white"/>
<path d="M1442.97 1184.28L1423.89 1191.22L1430.84 1210.3L1449.91 1203.36L1442.97 1184.28Z" fill="white"/>
<path d="M1373.61 1231.14L1354.53 1238.08L1361.47 1257.16L1380.55 1250.21L1373.61 1231.14Z" fill="white"/>
<path d="M1392.68 1224.19L1373.6 1231.14L1380.54 1250.21L1399.62 1243.27L1392.68 1224.19Z" fill="white"/>
<path d="M1411.75 1217.26L1392.68 1224.21L1399.62 1243.28C1410.15 1239.45 1415.59 1227.8 1411.75 1217.26Z" fill="white"/>
<path d="M1364.95 1266.71C1364.14 1264.49 1361.48 1257.17 1361.48 1257.17C1361.48 1257.17 1367.97 1254.81 1371.02 1253.7C1373.4 1252.83 1380.56 1250.23 1380.56 1250.23C1380.56 1250.23 1382.98 1256.88 1384.03 1259.77C1385.95 1265.03 1383.23 1270.86 1377.96 1272.78C1372.69 1274.69 1366.87 1271.98 1364.95 1266.71Z" fill="white"/>
<path d="M1416.1 1258.88C1421.37 1256.96 1427.2 1259.68 1429.11 1264.95C1431.03 1270.21 1428.32 1276.04 1423.05 1277.96C1417.78 1279.87 1411.96 1277.16 1410.04 1271.89C1408.12 1266.62 1410.84 1260.8 1416.1 1258.88Z" fill="white"/>
<path d="M1384.89 1291.86C1387.11 1291.06 1394.42 1288.39 1394.42 1288.39C1394.42 1288.39 1396.79 1294.89 1397.9 1297.93C1398.76 1300.31 1401.37 1307.47 1401.37 1307.47C1401.37 1307.47 1394.72 1309.89 1391.83 1310.94C1386.56 1312.86 1380.74 1310.14 1378.82 1304.87C1376.9 1299.61 1379.62 1293.78 1384.89 1291.86Z" fill="white"/>
<path d="M1394.44 1288.34L1401.38 1307.42L1420.46 1300.47C1416.63 1289.94 1404.98 1284.51 1394.44 1288.34Z" fill="white"/>
<path d="M1439.51 1293.62L1458.59 1286.67L1451.65 1267.6C1441.11 1271.43 1435.68 1283.08 1439.51 1293.62Z" fill="white"/>
<path d="M1427.41 1319.52L1420.47 1300.45L1401.39 1307.39C1405.23 1317.93 1416.88 1323.36 1427.41 1319.52Z" fill="white"/>
<path d="M1439.52 1293.55L1420.45 1300.5L1427.39 1319.57L1446.46 1312.63L1439.52 1293.55Z" fill="white"/>
<path d="M1458.6 1286.64L1439.53 1293.59L1446.47 1312.66L1465.55 1305.72L1458.6 1286.64Z" fill="white"/>
<path d="M1398.77 1330.01C1404.04 1328.1 1409.86 1330.81 1411.78 1336.08C1413.7 1341.35 1410.98 1347.17 1405.72 1349.09C1400.45 1351.01 1394.62 1348.29 1392.71 1343.02C1390.79 1337.75 1393.5 1331.93 1398.77 1330.01Z" fill="white"/>
<path d="M1446.48 1312.64L1427.4 1319.58L1434.35 1338.65L1453.42 1331.71L1446.48 1312.64Z" fill="white"/>
<path d="M1437.81 1348.23C1437 1346 1434.34 1338.69 1434.34 1338.69C1434.34 1338.69 1440.83 1336.32 1443.87 1335.22C1446.25 1334.35 1453.41 1331.74 1453.41 1331.74C1453.41 1331.74 1455.83 1338.39 1456.88 1341.28C1458.8 1346.55 1456.08 1352.37 1450.82 1354.29C1445.55 1356.21 1439.72 1353.49 1437.81 1348.23Z" fill="white"/>
<path d="M1273.08 1429.76C1273.89 1431.99 1276.55 1439.3 1276.55 1439.3C1276.55 1439.3 1270.06 1441.66 1267.01 1442.77C1264.63 1443.64 1257.47 1446.24 1257.47 1446.24C1257.47 1446.24 1255.05 1439.6 1254 1436.71C1252.09 1431.44 1254.8 1425.61 1260.07 1423.7C1265.34 1421.78 1271.16 1424.5 1273.08 1429.76Z" fill="white"/>
<path d="M1317.3 1402.84C1319.52 1402.03 1326.84 1399.37 1326.84 1399.37C1326.84 1399.37 1329.2 1405.86 1330.31 1408.9C1331.17 1411.28 1333.78 1418.44 1333.78 1418.44C1333.78 1418.44 1327.13 1420.86 1324.24 1421.91C1318.97 1423.83 1313.15 1421.11 1311.23 1415.85C1309.32 1410.58 1312.03 1404.76 1317.3 1402.84Z" fill="white"/>
<path d="M1345.9 1392.44L1326.83 1399.38L1333.77 1418.45L1352.85 1411.51L1345.9 1392.44Z" fill="white"/>
<path d="M1364.97 1385.52L1345.89 1392.46L1352.84 1411.54L1371.91 1404.59L1364.97 1385.52Z" fill="white"/>
<path d="M1384.06 1378.56L1364.99 1385.5L1371.93 1404.58L1391.01 1397.63L1384.06 1378.56Z" fill="white"/>
<path d="M1403.13 1371.62L1384.05 1378.57L1391 1397.64L1410.07 1390.7L1403.13 1371.62Z" fill="white"/>
<path d="M1422.2 1364.71L1403.12 1371.65L1410.07 1390.72L1429.14 1383.78L1422.2 1364.71Z" fill="white"/>
<path d="M1422.21 1364.68L1429.16 1383.76L1448.23 1376.81C1444.4 1366.28 1432.75 1360.85 1422.21 1364.68Z" fill="white"/>
<path d="M1276.54 1439.3L1257.46 1446.24L1264.4 1465.32L1283.48 1458.38L1276.54 1439.3Z" fill="white"/>
<path d="M1295.63 1432.36L1276.55 1439.3L1283.49 1458.38L1302.57 1451.44L1295.63 1432.36Z" fill="white"/>
<path d="M1295.62 1432.33L1302.57 1451.41L1321.64 1444.46C1317.81 1433.93 1306.16 1428.5 1295.62 1432.33Z" fill="white"/>
<path d="M1337.24 1428C1336.43 1425.78 1333.77 1418.46 1333.77 1418.46C1333.77 1418.46 1340.26 1416.1 1343.3 1414.99C1345.68 1414.13 1352.84 1411.52 1352.84 1411.52C1352.84 1411.52 1355.26 1418.17 1356.31 1421.06C1358.23 1426.33 1355.51 1432.15 1350.25 1434.07C1344.98 1435.99 1339.15 1433.27 1337.24 1428Z" fill="white"/>
<path d="M1394.48 1407.18C1393.67 1404.96 1391.01 1397.64 1391.01 1397.64C1391.01 1397.64 1397.5 1395.28 1400.55 1394.17C1402.92 1393.31 1410.08 1390.7 1410.08 1390.7C1410.08 1390.7 1412.5 1397.35 1413.56 1400.24C1415.47 1405.51 1412.76 1411.33 1407.49 1413.25C1402.22 1415.17 1396.4 1412.45 1394.48 1407.18Z" fill="white"/>
<path d="M1448.22 1376.82L1429.14 1383.77L1436.09 1402.84L1455.16 1395.9L1448.22 1376.82Z" fill="white"/>
<path d="M1267.89 1474.84C1267.08 1472.62 1264.42 1465.3 1264.42 1465.3C1264.42 1465.3 1270.91 1462.94 1273.96 1461.83C1276.33 1460.97 1283.49 1458.36 1283.49 1458.36C1283.49 1458.36 1285.91 1465.01 1286.97 1467.9C1288.88 1473.17 1286.17 1478.99 1280.9 1480.91C1275.63 1482.83 1269.81 1480.11 1267.89 1474.84Z" fill="white"/>
<path d="M1321.64 1444.51L1302.56 1451.45L1309.51 1470.53L1328.58 1463.58L1321.64 1444.51Z" fill="white"/>
<path d="M1338.12 1460.11C1335.9 1460.92 1328.58 1463.58 1328.58 1463.58C1328.58 1463.58 1326.22 1457.09 1325.11 1454.05C1324.25 1451.67 1321.64 1444.51 1321.64 1444.51C1321.64 1444.51 1328.29 1442.09 1331.18 1441.04C1336.45 1439.12 1342.27 1441.84 1344.19 1447.1C1346.11 1452.37 1343.39 1458.2 1338.12 1460.11Z" fill="white"/>
<path d="M1366.74 1449.69L1385.82 1442.75L1378.88 1423.67C1368.34 1427.51 1362.91 1439.16 1366.74 1449.69Z" fill="white"/>
<path d="M1395.35 1439.29C1393.13 1440.1 1385.81 1442.76 1385.81 1442.76C1385.81 1442.76 1383.45 1436.27 1382.34 1433.23C1381.48 1430.85 1378.87 1423.69 1378.87 1423.69C1378.87 1423.69 1385.52 1421.27 1388.41 1420.22C1393.68 1418.3 1399.5 1421.01 1401.42 1426.28C1403.34 1431.55 1400.62 1437.37 1395.35 1439.29Z" fill="white"/>
<path d="M1426.55 1406.33C1428.78 1405.52 1436.09 1402.85 1436.09 1402.85C1436.09 1402.85 1438.45 1409.35 1439.56 1412.39C1440.43 1414.77 1443.03 1421.93 1443.03 1421.93C1443.03 1421.93 1436.39 1424.35 1433.5 1425.4C1428.23 1427.32 1422.4 1424.6 1420.49 1419.33C1418.57 1414.07 1421.28 1408.24 1426.55 1406.33Z" fill="white"/>
<path d="M1455.15 1395.94L1436.07 1402.89L1443.02 1421.96C1453.55 1418.13 1458.98 1406.48 1455.15 1395.94Z" fill="white"/>
<path d="M1328.59 1463.55L1309.52 1470.5L1316.46 1489.57L1335.53 1482.63L1328.59 1463.55Z" fill="white"/>
<path d="M1370.21 1459.23C1369.4 1457.01 1366.74 1449.7 1366.74 1449.7C1366.74 1449.7 1373.23 1447.33 1376.28 1446.22C1378.65 1445.36 1385.81 1442.75 1385.81 1442.75C1385.81 1442.75 1388.23 1449.4 1389.29 1452.29C1391.2 1457.56 1388.49 1463.38 1383.22 1465.3C1377.95 1467.22 1372.13 1464.5 1370.21 1459.23Z" fill="white"/>
<path d="M1427.43 1438.39C1428.24 1440.61 1430.91 1447.93 1430.91 1447.93C1430.91 1447.93 1424.41 1450.29 1421.37 1451.4C1418.99 1452.27 1411.83 1454.87 1411.83 1454.87C1411.83 1454.87 1409.41 1448.22 1408.36 1445.33C1406.44 1440.07 1409.16 1434.24 1414.42 1432.33C1419.69 1430.41 1425.52 1433.12 1427.43 1438.39Z" fill="white"/>
<path d="M1304.32 1515.61L1323.4 1508.66L1316.45 1489.59C1305.92 1493.42 1300.49 1505.07 1304.32 1515.61Z" fill="white"/>
<path d="M1335.54 1482.59L1316.47 1489.54L1323.41 1508.61C1333.95 1504.78 1339.38 1493.13 1335.54 1482.59Z" fill="white"/>
<path d="M1364.15 1472.22C1369.42 1470.31 1375.24 1473.02 1377.16 1478.29C1379.08 1483.56 1376.36 1489.38 1371.09 1491.3C1365.83 1493.22 1360 1490.5 1358.08 1485.23C1356.17 1479.97 1358.88 1474.14 1364.15 1472.22Z" fill="white"/>
<path d="M1402.3 1458.33C1404.52 1457.52 1411.84 1454.86 1411.84 1454.86C1411.84 1454.86 1414.2 1461.35 1415.31 1464.4C1416.17 1466.78 1418.78 1473.94 1418.78 1473.94C1418.78 1473.94 1412.13 1476.36 1409.24 1477.41C1403.97 1479.33 1398.15 1476.61 1396.23 1471.34C1394.32 1466.08 1397.03 1460.25 1402.3 1458.33Z" fill="white"/>
<path d="M1430.9 1447.92L1411.82 1454.86L1418.77 1473.94L1437.84 1467L1430.9 1447.92Z" fill="white"/>
<path d="M1447.38 1463.55C1445.15 1464.36 1437.84 1467.02 1437.84 1467.02C1437.84 1467.02 1435.47 1460.53 1434.37 1457.48C1433.5 1455.11 1430.89 1447.95 1430.89 1447.95C1430.89 1447.95 1437.54 1445.53 1440.43 1444.47C1445.7 1442.56 1451.52 1445.27 1453.44 1450.54C1455.36 1455.81 1452.64 1461.63 1447.38 1463.55Z" fill="white"/>
<path d="M1292.2 1541.6L1311.27 1534.66L1304.33 1515.58C1293.79 1519.41 1288.36 1531.06 1292.2 1541.6Z" fill="white"/>
<path d="M1323.4 1508.65L1304.32 1515.59L1311.27 1534.67L1330.34 1527.73L1323.4 1508.65Z" fill="white"/>
<path d="M1403.17 1490.45C1403.98 1492.67 1406.64 1499.98 1406.64 1499.98C1406.64 1499.98 1400.15 1502.35 1397.1 1503.46C1394.72 1504.32 1387.56 1506.93 1387.56 1506.93C1387.56 1506.93 1385.14 1500.28 1384.09 1497.39C1382.18 1492.12 1384.89 1486.3 1390.16 1484.38C1395.43 1482.46 1401.25 1485.18 1403.17 1490.45Z" fill="white"/>
<path d="M1437.85 1466.98L1418.78 1473.92L1425.72 1493L1444.8 1486.05L1437.85 1466.98Z" fill="white"/>
<path d="M1311.26 1534.7L1292.18 1541.64L1299.13 1560.72L1318.2 1553.78L1311.26 1534.7Z" fill="white"/>
<path d="M1330.34 1527.74L1311.26 1534.68L1318.2 1553.76L1337.28 1546.82L1330.34 1527.74Z" fill="white"/>
<path d="M1346.81 1543.36C1344.59 1544.17 1337.28 1546.83 1337.28 1546.83C1337.28 1546.83 1334.91 1540.34 1333.8 1537.29C1332.94 1534.91 1330.33 1527.75 1330.33 1527.75C1330.33 1527.75 1336.98 1525.33 1339.87 1524.28C1345.14 1522.37 1350.96 1525.08 1352.88 1530.35C1354.8 1535.62 1352.08 1541.44 1346.81 1543.36Z" fill="white"/>
<path d="M1413.58 1519.07L1406.63 1499.99L1387.56 1506.93C1391.39 1517.47 1403.04 1522.9 1413.58 1519.07Z" fill="white"/>
<path d="M1425.71 1493.04L1406.63 1499.98L1413.58 1519.06L1432.65 1512.12L1425.71 1493.04Z" fill="white"/>
<path d="M1444.79 1486.09L1425.71 1493.03L1432.66 1512.11L1451.73 1505.16L1444.79 1486.09Z" fill="white"/>
<path d="M1318.2 1553.78L1299.12 1560.72L1306.06 1579.8L1325.14 1572.86L1318.2 1553.78Z" fill="white"/>
<path d="M1384.97 1529.44C1390.24 1527.52 1396.06 1530.24 1397.98 1535.51C1399.9 1540.77 1397.18 1546.6 1391.91 1548.51C1386.65 1550.43 1380.82 1547.72 1378.91 1542.45C1376.99 1537.18 1379.7 1531.36 1384.97 1529.44Z" fill="white"/>
<path d="M1451.73 1505.17L1432.66 1512.11L1439.6 1531.19L1458.68 1524.25L1451.73 1505.17Z" fill="white"/>
<path d="M1309.54 1589.3C1308.73 1587.08 1306.07 1579.76 1306.07 1579.76C1306.07 1579.76 1312.56 1577.4 1315.61 1576.29C1317.99 1575.42 1325.15 1572.82 1325.15 1572.82C1325.15 1572.82 1327.57 1579.47 1328.62 1582.36C1330.53 1587.62 1327.82 1593.45 1322.55 1595.37C1317.28 1597.28 1311.46 1594.57 1309.54 1589.3Z" fill="white"/>
<path d="M1410.99 1541.59C1413.21 1540.78 1420.53 1538.12 1420.53 1538.12C1420.53 1538.12 1422.89 1544.61 1424 1547.65C1424.87 1550.03 1427.47 1557.19 1427.47 1557.19C1427.47 1557.19 1420.83 1559.61 1417.93 1560.66C1412.66 1562.58 1406.84 1559.86 1404.92 1554.6C1403.01 1549.33 1405.72 1543.51 1410.99 1541.59Z" fill="white"/>
<path d="M1439.61 1531.16L1420.53 1538.1L1427.47 1557.18L1446.55 1550.23L1439.61 1531.16Z" fill="white"/>
<path d="M1458.67 1524.24L1439.6 1531.18L1446.54 1550.26C1457.08 1546.43 1462.51 1534.78 1458.67 1524.24Z" fill="white"/>
<path d="M1282.94 1242.53L1240.59 1257.95C1219.94 1265.46 1207.43 1285.46 1208.62 1306.13C1208.74 1308.27 1209.01 1310.42 1209.43 1312.55C1209.89 1314.91 1210.55 1317.27 1211.4 1319.59L1227.18 1362.95C1236.23 1387.81 1264.04 1400.59 1289.17 1391.44L1310.35 1383.73L1331.53 1376.02C1356.66 1366.87 1369.76 1339.21 1360.71 1314.35L1344.93 1271C1335.89 1246.15 1308.07 1233.38 1282.94 1242.53ZM1340.69 1321.65C1345.71 1335.46 1338.33 1350.88 1324.23 1356.01L1303.07 1363.71L1281.9 1371.42C1267.8 1376.55 1252.24 1369.48 1247.21 1355.67L1231.43 1312.32C1229.86 1308 1229.51 1303.54 1230.18 1299.27C1230.83 1295.16 1232.44 1291.25 1234.87 1287.85C1237.98 1283.48 1242.43 1279.96 1247.88 1277.98L1290.23 1262.56C1304.34 1257.43 1319.88 1264.49 1324.91 1278.29L1340.69 1321.65Z" fill="white"/>
<path d="M1407.9 1585.94L1365.55 1601.35C1344.9 1608.87 1332.39 1628.86 1333.58 1649.54C1333.7 1651.67 1333.97 1653.83 1334.39 1655.96C1334.85 1658.32 1335.51 1660.68 1336.36 1663L1352.14 1706.36C1361.19 1731.22 1389.01 1743.99 1414.14 1734.84L1435.31 1727.14L1456.49 1719.43C1481.62 1710.28 1494.72 1682.62 1485.67 1657.76L1469.9 1614.41C1460.85 1589.56 1433.04 1576.79 1407.9 1585.94ZM1465.65 1665.06C1470.67 1678.87 1463.29 1694.28 1449.19 1699.42L1428.03 1707.12L1406.86 1714.82C1392.76 1719.96 1377.2 1712.89 1372.17 1699.08L1356.39 1655.72C1354.82 1651.41 1354.47 1646.94 1355.14 1642.67C1355.79 1638.57 1357.4 1634.65 1359.83 1631.26C1362.94 1626.89 1367.39 1623.37 1372.84 1621.38L1415.2 1605.97C1429.3 1600.83 1444.84 1607.89 1449.87 1621.7L1465.65 1665.06Z" fill="white"/>
<path d="M1304.25 1278L1247.02 1298.83L1267.85 1356.06L1325.08 1335.23L1304.25 1278Z" fill="white"/>
<path d="M1429.22 1621.37L1371.99 1642.2L1392.82 1699.43L1450.05 1678.6L1429.22 1621.37Z" fill="white"/>
</mask>
<g mask="url(#mask0)">
<path d="M1671.89 1100.98L1194.99 1274.56L1368.57 1751.46L1845.47 1577.88L1671.89 1100.98Z" fill="white"/>
</g>
<rect x="1424.29" y="1385.49" width="153.338" height="142.064" transform="rotate(-20 1424.29 1385.49)" fill="white"/>
<mask id="mask1" mask-type="alpha" maskUnits="userSpaceOnUse" x="-392" y="324" width="625" height="634">
<path d="M16.9588 400.638L-2.11719 393.695L-9.06027 412.771L10.0157 419.714L16.9588 400.638Z" fill="white"/>
<path d="M16.9766 400.617L10.0335 419.693L29.1095 426.636C32.9441 416.101 27.5119 404.452 16.9766 400.617Z" fill="white"/>
<path d="M29.076 426.674L10 419.73L3.05691 438.806L22.1329 445.75L29.076 426.674Z" fill="white"/>
<path d="M82.8115 457.047C82.0023 459.271 79.3399 466.585 79.3399 466.585C79.3399 466.585 72.8468 464.222 69.8021 463.114C67.4243 462.249 60.2641 459.642 60.2641 459.642C60.2641 459.642 62.6836 452.994 63.7355 450.104C65.6531 444.837 71.4774 442.121 76.7446 444.038C82.0123 445.955 84.7287 451.78 82.8115 457.047Z" fill="white"/>
<path d="M22.1307 445.752L3.05469 438.809L-3.8884 457.885L15.1876 464.828L22.1307 445.752Z" fill="white"/>
<path d="M34.2639 471.767L53.3399 478.71L60.283 459.634C49.7477 455.8 38.0986 461.232 34.2639 471.767Z" fill="white"/>
<path d="M79.3611 466.592L60.2852 459.648L53.3421 478.724L72.4181 485.667L79.3611 466.592Z" fill="white"/>
<path d="M15.1893 464.806L-3.88672 457.863L-10.8298 476.939L8.24618 483.882L15.1893 464.806Z" fill="white"/>
<path d="M46.4102 497.773L53.3533 478.697L34.2773 471.754C30.4428 482.289 35.8746 493.938 46.4102 497.773Z" fill="white"/>
<path d="M72.4236 485.654L53.3477 478.711L46.4046 497.787L65.4806 504.73L72.4236 485.654Z" fill="white"/>
<path d="M8.24005 483.9L-10.8359 476.957L-17.779 496.033L1.29696 502.976L8.24005 483.9Z" fill="white"/>
<path d="M10.8488 506.43C8.6257 505.621 1.31082 502.959 1.31082 502.959C1.31082 502.959 3.67439 496.465 4.78236 493.421C5.64775 491.043 8.25391 483.883 8.25391 483.883C8.25391 483.883 14.9023 486.303 17.7919 487.354C23.0592 489.271 25.7756 495.096 23.8584 500.364C21.9412 505.631 16.1161 508.347 10.8488 506.43Z" fill="white"/>
<path d="M42.9425 507.311C43.7517 505.088 46.4141 497.773 46.4141 497.773C46.4141 497.773 52.9075 500.137 55.9521 501.245C58.3297 502.11 65.4901 504.717 65.4901 504.717C65.4901 504.717 63.0702 511.365 62.0185 514.255C60.1014 519.522 54.2762 522.238 49.009 520.321C43.7413 518.404 41.0254 512.579 42.9425 507.311Z" fill="white"/>
<path d="M9.9482 538.54C9.13905 540.763 6.47665 548.078 6.47665 548.078C6.47665 548.078 -0.016433 545.714 -3.0612 544.606C-5.43897 543.741 -12.5992 541.134 -12.5992 541.134C-12.5992 541.134 -10.1797 534.487 -9.12779 531.597C-7.21015 526.329 -1.3859 523.613 3.88136 525.53C9.14901 527.447 11.8655 533.272 9.9482 538.54Z" fill="white"/>
<path d="M48.1201 552.403C47.3109 554.626 44.6485 561.941 44.6485 561.941C44.6485 561.941 38.1554 559.578 35.1107 558.469C32.7329 557.604 25.5727 554.997 25.5727 554.997C25.5727 554.997 27.9922 548.35 29.0441 545.46C30.9617 540.192 36.786 537.476 42.0532 539.393C47.3209 541.311 50.0373 547.135 48.1201 552.403Z" fill="white"/>
<path d="M6.49005 548.08L-12.5859 541.137L-19.529 560.213L-0.453035 567.156L6.49005 548.08Z" fill="white"/>
<path d="M25.5642 555.025L6.48828 548.082L-0.454805 567.158L18.6212 574.101L25.5642 555.025Z" fill="white"/>
<path d="M44.6268 561.982L25.5508 555.039L18.6077 574.115C29.143 577.95 40.7922 572.517 44.6268 561.982Z" fill="white"/>
<path d="M18.6228 574.092L-0.453125 567.148L-7.39621 586.224L11.6797 593.167L18.6228 574.092Z" fill="white"/>
<path d="M53.2958 597.516C52.4867 599.739 49.8243 607.054 49.8243 607.054C49.8243 607.054 43.3312 604.691 40.2864 603.582C37.9087 602.717 30.7485 600.111 30.7485 600.111C30.7485 600.111 33.168 593.463 34.2199 590.573C36.1375 585.306 41.9617 582.589 47.229 584.507C52.4966 586.424 55.2131 592.249 53.2958 597.516Z" fill="white"/>
<path d="M110.522 618.348C109.713 620.571 107.051 627.886 107.051 627.886C107.051 627.886 100.558 625.523 97.513 624.414C95.1352 623.549 87.975 620.943 87.975 620.943C87.975 620.943 90.3945 614.295 91.4464 611.405C93.3641 606.138 99.1883 603.421 104.456 605.339C109.723 607.256 112.44 613.081 110.522 618.348Z" fill="white"/>
<path d="M126.17 634.814L145.246 641.757L152.189 622.681C141.654 618.847 130.005 624.279 126.17 634.814Z" fill="white"/>
<path d="M171.256 629.623L152.18 622.68L145.237 641.756L164.313 648.699L171.256 629.623Z" fill="white"/>
<path d="M173.849 652.173C171.626 651.363 164.311 648.701 164.311 648.701C164.311 648.701 166.674 642.207 167.782 639.163C168.648 636.785 171.254 629.625 171.254 629.625C171.254 629.625 177.902 632.045 180.792 633.097C186.059 635.014 188.776 640.838 186.858 646.106C184.941 651.373 179.116 654.09 173.849 652.173Z" fill="white"/>
<path d="M11.6775 593.174L-7.39844 586.23L-14.3415 605.306L4.73443 612.25L11.6775 593.174Z" fill="white"/>
<path d="M27.3019 609.632C28.111 607.409 30.7734 600.094 30.7734 600.094C30.7734 600.094 37.2669 602.457 40.3114 603.565C42.689 604.431 49.8494 607.037 49.8494 607.037C49.8494 607.037 47.4296 613.685 46.3779 616.575C44.4607 621.842 38.6356 624.558 33.3683 622.641C28.1007 620.724 25.3848 614.899 27.3019 609.632Z" fill="white"/>
<path d="M61.971 633.06L81.047 640.003L87.9901 620.927C77.4548 617.093 65.8056 622.525 61.971 633.06Z" fill="white"/>
<path d="M107.053 627.881L87.9766 620.938L81.0335 640.013L100.109 646.957L107.053 627.881Z" fill="white"/>
<path d="M126.15 634.818L107.074 627.875L100.131 646.951L119.207 653.894L126.15 634.818Z" fill="white"/>
<path d="M145.217 641.771L126.141 634.828L119.198 653.904L138.273 660.847L145.217 641.771Z" fill="white"/>
<path d="M164.306 648.693L145.23 641.75L138.287 660.826C148.823 664.66 160.472 659.228 164.306 648.693Z" fill="white"/>
<path d="M-2.25775 631.347L4.68533 612.271L-14.3906 605.328C-18.2252 615.863 -12.7934 627.513 -2.25775 631.347Z" fill="white"/>
<path d="M4.78125 612.215L-2.16184 631.291L16.9142 638.234C20.7488 627.698 15.3165 616.049 4.78125 612.215Z" fill="white"/>
<path d="M52.452 629.585C54.6752 630.394 61.99 633.056 61.99 633.056C61.99 633.056 59.6269 639.549 58.5185 642.594C57.6534 644.971 55.0469 652.132 55.0469 652.132C55.0469 652.132 48.4001 649.713 45.509 648.661C40.2394 646.743 37.526 640.917 39.4425 635.651C41.3594 630.385 47.1825 627.667 52.452 629.585Z" fill="white"/>
<path d="M81.0096 640.029L61.9336 633.086L54.9905 652.162L74.0665 659.105L81.0096 640.029Z" fill="white"/>
<path d="M119.213 653.884L100.137 646.941L93.1936 666.017L112.27 672.96L119.213 653.884Z" fill="white"/>
<path d="M172.96 684.258C172.151 686.482 169.488 693.796 169.488 693.796C169.488 693.796 162.995 691.433 159.951 690.324C157.573 689.459 150.413 686.853 150.413 686.853C150.413 686.853 152.832 680.205 153.884 677.315C155.802 672.048 161.626 669.332 166.893 671.249C172.161 673.166 174.877 678.991 172.96 684.258Z" fill="white"/>
<path d="M-5.65904 640.835C-4.84989 638.612 -2.1875 631.297 -2.1875 631.297C-2.1875 631.297 4.30597 633.66 7.35049 634.768C9.72813 635.634 16.8885 638.24 16.8885 638.24C16.8885 638.24 14.4687 644.888 13.4169 647.778C11.4998 653.045 5.67468 655.762 0.407413 653.844C-4.86023 651.927 -7.57616 646.102 -5.65904 640.835Z" fill="white"/>
<path d="M51.5519 661.679C52.361 659.455 55.0234 652.141 55.0234 652.141C55.0234 652.141 61.5169 654.504 64.5614 655.612C66.9391 656.478 74.0994 659.084 74.0994 659.084C74.0994 659.084 71.6796 665.732 70.6279 668.622C68.7108 673.889 62.8856 676.605 57.6184 674.688C52.3507 672.771 49.6348 666.946 51.5519 661.679Z" fill="white"/>
<path d="M105.309 692.054L112.252 672.978L93.1758 666.035C89.3413 676.57 94.773 688.22 105.309 692.054Z" fill="white"/>
<path d="M131.318 679.935L112.242 672.992L105.299 692.068L124.375 699.011L131.318 679.935Z" fill="white"/>
<path d="M150.408 686.861L131.332 679.918L124.389 698.994L143.465 705.937L150.408 686.861Z" fill="white"/>
<path d="M169.482 693.81L150.406 686.867L143.463 705.943L162.539 712.886L169.482 693.81Z" fill="white"/>
<path d="M38.5302 667.768C43.7982 669.686 46.5139 675.51 44.5966 680.778C42.6792 686.046 36.8551 688.762 31.5871 686.844C26.3195 684.927 23.6032 679.103 25.5206 673.835C27.4379 668.567 33.2625 665.851 38.5302 667.768Z" fill="white"/>
<path d="M139.997 715.479C140.806 713.256 143.469 705.941 143.469 705.941C143.469 705.941 149.962 708.305 153.007 709.413C155.384 710.278 162.545 712.884 162.545 712.884C162.545 712.884 160.125 719.533 159.073 722.422C157.156 727.69 151.331 730.406 146.064 728.489C140.796 726.572 138.08 720.747 139.997 715.479Z" fill="white"/>
<path d="M3.00177 676.396L-16.0742 669.453L-23.0173 688.529L-3.94132 695.472L3.00177 676.396Z" fill="white"/>
<path d="M3 676.402L-3.94309 695.478L15.1329 702.421C18.9675 691.886 13.5353 680.237 3 676.402Z" fill="white"/>
<path d="M75.8075 713.727C74.9984 715.95 72.336 723.265 72.336 723.265C72.336 723.265 65.8429 720.902 62.7982 719.793C60.4204 718.928 53.2602 716.322 53.2602 716.322C53.2602 716.322 55.6797 709.674 56.7316 706.784C58.6492 701.517 64.4735 698.8 69.7407 700.717C75.0084 702.635 77.7248 708.46 75.8075 713.727Z" fill="white"/>
<path d="M133.061 734.544C132.252 736.767 129.59 744.082 129.59 744.082C129.59 744.082 123.097 741.718 120.052 740.61C117.674 739.745 110.514 737.138 110.514 737.138C110.514 737.138 112.934 730.491 113.985 727.6C115.903 722.333 121.727 719.617 126.995 721.534C132.262 723.451 134.979 729.276 133.061 734.544Z" fill="white"/>
<path d="M15.115 702.424L-3.96094 695.48L-10.904 714.556L8.17193 721.5L15.115 702.424Z" fill="white"/>
<path d="M17.7004 724.993C15.4772 724.184 8.16238 721.521 8.16238 721.521C8.16238 721.521 10.5259 715.027 11.6339 711.983C12.4993 709.606 15.1055 702.445 15.1055 702.445C15.1055 702.445 21.7538 704.865 24.6434 705.917C29.9107 707.834 32.6271 713.659 30.7099 718.926C28.7928 724.194 22.9676 726.91 17.7004 724.993Z" fill="white"/>
<path d="M65.3946 742.351L72.3377 723.275L53.2617 716.332C49.4272 726.867 54.8589 738.516 65.3946 742.351Z" fill="white"/>
<path d="M91.4197 730.209L72.3438 723.266L65.4007 742.342L84.4766 749.285L91.4197 730.209Z" fill="white"/>
<path d="M110.494 737.15L91.418 730.207L84.4749 749.283L103.551 756.226L110.494 737.15Z" fill="white"/>
<path d="M129.588 744.084L110.512 737.141L103.569 756.217L122.645 763.16L129.588 744.084Z" fill="white"/>
<path d="M129.598 744.082L122.655 763.158L141.731 770.101C145.565 759.565 140.133 747.917 129.598 744.082Z" fill="white"/>
<path d="M8.17361 721.506L-10.9023 714.562L-17.8454 733.638L1.23053 740.582L8.17361 721.506Z" fill="white"/>
<path d="M42.8544 744.922C42.0453 747.146 39.3829 754.46 39.3829 754.46C39.3829 754.46 32.8898 752.097 29.8451 750.989C27.4673 750.124 20.3071 747.517 20.3071 747.517C20.3071 747.517 22.7266 740.869 23.7785 737.979C25.6961 732.712 31.5204 729.996 36.7876 731.913C42.0553 733.83 44.7717 739.655 42.8544 744.922Z" fill="white"/>
<path d="M77.5157 768.371L84.4588 749.295L65.3828 742.352C61.5483 752.887 66.9801 764.536 77.5157 768.371Z" fill="white"/>
<path d="M103.549 756.236L84.4727 749.293L77.5296 768.369L96.6055 775.312L103.549 756.236Z" fill="white"/>
<path d="M119.153 772.714C119.963 770.491 122.625 763.176 122.625 763.176C122.625 763.176 129.118 765.539 132.163 766.647C134.541 767.513 141.701 770.119 141.701 770.119C141.701 770.119 139.281 776.767 138.229 779.657C136.312 784.924 130.487 787.64 125.22 785.723C119.952 783.806 117.236 777.981 119.153 772.714Z" fill="white"/>
<path d="M1.23611 740.588L-17.8398 733.645L-24.7829 752.721L-5.70698 759.664L1.23611 740.588Z" fill="white"/>
<path d="M20.3142 747.525L1.23828 740.582L-5.70481 759.658L13.3711 766.601L20.3142 747.525Z" fill="white"/>
<path d="M39.3846 754.474L20.3086 747.531L13.3655 766.607L32.4415 773.55L39.3846 754.474Z" fill="white"/>
<path d="M39.3945 754.473L32.4514 773.549L51.5274 780.492C55.3621 769.956 49.9298 758.307 39.3945 754.473Z" fill="white"/>
<path d="M96.6306 775.291L77.5547 768.348L70.6116 787.424L89.6876 794.367L96.6306 775.291Z" fill="white"/>
<path d="M96.6016 775.309L89.6585 794.385L108.734 801.328C112.569 790.792 107.137 779.143 96.6016 775.309Z" fill="white"/>
<path d="M51.5408 780.47L32.4648 773.527L25.5218 792.603L44.5977 799.546L51.5408 780.47Z" fill="white"/>
<path d="M82.7071 813.457L89.6502 794.381L70.5742 787.438C66.7397 797.973 72.1714 809.622 82.7071 813.457Z" fill="white"/>
<path d="M108.756 801.31L89.6797 794.367L82.7366 813.443C93.2719 817.278 104.921 811.846 108.756 801.31Z" fill="white"/>
<path d="M-3.11436 782.21C2.15365 784.127 4.86934 789.952 2.95207 795.219C1.03467 800.487 -4.78943 803.203 -10.0574 801.286C-15.3251 799.369 -18.0413 793.544 -16.1239 788.276C-14.2066 783.009 -8.382 780.293 -3.11436 782.21Z" fill="white"/>
<path d="M44.5642 799.572L25.4883 792.629L18.5452 811.705L37.6212 818.648L44.5642 799.572Z" fill="white"/>
<path d="M111.35 823.862C116.619 825.78 119.334 831.604 117.417 836.872C115.5 842.14 109.675 844.856 104.407 842.938C99.1398 841.021 96.4236 835.197 98.341 829.929C100.258 824.661 106.083 821.945 111.35 823.862Z" fill="white"/>
<path d="M37.615 818.654L18.5391 811.711L11.596 830.787L30.6719 837.73L37.615 818.654Z" fill="white"/>
<path d="M11.619 830.763L-7.45703 823.82L-14.4001 842.896L4.67588 849.839L11.619 830.763Z" fill="white"/>
<path d="M30.6853 837.724L11.6094 830.781L4.66629 849.857C15.2016 853.692 26.8508 848.26 30.6853 837.724Z" fill="white"/>
<path d="M54.9983 889.724L74.0743 896.668L81.0174 877.592C70.4821 873.757 58.833 879.189 54.9983 889.724Z" fill="white"/>
<path d="M80.9727 877.621L74.0296 896.697L93.1056 903.64C96.9402 893.105 91.5079 881.456 80.9727 877.621Z" fill="white"/>
<path d="M-9.22042 888.002L9.85553 894.945L16.7986 875.869C6.26334 872.034 -5.38576 877.466 -9.22042 888.002Z" fill="white"/>
<path d="M35.8963 882.783L16.8203 875.84L9.87723 894.916L28.9532 901.859L35.8963 882.783Z" fill="white"/>
<path d="M54.9627 889.736L35.8867 882.793L28.9436 901.869L48.0196 908.812L54.9627 889.736Z" fill="white"/>
<path d="M74.0369 896.681L54.9609 889.738L48.0179 908.814L67.0938 915.757L74.0369 896.681Z" fill="white"/>
<path d="M93.1151 903.631L74.0391 896.688L67.096 915.763L86.172 922.707L93.1151 903.631Z" fill="white"/>
<path d="M9.86893 894.935L-9.20703 887.992L-16.1501 907.068C-5.61484 910.903 6.0344 905.471 9.86893 894.935Z" fill="white"/>
<path d="M41.0665 927.917L48.0096 908.842L28.9336 901.898C25.0991 912.434 30.5308 924.083 41.0665 927.917Z" fill="white"/>
<path d="M67.0916 915.783L48.0156 908.84L41.0725 927.916L60.1485 934.859L67.0916 915.783Z" fill="white"/>
<path d="M86.1697 922.709L67.0938 915.766L60.1507 934.842L79.2267 941.785L86.1697 922.709Z" fill="white"/>
<path d="M12.4677 917.479C17.7357 919.397 20.4514 925.221 18.5341 930.489C16.6167 935.757 10.7926 938.473 5.52459 936.555C0.256946 934.638 -2.45926 928.814 -0.541858 923.546C1.37541 918.278 7.20004 915.562 12.4677 917.479Z" fill="white"/>
<path d="M56.6886 944.37C57.4978 942.147 60.1602 934.832 60.1602 934.832C60.1602 934.832 66.6536 937.195 69.6982 938.304C72.0758 939.169 79.2361 941.775 79.2361 941.775C79.2361 941.775 76.8163 948.423 75.7646 951.313C73.8475 956.58 68.0223 959.297 62.7551 957.38C57.4874 955.462 54.7715 949.637 56.6886 944.37Z" fill="white"/>
<path d="M200.253 467.4L157.896 451.983C137.252 444.469 114.811 451.741 102.431 468.346C101.157 470.06 99.9788 471.884 98.9245 473.784C97.7656 475.887 96.7561 478.121 95.9104 480.444L80.1295 523.802C71.0799 548.666 84.1786 576.328 109.309 585.475L130.487 593.183L151.666 600.891C176.796 610.038 204.612 597.267 213.661 572.404L229.437 529.059C238.482 504.209 225.383 476.546 200.253 467.4ZM193.627 565.127C188.601 578.934 173.039 586.002 158.938 580.87L137.773 573.167L116.608 565.463C102.507 560.331 95.129 544.913 100.154 531.106L115.935 487.748C117.505 483.435 120.104 479.784 123.36 476.946C126.5 474.218 130.254 472.257 134.292 471.217C139.485 469.871 145.158 470.03 150.606 472.013L192.962 487.429C207.063 492.562 214.433 507.962 209.408 521.769L193.627 565.127Z" fill="white"/>
<path d="M193.826 508.224L136.598 487.395L115.768 544.622L172.996 565.452L193.826 508.224Z" fill="white"/>
</mask>
<g mask="url(#mask1)">
<path d="M245.868 483.976L-231.031 310.398L-404.608 787.298L72.2909 960.875L245.868 483.976Z" fill="white"/>
</g>
<rect x="-126.691" y="542.77" width="153.338" height="142.064" transform="rotate(20 -126.691 542.77)" fill="white"/>
<defs>
<linearGradient id="paint0_linear" x1="1351.95" y1="1820.99" x2="420.79" y2="-3.24246" gradientUnits="userSpaceOnUse">
<stop offset="0.141395" stop-color="#5D98E7"/>
<stop offset="1" stop-color="#C025E0"/>
</linearGradient>
</defs>
</svg>
