<svg width="130" height="152" viewBox="0 0 130 152" fill="none" xmlns="http://www.w3.org/2000/svg">
<path d="M115.331 97.8912C110.459 103.374 100.505 101.991 97.5373 95.339C92.6129 84.9824 88.7394 74.1698 84.1173 63.6864C79.7466 73.8142 75.8576 84.1709 71.3275 94.2477C69.3443 99.6294 62.6598 103.094 57.0926 100.606C52.6936 98.6393 50.3171 93.8033 49.3054 91.1763C45.5894 81.5562 40.6122 69.626 34.4277 55.1814C32.51 50.6763 35.9246 45.7268 40.9537 45.7268C42.3649 45.7248 43.7443 46.1311 44.9145 46.8934C46.0847 47.6556 46.9921 48.739 47.5198 50.0039C52.0235 60.7663 56.5144 71.5657 61.0709 82.3166C64.9189 73.1639 68.6741 63.99 72.4429 54.8012C74.1503 50.6763 76.3693 46.0436 81.1498 44.6346C86.4147 42.7187 92.1276 46.3481 94.1099 51.0591C99.179 62.126 103.398 73.5361 108.306 84.6409C113.282 76.4562 116.41 67.1011 115.869 57.5065C115.278 36.4121 97.6165 17.1992 76.0015 14.295C50.3034 10.5213 24.1064 27.5665 16.7135 51.4015C9.36792 75.0807 20.5169 98.8444 36.0949 110.542C36.0949 110.542 50.7833 121.574 71.8128 121.977C73.3364 121.991 74.8539 121.791 76.3174 121.381C76.9246 121.195 77.5168 120.966 78.0894 120.696L73.074 117.383L69.5228 114.831L66.3485 112.165C65.7138 111.553 65.2364 110.806 64.9544 109.983C64.3498 108.19 64.8033 106.277 65.7102 105.07C67.3219 102.926 70.9687 102.204 74.2459 103.838L96.0831 118.853C96.173 118.926 96.2564 119.007 96.3326 119.094C96.4157 119.114 96.4926 119.153 96.5566 119.207C99.2218 121.049 99.7864 124.83 97.7777 127.635L82.3745 149.274C80.3913 152.067 76.5706 152.841 73.8917 151.001C71.1864 149.147 70.6218 145.353 72.6442 142.561L78.3298 134.717L78.1722 134.755C78.1722 134.755 71.923 136.251 64.3316 135.301C35.3847 131.693 17.9382 112.977 17.9382 112.977C7.49853 101.976 1.63902 87.5037 0 72.7687V63.0774C1.44507 48.1162 7.40656 33.455 17.9382 22.2993C29.5069 9.53118 46.2887 1.88159 63.6223 0H73.8516C92.6302 1.68798 110.436 11.793 120.416 27.3377C134.844 48.5588 132.848 78.8914 115.331 97.8912Z" fill="white"/>
</svg>
