<svg width="398" height="398" viewBox="0 0 398 398" fill="none" xmlns="http://www.w3.org/2000/svg">
<mask id="mask0" mask-type="alpha" maskUnits="userSpaceOnUse" x="0" y="0" width="398" height="398">
<path d="M102.522 0.0078125C105.853 0.0078125 108.552 2.70758 108.552 6.03785C108.552 9.36837 105.853 12.0679 102.522 12.0679C99.192 12.0679 96.4922 9.36837 96.4922 6.03785C96.4922 2.70758 99.192 0.0078125 102.522 0.0078125Z" fill="white"/>
<path d="M144.724 6.03785C144.724 7.44334 144.724 12.0679 144.724 12.0679C144.724 12.0679 140.619 12.0679 138.694 12.0677C137.191 12.0679 132.664 12.0677 132.664 12.0677C132.664 12.0677 132.664 7.86496 132.664 6.03785C132.664 2.70758 135.364 0.0078125 138.694 0.0078125C142.024 0.0078125 144.724 2.70758 144.724 6.03785Z" fill="white"/>
<path d="M192.977 12.0679H205.037V0.0078125C198.376 0.0078125 192.977 5.40711 192.977 12.0679Z" fill="white"/>
<path d="M211.061 12.0601C209.656 12.0601 205.031 12.0601 205.031 12.0601C205.031 12.0601 205.031 7.95459 205.031 6.03004C205.031 4.52687 205.031 0 205.031 0C205.031 0 209.234 0 211.061 0C214.391 0 217.091 2.69977 217.091 6.03004C217.091 9.36007 214.391 12.0601 211.061 12.0601Z" fill="white"/>
<path d="M229.141 12.0679H241.201V0.0078125C234.54 0.0078125 229.141 5.40711 229.141 12.0679Z" fill="white"/>
<path d="M247.237 12.0601C245.832 12.0601 241.207 12.0601 241.207 12.0601C241.207 12.0601 241.207 7.95459 241.207 6.03004C241.207 4.52687 241.207 0 241.207 0C241.207 0 245.41 0 247.237 0C250.567 0 253.267 2.69977 253.267 6.03004C253.267 9.36007 250.567 12.0601 247.237 12.0601Z" fill="white"/>
<path d="M271.358 0.0078125C274.689 0.0078125 277.388 2.70758 277.388 6.03785C277.388 9.36837 274.689 12.0679 271.358 12.0679C268.028 12.0679 265.328 9.36837 265.328 6.03785C265.328 2.70758 268.028 0.0078125 271.358 0.0078125Z" fill="white"/>
<path d="M301.505 6.03785C301.505 7.44334 301.505 12.0679 301.505 12.0679C301.505 12.0679 297.4 12.0679 295.475 12.0677C293.972 12.0679 289.445 12.0677 289.445 12.0677C289.445 12.0677 289.445 7.86496 289.445 6.03785C289.446 2.70758 292.145 0.0078125 295.475 0.0078125C298.805 0.0078125 301.505 2.70758 301.505 6.03785Z" fill="white"/>
<path d="M120.613 24.1382L132.673 24.1382V12.0781C126.013 12.0781 120.613 17.4774 120.613 24.1382Z" fill="white"/>
<path d="M144.732 12.0703L132.672 12.0703V24.1304H144.732V12.0703Z" fill="white"/>
<path d="M168.853 18.1004C168.853 19.5058 168.853 24.1304 168.853 24.1304C168.853 24.1304 164.748 24.1304 162.823 24.1302C161.32 24.1304 156.793 24.1302 156.793 24.1302C156.793 24.1302 156.793 19.9275 156.793 18.1004C156.793 14.7701 159.493 12.0703 162.823 12.0703C166.153 12.0703 168.853 14.7701 168.853 18.1004Z" fill="white"/>
<path d="M180.906 24.1304H192.966V12.0703C186.306 12.0703 180.906 17.4696 180.906 24.1304Z" fill="white"/>
<path d="M205.029 12.0703H192.969V24.1304H205.029V12.0703Z" fill="white"/>
<path d="M229.145 18.1043C229.145 16.6988 229.145 12.0742 229.145 12.0742C229.145 12.0742 233.25 12.0742 235.175 12.0742C236.678 12.0742 241.205 12.0742 241.205 12.0742C241.205 12.0742 241.205 16.2774 241.205 18.1043C241.205 21.4343 238.505 24.1343 235.175 24.1343C231.844 24.1343 229.145 21.4343 229.145 18.1043Z" fill="white"/>
<path d="M301.513 12.0703H289.453V24.1304H301.513V12.0703Z" fill="white"/>
<path d="M102.511 24.1172C105.841 24.1172 108.541 26.817 108.541 30.1472C108.541 33.4777 105.841 36.1773 102.511 36.1773C99.1802 36.1773 96.4805 33.4777 96.4805 30.1472C96.4805 26.817 99.1802 24.1172 102.511 24.1172Z" fill="white"/>
<path d="M132.666 24.1172H120.605V36.1773H132.666V24.1172Z" fill="white"/>
<path d="M144.724 24.1289H132.664V36.189H144.724V24.1289Z" fill="white"/>
<path d="M156.798 24.1172H144.738V36.1773H156.798V24.1172Z" fill="white"/>
<path d="M168.857 24.1328H156.797V36.1929H168.857V24.1328Z" fill="white"/>
<path d="M192.97 24.1172H180.91V36.1773H192.97V24.1172Z" fill="white"/>
<path d="M205.029 24.1328H192.969V36.1929H205.029V24.1328Z" fill="white"/>
<path d="M223.116 24.1289C226.446 24.1289 229.146 26.8287 229.146 30.1589C229.146 33.4895 226.446 36.189 223.116 36.189C219.786 36.189 217.086 33.4895 217.086 30.1589C217.086 26.8287 219.786 24.1289 223.116 24.1289Z" fill="white"/>
<path d="M253.266 36.2007H265.326V24.1406C258.665 24.1406 253.266 29.5399 253.266 36.2007Z" fill="white"/>
<path d="M277.38 24.1328H265.32V36.1929H277.38V24.1328Z" fill="white"/>
<path d="M289.451 24.1211H277.391V36.1812H289.451V24.1211Z" fill="white"/>
<path d="M301.513 24.1289H289.453V36.189H301.513V24.1289Z" fill="white"/>
<path d="M120.609 42.2097C120.609 40.8042 120.609 36.1797 120.609 36.1797C120.609 36.1797 124.715 36.1797 126.639 36.1797C128.143 36.1797 132.669 36.1797 132.669 36.1797C132.669 36.1797 132.669 40.3829 132.669 42.2097C132.669 45.5398 129.969 48.2398 126.639 48.2398C123.309 48.2398 120.609 45.5398 120.609 42.2097Z" fill="white"/>
<path d="M168.861 36.1836H156.801V48.2437H168.861V36.1836Z" fill="white"/>
<path d="M192.97 36.1836H180.91V48.2437H192.97V36.1836Z" fill="white"/>
<path d="M205.033 36.1836H192.973V48.2437H205.033V36.1836Z" fill="white"/>
<path d="M265.322 36.1914H253.262V48.2515H265.322V36.1914Z" fill="white"/>
<path d="M289.439 48.2359V36.1758H277.379C277.379 42.8363 282.778 48.2359 289.439 48.2359Z" fill="white"/>
<path d="M301.525 36.1758H289.465V48.2359C296.125 48.2359 301.525 42.8363 301.525 36.1758Z" fill="white"/>
<path d="M102.511 48.2461C105.841 48.2461 108.541 50.9459 108.541 54.2761C108.541 57.6066 105.841 60.3062 102.511 60.3062C99.1802 60.3062 96.4805 57.6066 96.4805 54.2761C96.4805 50.9459 99.1802 48.2461 102.511 48.2461Z" fill="white"/>
<path d="M138.694 48.2461C140.1 48.2461 144.724 48.2461 144.724 48.2461C144.724 48.2461 144.724 52.3509 144.724 54.2761C144.724 55.7788 144.724 60.3062 144.724 60.3062C144.724 60.3062 140.522 60.3062 138.694 60.3062C135.363 60.3062 132.664 57.6052 132.664 54.2761C132.664 50.9466 135.363 48.2461 138.694 48.2461Z" fill="white"/>
<path d="M156.787 48.25H144.727V60.3101H156.787V48.25Z" fill="white"/>
<path d="M168.845 48.2422H156.785V60.3023C163.446 60.3023 168.845 54.9027 168.845 48.2422Z" fill="white"/>
<path d="M192.97 48.2461H180.91V60.3062H192.97V48.2461Z" fill="white"/>
<path d="M205.033 48.25H192.973V60.3101H205.033V48.25Z" fill="white"/>
<path d="M217.091 48.2461H205.031V60.3062H217.091V48.2461Z" fill="white"/>
<path d="M223.112 60.3062C221.707 60.3062 217.082 60.3062 217.082 60.3062C217.082 60.3062 217.082 56.2007 217.082 54.2761C217.082 52.773 217.082 48.2461 217.082 48.2461C217.082 48.2461 221.285 48.2461 223.112 48.2461C226.442 48.2461 229.142 50.9459 229.142 54.2761C229.142 57.6062 226.442 60.3062 223.112 60.3062Z" fill="white"/>
<path d="M265.322 48.2461H253.262V60.3062H265.322V48.2461Z" fill="white"/>
<path d="M271.354 60.3062C269.949 60.3062 265.324 60.3062 265.324 60.3062C265.324 60.3062 265.324 56.2007 265.324 54.2761C265.324 52.773 265.324 48.2461 265.324 48.2461C265.324 48.2461 269.527 48.2461 271.354 48.2461C274.684 48.2461 277.384 50.9459 277.384 54.2761C277.384 57.6062 274.684 60.3062 271.354 60.3062Z" fill="white"/>
<path d="M132.669 66.3386C132.669 67.7441 132.669 72.3687 132.669 72.3687C132.669 72.3687 128.564 72.3687 126.639 72.3684C125.136 72.3687 120.609 72.3684 120.609 72.3684C120.609 72.3684 120.609 68.1657 120.609 66.3386C120.61 63.0084 123.309 60.3086 126.639 60.3086C129.969 60.3086 132.669 63.0084 132.669 66.3386Z" fill="white"/>
<path d="M156.787 60.3086H144.727V72.3687H156.787V60.3086Z" fill="white"/>
<path d="M168.844 72.3531H180.904V60.293C174.243 60.293 168.844 65.6923 168.844 72.3531Z" fill="white"/>
<path d="M192.978 60.3086H180.918V72.3687C187.579 72.3687 192.978 66.9691 192.978 60.3086Z" fill="white"/>
<path d="M205.035 66.3386C205.035 64.9332 205.035 60.3086 205.035 60.3086C205.035 60.3086 209.14 60.3086 211.065 60.3086C212.568 60.3086 217.095 60.3086 217.095 60.3086C217.095 60.3086 217.095 64.5118 217.095 66.3386C217.095 69.6687 214.395 72.3687 211.065 72.3687C207.735 72.3687 205.035 69.6687 205.035 66.3386Z" fill="white"/>
<path d="M253.273 66.3386C253.273 64.9332 253.273 60.3086 253.273 60.3086C253.273 60.3086 257.379 60.3086 259.303 60.3086C260.807 60.3086 265.334 60.3086 265.334 60.3086C265.334 60.3086 265.334 64.5118 265.334 66.3386C265.334 69.6687 262.634 72.3687 259.303 72.3687C255.973 72.3687 253.273 69.6687 253.273 66.3386Z" fill="white"/>
<path d="M283.409 60.3047C284.814 60.3047 289.439 60.3047 289.439 60.3047C289.439 60.3047 289.439 64.4095 289.439 66.3347C289.439 67.8374 289.439 72.3648 289.439 72.3648C289.439 72.3648 285.237 72.3648 283.409 72.3648C280.077 72.3648 277.379 69.6638 277.379 66.3347C277.379 63.0052 280.077 60.3047 283.409 60.3047Z" fill="white"/>
<path d="M289.445 60.3164V72.3765H301.505C301.505 65.7157 296.106 60.3164 289.445 60.3164Z" fill="white"/>
<path d="M108.544 78.3972C108.544 79.8027 108.544 84.4273 108.544 84.4273C108.544 84.4273 104.439 84.4273 102.514 84.427C101.011 84.4273 96.4844 84.427 96.4844 84.427C96.4844 84.427 96.4844 80.2243 96.4844 78.3972C96.4846 75.067 99.1841 72.3672 102.514 72.3672C105.844 72.3672 108.544 75.067 108.544 78.3972Z" fill="white"/>
<path d="M132.666 72.375H120.605V84.4351H132.666V72.375Z" fill="white"/>
<path d="M156.794 72.3672H144.734V84.4273H156.794V72.3672Z" fill="white"/>
<path d="M168.848 78.405C168.848 76.9996 168.848 72.375 168.848 72.375C168.848 72.375 172.953 72.375 174.878 72.375C176.381 72.375 180.908 72.375 180.908 72.375C180.908 72.375 180.908 76.5782 180.908 78.405C180.908 81.7351 178.208 84.4351 174.878 84.4351C171.547 84.4351 168.848 81.7351 168.848 78.405Z" fill="white"/>
<path d="M199.003 72.3555C202.333 72.3555 205.033 75.0552 205.033 78.3855C205.033 81.716 202.333 84.4156 199.003 84.4156C195.672 84.4156 192.973 81.716 192.973 78.3855C192.973 75.0552 195.672 72.3555 199.003 72.3555Z" fill="white"/>
<path d="M223.12 72.3672C226.45 72.3672 229.15 75.067 229.15 78.3972C229.15 81.7277 226.45 84.4273 223.12 84.4273C219.79 84.4273 217.09 81.7277 217.09 78.3972C217.09 75.067 219.79 72.3672 223.12 72.3672Z" fill="white"/>
<path d="M253.267 78.3933C253.267 79.7988 253.267 84.4234 253.267 84.4234C253.267 84.4234 249.162 84.4234 247.237 84.4231C245.734 84.4234 241.207 84.4231 241.207 84.4231C241.207 84.4231 241.207 80.2204 241.207 78.3933C241.207 75.0631 243.907 72.3633 247.237 72.3633C250.567 72.3633 253.267 75.0631 253.267 78.3933Z" fill="white"/>
<path d="M277.384 78.3972C277.384 79.8027 277.384 84.4273 277.384 84.4273C277.384 84.4273 273.279 84.4273 271.354 84.427C269.851 84.4273 265.324 84.427 265.324 84.427C265.324 84.427 265.324 80.2243 265.324 78.3972C265.324 75.067 268.024 72.3672 271.354 72.3672C274.684 72.3672 277.384 75.067 277.384 78.3972Z" fill="white"/>
<path d="M289.453 78.3933C289.453 76.9878 289.453 72.3633 289.453 72.3633C289.453 72.3633 293.558 72.3633 295.483 72.3633C296.986 72.3633 301.513 72.3633 301.513 72.3633C301.513 72.3633 301.513 76.5665 301.513 78.3933C301.513 81.7234 298.813 84.4234 295.483 84.4234C292.153 84.4234 289.453 81.7234 289.453 78.3933Z" fill="white"/>
<path d="M108.533 96.4741V84.4141H96.4727C96.4727 91.0746 101.872 96.4741 108.533 96.4741Z" fill="white"/>
<path d="M120.603 84.4219H108.543V96.482H120.603V84.4219Z" fill="white"/>
<path d="M132.666 84.4219H120.605V96.482H132.666V84.4219Z" fill="white"/>
<path d="M144.724 84.418H132.664V96.4781H144.724V84.418Z" fill="white"/>
<path d="M156.787 84.4219H144.727V96.482H156.787V84.4219Z" fill="white"/>
<path d="M162.823 96.482C161.418 96.482 156.793 96.482 156.793 96.482C156.793 96.482 156.793 92.3765 156.793 90.4519C156.793 88.9487 156.793 84.4219 156.793 84.4219C156.793 84.4219 160.996 84.4219 162.823 84.4219C166.153 84.4219 168.853 87.1216 168.853 90.4519C168.853 93.7819 166.153 96.482 162.823 96.482Z" fill="white"/>
<path d="M211.053 84.4219C214.384 84.4219 217.084 87.1216 217.084 90.4519C217.084 93.7824 214.384 96.482 211.053 96.482C207.723 96.482 205.023 93.7824 205.023 90.4519C205.023 87.1216 207.723 84.4219 211.053 84.4219Z" fill="white"/>
<path d="M253.263 84.4219H241.203V96.482H253.263V84.4219Z" fill="white"/>
<path d="M277.384 84.4219H265.324V96.482H277.384V84.4219Z" fill="white"/>
<path d="M277.391 84.4297V96.4898H289.451C289.451 89.829 284.051 84.4297 277.391 84.4297Z" fill="white"/>
<path d="M60.3008 108.544H72.3609V96.4844C65.7003 96.4844 60.3008 101.884 60.3008 108.544Z" fill="white"/>
<path d="M78.405 108.541C76.9996 108.541 72.375 108.541 72.375 108.541C72.375 108.541 72.375 104.435 72.375 102.511C72.375 101.007 72.375 96.4805 72.375 96.4805C72.375 96.4805 76.5782 96.4805 78.405 96.4805C81.7351 96.4805 84.4351 99.1802 84.4351 102.511C84.4351 105.841 81.7351 108.541 78.405 108.541Z" fill="white"/>
<path d="M144.724 96.4922H132.664V108.552H144.724V96.4922Z" fill="white"/>
<path d="M156.794 96.4805H144.734V108.541H156.794V96.4805Z" fill="white"/>
<path d="M168.844 108.533H180.904V96.4727C174.243 96.4727 168.844 101.872 168.844 108.533Z" fill="white"/>
<path d="M192.97 96.4805H180.91V108.541H192.97V96.4805Z" fill="white"/>
<path d="M199.003 108.541C197.597 108.541 192.973 108.541 192.973 108.541C192.973 108.541 192.973 104.435 192.973 102.511C192.973 101.007 192.973 96.4805 192.973 96.4805C192.973 96.4805 197.176 96.4805 199.003 96.4805C202.333 96.4805 205.033 99.1802 205.033 102.511C205.033 105.841 202.333 108.541 199.003 108.541Z" fill="white"/>
<path d="M217.086 108.544H229.146V96.4844C222.485 96.4844 217.086 101.884 217.086 108.544Z" fill="white"/>
<path d="M241.205 96.4805H229.145V108.541H241.205V96.4805Z" fill="white"/>
<path d="M253.279 96.4805H241.219V108.541C247.879 108.541 253.279 103.141 253.279 96.4805Z" fill="white"/>
<path d="M277.396 96.4805H265.336V108.541H277.396V96.4805Z" fill="white"/>
<path d="M289.451 96.4883H277.391V108.548H289.451V96.4883Z" fill="white"/>
<path d="M295.483 108.552C294.078 108.552 289.453 108.552 289.453 108.552C289.453 108.552 289.453 104.447 289.453 102.522C289.453 101.019 289.453 96.4922 289.453 96.4922C289.453 96.4922 293.656 96.4922 295.483 96.4922C298.813 96.4922 301.513 99.192 301.513 102.522C301.513 105.852 298.813 108.552 295.483 108.552Z" fill="white"/>
<path d="M319.593 96.4883C322.923 96.4883 325.623 99.1881 325.623 102.518C325.623 105.849 322.923 108.548 319.593 108.548C316.262 108.548 313.562 105.849 313.562 102.518C313.562 99.1881 316.262 96.4883 319.593 96.4883Z" fill="white"/>
<path d="M349.748 102.518C349.748 103.924 349.748 108.548 349.748 108.548C349.748 108.548 345.643 108.548 343.718 108.548C342.214 108.548 337.688 108.548 337.688 108.548C337.688 108.548 337.688 104.345 337.688 102.518C337.688 99.1881 340.387 96.4883 343.717 96.4883C347.048 96.4883 349.748 99.1881 349.748 102.518Z" fill="white"/>
<path d="M373.869 102.511C373.869 103.916 373.869 108.541 373.869 108.541C373.869 108.541 369.764 108.541 367.839 108.54C366.335 108.541 361.809 108.54 361.809 108.54C361.809 108.54 361.809 104.338 361.809 102.511C361.809 99.1802 364.508 96.4805 367.838 96.4805C371.169 96.4805 373.869 99.1802 373.869 102.511Z" fill="white"/>
<path d="M391.964 96.4805C395.294 96.4805 397.994 99.1802 397.994 102.511C397.994 105.841 395.294 108.541 391.964 108.541C388.633 108.541 385.934 105.841 385.934 102.511C385.934 99.1802 388.633 96.4805 391.964 96.4805Z" fill="white"/>
<path d="M0.0117187 120.599H12.0718V108.539C5.41126 108.539 0.0117187 113.938 0.0117187 120.599Z" fill="white"/>
<path d="M18.1004 120.615C16.6949 120.615 12.0703 120.615 12.0703 120.615C12.0703 120.615 12.0703 116.509 12.0703 114.585C12.0703 113.082 12.0703 108.555 12.0703 108.555C12.0703 108.555 16.2735 108.555 18.1004 108.555C21.4304 108.555 24.1304 111.254 24.1304 114.585C24.1304 117.915 21.4304 120.615 18.1004 120.615Z" fill="white"/>
<path d="M36.1953 120.599H48.2554V108.539C41.5949 108.539 36.1953 113.938 36.1953 120.599Z" fill="white"/>
<path d="M60.3062 108.535H48.2461V120.595H60.3062V108.535Z" fill="white"/>
<path d="M72.3765 108.547H60.3164V120.607C66.9769 120.607 72.3765 115.207 72.3765 108.547Z" fill="white"/>
<path d="M102.518 108.555C103.924 108.555 108.548 108.555 108.548 108.555C108.548 108.555 108.548 112.659 108.548 114.585C108.548 116.087 108.548 120.615 108.548 120.615C108.548 120.615 104.346 120.615 102.518 120.615C99.1868 120.615 96.4883 117.914 96.4883 114.585C96.4883 111.255 99.1868 108.555 102.518 108.555Z" fill="white"/>
<path d="M120.611 108.547H108.551V120.607H120.611V108.547Z" fill="white"/>
<path d="M132.666 108.547H120.605V120.607H132.666V108.547Z" fill="white"/>
<path d="M144.724 108.547H132.664V120.607H144.724V108.547Z" fill="white"/>
<path d="M156.798 108.566H144.738V120.626C151.399 120.626 156.798 115.227 156.798 108.566Z" fill="white"/>
<path d="M180.919 108.543H168.859V120.603H180.919V108.543Z" fill="white"/>
<path d="M205.035 120.599H217.095V108.539C210.435 108.539 205.035 113.938 205.035 120.599Z" fill="white"/>
<path d="M229.138 108.547H217.078V120.607H229.138V108.547Z" fill="white"/>
<path d="M241.201 108.543H229.141V120.603C235.801 120.603 241.201 115.204 241.201 108.543Z" fill="white"/>
<path d="M277.384 120.599V108.539H265.324C265.324 115.2 270.724 120.599 277.384 120.599Z" fill="white"/>
<path d="M289.447 108.555H277.387V120.615C284.047 120.615 289.447 115.215 289.447 108.555Z" fill="white"/>
<path d="M313.572 114.565C313.572 115.971 313.572 120.595 313.572 120.595C313.572 120.595 309.467 120.595 307.542 120.595C306.039 120.595 301.512 120.595 301.512 120.595C301.512 120.595 301.512 116.392 301.512 114.565C301.512 111.235 304.211 108.535 307.542 108.535C310.872 108.535 313.572 111.235 313.572 114.565Z" fill="white"/>
<path d="M325.637 120.603H337.697V108.543C331.036 108.543 325.637 113.942 325.637 120.603Z" fill="white"/>
<path d="M349.755 108.543H337.695V120.603H349.755V108.543Z" fill="white"/>
<path d="M361.798 108.547H349.738V120.607H361.798V108.547Z" fill="white"/>
<path d="M373.873 108.543H361.812V120.603H373.873V108.543Z" fill="white"/>
<path d="M373.867 108.531V120.591H385.927C385.927 113.931 380.528 108.531 373.867 108.531Z" fill="white"/>
<path d="M12.0679 120.609H0.0078125L0.0078125 132.669H12.0679V120.609Z" fill="white"/>
<path d="M24.1094 132.666H36.1695V120.605C29.5089 120.605 24.1094 126.005 24.1094 132.666Z" fill="white"/>
<path d="M48.2515 120.594H36.1914V132.654H48.2515V120.594Z" fill="white"/>
<path d="M60.3179 120.613H48.2578V132.673C54.9184 132.673 60.3179 127.274 60.3179 120.613Z" fill="white"/>
<path d="M78.405 120.605C81.7356 120.605 84.4351 123.305 84.4351 126.636C84.4351 129.966 81.7356 132.666 78.405 132.666C75.0748 132.666 72.375 129.966 72.375 126.636C72.375 123.305 75.0748 120.605 78.405 120.605Z" fill="white"/>
<path d="M120.607 120.605H108.547V132.666H120.607V120.605Z" fill="white"/>
<path d="M132.664 126.624C132.664 125.218 132.664 120.594 132.664 120.594C132.664 120.594 136.769 120.594 138.694 120.594C140.197 120.594 144.724 120.594 144.724 120.594C144.724 120.594 144.724 124.797 144.724 126.624C144.724 129.954 142.024 132.654 138.694 132.654C135.364 132.654 132.664 129.954 132.664 126.624Z" fill="white"/>
<path d="M162.819 120.609C164.225 120.609 168.849 120.609 168.849 120.609C168.849 120.609 168.849 124.714 168.849 126.639C168.849 128.142 168.849 132.669 168.849 132.669C168.849 132.669 164.647 132.669 162.819 132.669C159.488 132.669 156.789 129.968 156.789 126.639C156.789 123.31 159.488 120.609 162.819 120.609Z" fill="white"/>
<path d="M180.919 120.605H168.859V132.666H180.919V120.605Z" fill="white"/>
<path d="M192.97 120.605H180.91V132.666H192.97V120.605Z" fill="white"/>
<path d="M205.029 120.594H192.969V132.654H205.029V120.594Z" fill="white"/>
<path d="M217.087 120.602H205.027V132.662C211.688 132.662 217.087 127.262 217.087 120.602Z" fill="white"/>
<path d="M259.303 120.609C262.634 120.609 265.334 123.309 265.334 126.639C265.334 129.97 262.634 132.669 259.303 132.669C255.973 132.669 253.273 129.97 253.273 126.639C253.273 123.309 255.973 120.609 259.303 120.609Z" fill="white"/>
<path d="M295.483 120.594C296.889 120.594 301.513 120.594 301.513 120.594C301.513 120.594 301.513 124.699 301.513 126.624C301.513 128.126 301.513 132.654 301.513 132.654C301.513 132.654 297.311 132.654 295.483 132.654C292.152 132.654 289.453 129.953 289.453 126.624C289.453 123.294 292.152 120.594 295.483 120.594Z" fill="white"/>
<path d="M313.572 120.605H301.512V132.666H313.572V120.605Z" fill="white"/>
<path d="M325.626 120.605H313.566V132.666H325.626V120.605Z" fill="white"/>
<path d="M337.697 120.609H325.637V132.669H337.697V120.609Z" fill="white"/>
<path d="M373.869 120.609H361.809V132.669H373.869V120.609Z" fill="white"/>
<path d="M385.927 120.594H373.867V132.654H385.927V120.594Z" fill="white"/>
<path d="M12.0601 144.732V132.672H0C0 139.332 5.3993 144.732 12.0601 144.732Z" fill="white"/>
<path d="M24.1187 132.672H12.0586V144.732H24.1187V132.672Z" fill="white"/>
<path d="M36.1929 132.672H24.1328V144.732H36.1929V132.672Z" fill="white"/>
<path d="M48.2593 132.68H36.1992V144.74C42.8598 144.74 48.2593 139.34 48.2593 132.68Z" fill="white"/>
<path d="M72.3687 138.702C72.3687 140.107 72.3687 144.732 72.3687 144.732C72.3687 144.732 68.2637 144.732 66.3386 144.732C64.8355 144.732 60.3086 144.732 60.3086 144.732C60.3086 144.732 60.3086 140.529 60.3086 138.702C60.3088 135.372 63.0084 132.672 66.3384 132.672C69.6687 132.672 72.3687 135.372 72.3687 138.702Z" fill="white"/>
<path d="M120.607 132.664H108.547V144.724H120.607V132.664Z" fill="white"/>
<path d="M265.328 144.724H277.388V132.664C270.728 132.664 265.328 138.063 265.328 144.724Z" fill="white"/>
<path d="M283.409 144.724C282.003 144.724 277.379 144.724 277.379 144.724C277.379 144.724 277.379 140.619 277.379 138.694C277.379 137.191 277.379 132.664 277.379 132.664C277.379 132.664 281.582 132.664 283.409 132.664C286.739 132.664 289.439 135.364 289.439 138.694C289.439 142.024 286.739 144.724 283.409 144.724Z" fill="white"/>
<path d="M325.626 132.672H313.566V144.732H325.626V132.672Z" fill="white"/>
<path d="M337.685 132.672H325.625V144.732C332.286 144.732 337.685 139.332 337.685 132.672Z" fill="white"/>
<path d="M349.727 144.724H361.787V132.664C355.126 132.664 349.727 138.063 349.727 144.724Z" fill="white"/>
<path d="M373.869 132.664H361.809V144.724H373.869V132.664Z" fill="white"/>
<path d="M385.931 132.664H373.871V144.724H385.931V132.664Z" fill="white"/>
<path d="M54.2761 144.727C55.6816 144.727 60.3062 144.727 60.3062 144.727C60.3062 144.727 60.3062 148.831 60.3062 150.757C60.3062 152.259 60.3062 156.787 60.3062 156.787C60.3062 156.787 56.104 156.787 54.2761 156.787C50.9447 156.787 48.2461 154.086 48.2461 150.757C48.2461 147.427 50.9447 144.727 54.2761 144.727Z" fill="white"/>
<path d="M72.3687 144.727H60.3086V156.787H72.3687V144.727Z" fill="white"/>
<path d="M78.405 156.798C76.9996 156.798 72.375 156.798 72.375 156.798C72.375 156.798 72.375 152.693 72.375 150.768C72.375 149.265 72.375 144.738 72.375 144.738C72.375 144.738 76.5782 144.738 78.405 144.738C81.7351 144.738 84.4351 147.438 84.4351 150.768C84.4351 154.098 81.7351 156.798 78.405 156.798Z" fill="white"/>
<path d="M102.518 144.73C103.924 144.73 108.548 144.73 108.548 144.73C108.548 144.73 108.548 148.835 108.548 150.761C108.548 152.263 108.548 156.791 108.548 156.791C108.548 156.791 104.346 156.791 102.518 156.791C99.1868 156.791 96.4883 154.09 96.4883 150.761C96.4883 147.431 99.1868 144.73 102.518 144.73Z" fill="white"/>
<path d="M120.615 144.727H108.555V156.787H120.615V144.727Z" fill="white"/>
<path d="M120.602 144.711V156.771H132.662C132.662 150.11 127.262 144.711 120.602 144.711Z" fill="white"/>
<path d="M277.384 144.738H265.324V156.798H277.384V144.738Z" fill="white"/>
<path d="M325.626 144.719H313.566V156.779H325.626V144.719Z" fill="white"/>
<path d="M343.718 144.727C345.123 144.727 349.748 144.727 349.748 144.727C349.748 144.727 349.748 148.831 349.748 150.757C349.748 152.259 349.748 156.787 349.748 156.787C349.748 156.787 345.545 156.787 343.718 156.787C340.386 156.787 337.688 154.086 337.688 150.757C337.688 147.427 340.386 144.727 343.718 144.727Z" fill="white"/>
<path d="M361.81 144.738H349.75V156.798H361.81V144.738Z" fill="white"/>
<path d="M385.935 156.771V144.711H373.875C373.875 151.371 379.274 156.771 385.935 156.771Z" fill="white"/>
<path d="M385.938 144.738V156.798H397.998C397.998 150.138 392.598 144.738 385.938 144.738Z" fill="white"/>
<path d="M90.4519 156.793C93.7824 156.793 96.482 159.493 96.482 162.823C96.482 166.154 93.7824 168.853 90.4519 168.853C87.1216 168.853 84.4219 166.154 84.4219 162.823C84.4219 159.493 87.1216 156.793 90.4519 156.793Z" fill="white"/>
<path d="M120.615 168.83V156.77H108.555C108.555 163.43 113.954 168.83 120.615 168.83Z" fill="white"/>
<path d="M132.669 156.77H120.609V168.83C127.27 168.83 132.669 163.43 132.669 156.77Z" fill="white"/>
<path d="M277.388 156.781H265.328V168.841H277.388V156.781Z" fill="white"/>
<path d="M283.417 168.849C282.011 168.849 277.387 168.849 277.387 168.849C277.387 168.849 277.387 164.744 277.387 162.819C277.387 161.316 277.387 156.789 277.387 156.789C277.387 156.789 281.59 156.789 283.417 156.789C286.747 156.789 289.447 159.489 289.447 162.819C289.447 166.149 286.747 168.849 283.417 168.849Z" fill="white"/>
<path d="M307.542 156.777C308.947 156.777 313.572 156.777 313.572 156.777C313.572 156.777 313.572 160.882 313.572 162.807C313.572 164.31 313.572 168.837 313.572 168.837C313.572 168.837 309.37 168.837 307.542 168.837C304.21 168.837 301.512 166.136 301.512 162.807C301.512 159.478 304.21 156.777 307.542 156.777Z" fill="white"/>
<path d="M325.615 156.77H313.555V168.83C320.215 168.83 325.615 163.43 325.615 156.77Z" fill="white"/>
<path d="M361.814 156.793H349.754V168.853H361.814V156.793Z" fill="white"/>
<path d="M385.93 162.811C385.93 161.406 385.93 156.781 385.93 156.781C385.93 156.781 390.035 156.781 391.96 156.781C393.463 156.781 397.99 156.781 397.99 156.781C397.99 156.781 397.99 160.984 397.99 162.811C397.99 166.141 395.29 168.841 391.96 168.841C388.629 168.841 385.93 166.141 385.93 162.811Z" fill="white"/>
<path d="M6.04176 168.859C9.37227 168.859 12.0718 171.559 12.0718 174.889C12.0718 178.22 9.37227 180.919 6.04176 180.919C2.71149 180.919 0.0117187 178.22 0.0117187 174.889C0.0117187 171.559 2.71149 168.859 6.04176 168.859Z" fill="white"/>
<path d="M36.1758 180.904H48.2359V168.844C41.5753 168.844 36.1758 174.243 36.1758 180.904Z" fill="white"/>
<path d="M54.2761 180.912C52.8707 180.912 48.2461 180.912 48.2461 180.912C48.2461 180.912 48.2461 176.806 48.2461 174.882C48.2461 173.378 48.2461 168.852 48.2461 168.852C48.2461 168.852 52.4493 168.852 54.2761 168.852C57.6062 168.852 60.3062 171.551 60.3062 174.882C60.3062 178.212 57.6062 180.912 54.2761 180.912Z" fill="white"/>
<path d="M78.3972 168.859C81.7277 168.859 84.4273 171.559 84.4273 174.889C84.4273 178.22 81.7277 180.919 78.3972 180.919C75.067 180.919 72.3672 178.22 72.3672 174.889C72.3672 171.559 75.067 168.859 78.3972 168.859Z" fill="white"/>
<path d="M265.328 174.874C265.328 173.468 265.328 168.844 265.328 168.844C265.328 168.844 269.433 168.844 271.358 168.844C272.861 168.844 277.388 168.844 277.388 168.844C277.388 168.844 277.388 173.047 277.388 174.874C277.388 178.204 274.688 180.904 271.358 180.904C268.028 180.904 265.328 178.204 265.328 174.874Z" fill="white"/>
<path d="M349.754 174.874C349.754 173.468 349.754 168.844 349.754 168.844C349.754 168.844 353.859 168.844 355.784 168.844C357.287 168.844 361.814 168.844 361.814 168.844C361.814 168.844 361.814 173.047 361.814 174.874C361.814 178.204 359.114 180.904 355.784 180.904C352.454 180.904 349.754 178.204 349.754 174.874Z" fill="white"/>
<path d="M385.927 174.889C385.927 176.295 385.927 180.919 385.927 180.919C385.927 180.919 381.822 180.919 379.897 180.919C378.394 180.919 373.867 180.919 373.867 180.919C373.867 180.919 373.867 176.717 373.867 174.889C373.867 171.559 376.567 168.859 379.897 168.859C383.227 168.859 385.927 171.559 385.927 174.889Z" fill="white"/>
<path d="M36.1953 186.928C36.1953 185.523 36.1953 180.898 36.1953 180.898C36.1953 180.898 40.3006 180.898 42.2254 180.898C43.7285 180.898 48.2554 180.898 48.2554 180.898C48.2554 180.898 48.2554 185.102 48.2554 186.928C48.2554 190.259 45.5554 192.959 42.2254 192.959C38.8951 192.959 36.1953 190.259 36.1953 186.928Z" fill="white"/>
<path d="M72.3648 186.928C72.3648 188.334 72.3648 192.959 72.3648 192.959C72.3648 192.959 68.2598 192.959 66.3347 192.958C64.8316 192.959 60.3047 192.958 60.3047 192.958C60.3047 192.958 60.3047 188.756 60.3047 186.928C60.3049 183.598 63.0045 180.898 66.3345 180.898C69.6648 180.898 72.3648 183.598 72.3648 186.928Z" fill="white"/>
<path d="M90.4519 180.91C93.7824 180.91 96.482 183.61 96.482 186.94C96.482 190.271 93.7824 192.97 90.4519 192.97C87.1216 192.97 84.4219 190.271 84.4219 186.94C84.4219 183.61 87.1216 180.91 90.4519 180.91Z" fill="white"/>
<path d="M120.615 186.928C120.615 188.334 120.615 192.959 120.615 192.959C120.615 192.959 116.51 192.959 114.585 192.958C113.082 192.959 108.555 192.958 108.555 192.958C108.555 192.958 108.555 188.756 108.555 186.928C108.555 183.598 111.254 180.898 114.584 180.898C117.915 180.898 120.615 183.598 120.615 186.928Z" fill="white"/>
<path d="M295.483 180.91C296.889 180.91 301.513 180.91 301.513 180.91C301.513 180.91 301.513 185.015 301.513 186.94C301.513 188.443 301.513 192.97 301.513 192.97C301.513 192.97 297.311 192.97 295.483 192.97C292.152 192.97 289.453 190.269 289.453 186.94C289.453 183.611 292.152 180.91 295.483 180.91Z" fill="white"/>
<path d="M313.572 180.91H301.512V192.97H313.572V180.91Z" fill="white"/>
<path d="M319.596 192.959C318.191 192.959 313.566 192.959 313.566 192.959C313.566 192.959 313.566 188.853 313.566 186.928C313.566 185.425 313.566 180.898 313.566 180.898C313.566 180.898 317.77 180.898 319.596 180.898C322.926 180.898 325.626 183.598 325.626 186.928C325.626 190.259 322.926 192.959 319.596 192.959Z" fill="white"/>
<path d="M349.755 186.94C349.755 188.346 349.755 192.97 349.755 192.97C349.755 192.97 345.65 192.97 343.725 192.97C342.222 192.97 337.695 192.97 337.695 192.97C337.695 192.97 337.695 188.767 337.695 186.94C337.696 183.61 340.395 180.91 343.725 180.91C347.055 180.91 349.755 183.61 349.755 186.94Z" fill="white"/>
<path d="M361.809 192.966H373.869V180.906C367.208 180.906 361.809 186.306 361.809 192.966Z" fill="white"/>
<path d="M385.935 180.906H373.875V192.966C380.536 192.966 385.935 187.567 385.935 180.906Z" fill="white"/>
<path d="M24.1343 199.003C24.1343 200.408 24.1343 205.033 24.1343 205.033C24.1343 205.033 20.0293 205.033 18.1043 205.032C16.6011 205.033 12.0742 205.032 12.0742 205.032C12.0742 205.032 12.0742 200.83 12.0742 199.003C12.0745 195.672 14.774 192.973 18.104 192.973C21.4343 192.973 24.1343 195.672 24.1343 199.003Z" fill="white"/>
<path d="M72.3687 192.973H60.3086V205.033H72.3687V192.973Z" fill="white"/>
<path d="M78.3972 205.025C76.9917 205.025 72.3672 205.025 72.3672 205.025C72.3672 205.025 72.3672 200.919 72.3672 198.995C72.3672 197.492 72.3672 192.965 72.3672 192.965C72.3672 192.965 76.5704 192.965 78.3972 192.965C81.7273 192.965 84.4273 195.665 84.4273 198.995C84.4273 202.325 81.7273 205.025 78.3972 205.025Z" fill="white"/>
<path d="M96.4922 205.021H108.552V192.961C101.892 192.961 96.4922 198.36 96.4922 205.021Z" fill="white"/>
<path d="M120.603 192.973H108.543V205.033H120.603V192.973Z" fill="white"/>
<path d="M126.624 205.029C125.218 205.029 120.594 205.029 120.594 205.029C120.594 205.029 120.594 200.923 120.594 198.999C120.594 197.496 120.594 192.969 120.594 192.969C120.594 192.969 124.797 192.969 126.624 192.969C129.954 192.969 132.654 195.669 132.654 198.999C132.654 202.329 129.954 205.029 126.624 205.029Z" fill="white"/>
<path d="M313.572 192.961H301.512V205.021H313.572V192.961Z" fill="white"/>
<path d="M325.625 205.029H337.685V192.969C331.025 192.969 325.625 198.368 325.625 205.029Z" fill="white"/>
<path d="M349.748 192.961H337.688V205.021C344.348 205.021 349.748 199.621 349.748 192.961Z" fill="white"/>
<path d="M361.812 198.999C361.812 197.593 361.812 192.969 361.812 192.969C361.812 192.969 365.918 192.969 367.843 192.969C369.346 192.969 373.873 192.969 373.873 192.969C373.873 192.969 373.873 197.172 373.873 198.999C373.873 202.329 371.173 205.029 367.843 205.029C364.512 205.029 361.812 202.329 361.812 198.999Z" fill="white"/>
<path d="M397.994 199.003C397.994 200.408 397.994 205.033 397.994 205.033C397.994 205.033 393.889 205.033 391.964 205.032C390.46 205.033 385.934 205.032 385.934 205.032C385.934 205.032 385.934 200.83 385.934 199.003C385.934 195.672 388.633 192.973 391.963 192.973C395.294 192.973 397.994 195.672 397.994 199.003Z" fill="white"/>
<path d="M0.0195312 217.095H12.0796V205.035C5.41907 205.035 0.0195312 210.434 0.0195312 217.095Z" fill="white"/>
<path d="M24.1343 205.031H12.0742V217.091H24.1343V205.031Z" fill="white"/>
<path d="M24.1289 205.027V217.087H36.189C36.189 210.427 30.7894 205.027 24.1289 205.027Z" fill="white"/>
<path d="M54.2761 205.031C55.6816 205.031 60.3062 205.031 60.3062 205.031C60.3062 205.031 60.3062 209.136 60.3062 211.061C60.3062 212.564 60.3062 217.091 60.3062 217.091C60.3062 217.091 56.104 217.091 54.2761 217.091C50.9447 217.091 48.2461 214.39 48.2461 211.061C48.2461 207.732 50.9447 205.031 54.2761 205.031Z" fill="white"/>
<path d="M72.3609 205.035H60.3008V217.095C66.9613 217.095 72.3609 211.696 72.3609 205.035Z" fill="white"/>
<path d="M96.4805 211.046C96.4805 209.64 96.4805 205.016 96.4805 205.016C96.4805 205.016 100.586 205.016 102.511 205.016C104.014 205.016 108.541 205.016 108.541 205.016C108.541 205.016 108.541 209.219 108.541 211.046C108.541 214.376 105.841 217.076 102.511 217.076C99.1802 217.076 96.4805 214.376 96.4805 211.046Z" fill="white"/>
<path d="M277.391 217.087H289.451V205.027C282.79 205.027 277.391 210.427 277.391 217.087Z" fill="white"/>
<path d="M301.505 205.016H289.445V217.076H301.505V205.016Z" fill="white"/>
<path d="M313.572 205.031H301.512V217.091H313.572V205.031Z" fill="white"/>
<path d="M325.623 205.031H313.562V217.091H325.623V205.031Z" fill="white"/>
<path d="M337.697 205.035H325.637V217.095C332.297 217.095 337.697 211.696 337.697 205.035Z" fill="white"/>
<path d="M397.99 205.016H385.93V217.076H397.99V205.016Z" fill="white"/>
<path d="M12.0679 217.078H0.0078125L0.0078125 229.138H12.0679V217.078Z" fill="white"/>
<path d="M24.1343 217.09H12.0742V229.15H24.1343V217.09Z" fill="white"/>
<path d="M36.1851 217.09H24.125V229.15H36.1851V217.09Z" fill="white"/>
<path d="M36.1875 217.086V229.146H48.2476C48.2476 222.485 42.848 217.086 36.1875 217.086Z" fill="white"/>
<path d="M78.3972 217.09C81.7277 217.09 84.4273 219.79 84.4273 223.12C84.4273 226.45 81.7277 229.15 78.3972 229.15C75.067 229.15 72.3672 226.45 72.3672 223.12C72.3672 219.79 75.067 217.09 78.3972 217.09Z" fill="white"/>
<path d="M126.636 217.09C129.966 217.09 132.666 219.79 132.666 223.12C132.666 226.45 129.966 229.15 126.636 229.15C123.305 229.15 120.605 226.45 120.605 223.12C120.605 219.79 123.305 217.09 126.636 217.09Z" fill="white"/>
<path d="M289.443 217.09H277.383V229.15H289.443V217.09Z" fill="white"/>
<path d="M349.758 229.146H361.818V217.086C355.157 217.086 349.758 222.485 349.758 229.146Z" fill="white"/>
<path d="M373.869 217.082H361.809V229.142H373.869V217.082Z" fill="white"/>
<path d="M385.931 217.082H373.871V229.142H385.931V217.082Z" fill="white"/>
<path d="M397.962 217.094H385.902V229.154C392.563 229.154 397.962 223.754 397.962 217.094Z" fill="white"/>
<path d="M0.0117188 235.175C0.0117188 233.769 0.0117188 229.145 0.0117188 229.145C0.0117188 229.145 4.11697 229.145 6.04176 229.145C7.54493 229.145 12.0718 229.145 12.0718 229.145C12.0718 229.145 12.0718 233.348 12.0718 235.175C12.0718 238.505 9.37179 241.205 6.04176 241.205C2.71149 241.205 0.0117188 238.505 0.0117188 235.175Z" fill="white"/>
<path d="M48.2359 241.201V229.141H36.1758C36.1758 235.801 41.5751 241.201 48.2359 241.201Z" fill="white"/>
<path d="M54.28 241.209C52.8746 241.209 48.25 241.209 48.25 241.209C48.25 241.209 48.25 237.103 48.25 235.178C48.25 233.675 48.25 229.148 48.25 229.148C48.25 229.148 52.4532 229.148 54.28 229.148C57.6101 229.148 60.3101 231.848 60.3101 235.178C60.3101 238.509 57.6101 241.209 54.28 241.209Z" fill="white"/>
<path d="M84.4141 241.209H96.4741V229.148C89.8136 229.148 84.4141 234.548 84.4141 241.209Z" fill="white"/>
<path d="M108.548 229.156H96.4883V241.216H108.548V229.156Z" fill="white"/>
<path d="M114.581 241.205C113.175 241.205 108.551 241.205 108.551 241.205C108.551 241.205 108.551 237.099 108.551 235.175C108.551 233.671 108.551 229.145 108.551 229.145C108.551 229.145 112.754 229.145 114.581 229.145C117.911 229.145 120.611 231.844 120.611 235.175C120.611 238.505 117.911 241.205 114.581 241.205Z" fill="white"/>
<path d="M265.328 241.216H277.388V229.156C270.728 229.156 265.328 234.556 265.328 241.216Z" fill="white"/>
<path d="M289.443 229.148H277.383V241.209H289.443V229.148Z" fill="white"/>
<path d="M295.471 241.205C294.066 241.205 289.441 241.205 289.441 241.205C289.441 241.205 289.441 237.099 289.441 235.175C289.441 233.671 289.441 229.145 289.441 229.145C289.441 229.145 293.645 229.145 295.471 229.145C298.801 229.145 301.501 231.844 301.501 235.175C301.501 238.505 298.801 241.205 295.471 241.205Z" fill="white"/>
<path d="M313.555 241.201H325.615V229.141C318.954 229.141 313.555 234.54 313.555 241.201Z" fill="white"/>
<path d="M325.613 229.148V241.209H337.673C337.673 234.548 332.274 229.148 325.613 229.148Z" fill="white"/>
<path d="M361.798 229.145H349.738V241.205H361.798V229.145Z" fill="white"/>
<path d="M373.869 229.145H361.809V241.205H373.869V229.145Z" fill="white"/>
<path d="M385.931 229.145H373.871V241.205H385.931V229.145Z" fill="white"/>
<path d="M12.0625 253.275H24.1226V241.215C17.462 241.215 12.0625 246.614 12.0625 253.275Z" fill="white"/>
<path d="M24.1094 241.215V253.275H36.1695C36.1695 246.614 30.7699 241.215 24.1094 241.215Z" fill="white"/>
<path d="M60.3125 253.259H72.3726V241.199C65.712 241.199 60.3125 246.599 60.3125 253.259Z" fill="white"/>
<path d="M84.4351 241.207H72.375V253.267H84.4351V241.207Z" fill="white"/>
<path d="M96.482 241.207H84.4219V253.267H96.482V241.207Z" fill="white"/>
<path d="M108.548 241.219H96.4883V253.279C103.149 253.279 108.548 247.879 108.548 241.219Z" fill="white"/>
<path d="M132.666 247.237C132.666 248.643 132.666 253.267 132.666 253.267C132.666 253.267 128.561 253.267 126.636 253.267C125.132 253.267 120.605 253.267 120.605 253.267C120.605 253.267 120.605 249.064 120.605 247.237C120.606 243.907 123.305 241.207 126.635 241.207C129.966 241.207 132.666 243.907 132.666 247.237Z" fill="white"/>
<path d="M277.384 241.207H265.324V253.267H277.384V241.207Z" fill="white"/>
<path d="M307.542 241.203C308.947 241.203 313.572 241.203 313.572 241.203C313.572 241.203 313.572 245.308 313.572 247.233C313.572 248.736 313.572 253.263 313.572 253.263C313.572 253.263 309.37 253.263 307.542 253.263C304.21 253.263 301.512 250.562 301.512 247.233C301.512 243.904 304.21 241.203 307.542 241.203Z" fill="white"/>
<path d="M325.626 241.207H313.566V253.267H325.626V241.207Z" fill="white"/>
<path d="M337.697 241.207H325.637V253.267H337.697V241.207Z" fill="white"/>
<path d="M349.751 241.203H337.691V253.263H349.751V241.203Z" fill="white"/>
<path d="M361.802 241.199H349.742V253.259C356.403 253.259 361.802 247.86 361.802 241.199Z" fill="white"/>
<path d="M385.931 241.207H373.871V253.267H385.931V241.207Z" fill="white"/>
<path d="M391.964 253.267C390.558 253.267 385.934 253.267 385.934 253.267C385.934 253.267 385.934 249.162 385.934 247.237C385.934 245.734 385.934 241.207 385.934 241.207C385.934 241.207 390.137 241.207 391.964 241.207C395.294 241.207 397.994 243.907 397.994 247.237C397.994 250.567 395.294 253.267 391.964 253.267Z" fill="white"/>
<path d="M0.0078125 265.334H12.0679V253.273C5.40735 253.273 0.0078125 258.673 0.0078125 265.334Z" fill="white"/>
<path d="M24.1304 253.262H12.0703V265.322H24.1304V253.262Z" fill="white"/>
<path d="M36.1773 253.266H24.1172V265.326H36.1773V253.266Z" fill="white"/>
<path d="M42.2214 265.334C40.816 265.334 36.1914 265.334 36.1914 265.334C36.1914 265.334 36.1914 261.228 36.1914 259.303C36.1914 257.8 36.1914 253.273 36.1914 253.273C36.1914 253.273 40.3946 253.273 42.2214 253.273C45.5515 253.273 48.2515 255.973 48.2515 259.303C48.2515 262.634 45.5515 265.334 42.2214 265.334Z" fill="white"/>
<path d="M60.3086 259.292C60.3086 257.886 60.3086 253.262 60.3086 253.262C60.3086 253.262 64.4138 253.262 66.3386 253.262C67.8418 253.262 72.3687 253.262 72.3687 253.262C72.3687 253.262 72.3687 257.465 72.3687 259.292C72.3687 262.622 69.6687 265.322 66.3386 265.322C63.0084 265.322 60.3086 262.622 60.3086 259.292Z" fill="white"/>
<path d="M120.594 259.296C120.594 257.89 120.594 253.266 120.594 253.266C120.594 253.266 124.699 253.266 126.624 253.266C128.127 253.266 132.654 253.266 132.654 253.266C132.654 253.266 132.654 257.469 132.654 259.296C132.654 262.626 129.954 265.326 126.624 265.326C123.294 265.326 120.594 262.626 120.594 259.296Z" fill="white"/>
<path d="M277.388 253.273H265.328V265.334H277.388V253.273Z" fill="white"/>
<path d="M295.483 253.273C298.814 253.273 301.513 255.973 301.513 259.303C301.513 262.634 298.814 265.334 295.483 265.334C292.153 265.334 289.453 262.634 289.453 259.303C289.453 255.973 292.153 253.273 295.483 253.273Z" fill="white"/>
<path d="M313.562 259.292C313.562 257.886 313.562 253.262 313.562 253.262C313.562 253.262 317.668 253.262 319.593 253.262C321.096 253.262 325.623 253.262 325.623 253.262C325.623 253.262 325.623 257.465 325.623 259.292C325.623 262.622 322.923 265.322 319.593 265.322C316.262 265.322 313.562 262.622 313.562 259.292Z" fill="white"/>
<path d="M337.684 259.296C337.684 257.89 337.684 253.266 337.684 253.266C337.684 253.266 341.789 253.266 343.714 253.266C345.217 253.266 349.744 253.266 349.744 253.266C349.744 253.266 349.744 257.469 349.744 259.296C349.744 262.626 347.044 265.326 343.714 265.326C340.383 265.326 337.684 262.626 337.684 259.296Z" fill="white"/>
<path d="M361.809 265.294H373.869V253.234C367.208 253.234 361.809 258.634 361.809 265.294Z" fill="white"/>
<path d="M385.935 253.266H373.875V265.326H385.935V253.266Z" fill="white"/>
<path d="M12.0718 265.32H0.0117188L0.0117187 277.38H12.0718V265.32Z" fill="white"/>
<path d="M24.1289 271.354C24.1289 269.949 24.1289 265.324 24.1289 265.324C24.1289 265.324 28.2342 265.324 30.1589 265.324C31.6621 265.324 36.189 265.324 36.189 265.324C36.189 265.324 36.189 269.527 36.189 271.354C36.189 274.684 33.489 277.384 30.1589 277.384C26.8287 277.384 24.1289 274.684 24.1289 271.354Z" fill="white"/>
<path d="M78.3972 265.324C81.7277 265.324 84.4273 268.024 84.4273 271.354C84.4273 274.685 81.7277 277.384 78.3972 277.384C75.067 277.384 72.3672 274.685 72.3672 271.354C72.3672 268.024 75.067 265.324 78.3972 265.324Z" fill="white"/>
<path d="M138.694 265.328C142.025 265.328 144.724 268.028 144.724 271.358C144.724 274.689 142.025 277.388 138.694 277.388C135.364 277.388 132.664 274.689 132.664 271.358C132.664 268.028 135.364 265.328 138.694 265.328Z" fill="white"/>
<path d="M180.93 277.369H192.99V265.309C186.329 265.309 180.93 270.708 180.93 277.369Z" fill="white"/>
<path d="M199.003 277.396C197.597 277.396 192.973 277.396 192.973 277.396C192.973 277.396 192.973 273.291 192.973 271.366C192.973 269.863 192.973 265.336 192.973 265.336C192.973 265.336 197.176 265.336 199.003 265.336C202.333 265.336 205.033 268.036 205.033 271.366C205.033 274.696 202.333 277.396 199.003 277.396Z" fill="white"/>
<path d="M223.116 265.324C226.446 265.324 229.146 268.024 229.146 271.354C229.146 274.685 226.446 277.384 223.116 277.384C219.786 277.384 217.086 274.685 217.086 271.354C217.086 268.024 219.786 265.324 223.116 265.324Z" fill="white"/>
<path d="M277.388 265.336H265.328V277.396H277.388V265.336Z" fill="white"/>
<path d="M331.667 265.32C334.997 265.32 337.697 268.02 337.697 271.35C337.697 274.681 334.997 277.38 331.667 277.38C328.336 277.38 325.637 274.681 325.637 271.35C325.637 268.02 328.336 265.32 331.667 265.32Z" fill="white"/>
<path d="M373.873 265.32H361.812V277.38H373.873V265.32Z" fill="white"/>
<path d="M385.931 265.34H373.871V277.4H385.931V265.34Z" fill="white"/>
<path d="M12.0679 277.387H0.0078125L0.0078125 289.447H12.0679V277.387Z" fill="white"/>
<path d="M42.2097 277.387C45.5402 277.387 48.2398 280.086 48.2398 283.417C48.2398 286.747 45.5402 289.447 42.2097 289.447C38.8795 289.447 36.1797 286.747 36.1797 283.417C36.1797 280.086 38.8795 277.387 42.2097 277.387Z" fill="white"/>
<path d="M72.3687 283.413C72.3687 284.818 72.3687 289.443 72.3687 289.443C72.3687 289.443 68.2637 289.443 66.3386 289.443C64.8355 289.443 60.3086 289.443 60.3086 289.443C60.3086 289.443 60.3086 285.24 60.3086 283.413C60.3088 280.083 63.0084 277.383 66.3384 277.383C69.6687 277.383 72.3687 280.083 72.3687 283.413Z" fill="white"/>
<path d="M96.482 283.413C96.482 284.818 96.482 289.443 96.482 289.443C96.482 289.443 92.3769 289.443 90.4519 289.443C88.9487 289.443 84.4219 289.443 84.4219 289.443C84.4219 289.443 84.4219 285.24 84.4219 283.413C84.4221 280.083 87.1216 277.383 90.4517 277.383C93.7819 277.383 96.482 280.083 96.482 283.413Z" fill="white"/>
<path d="M114.585 277.387C115.99 277.387 120.615 277.387 120.615 277.387C120.615 277.387 120.615 281.491 120.615 283.417C120.615 284.919 120.615 289.447 120.615 289.447C120.615 289.447 116.413 289.447 114.585 289.447C111.253 289.447 108.555 286.746 108.555 283.417C108.555 280.087 111.253 277.387 114.585 277.387Z" fill="white"/>
<path d="M120.59 277.406V289.466H132.65C132.65 282.806 127.25 277.406 120.59 277.406Z" fill="white"/>
<path d="M168.848 289.447H180.908V277.387C174.247 277.387 168.848 282.786 168.848 289.447Z" fill="white"/>
<path d="M192.955 277.379H180.895V289.439C187.555 289.439 192.955 284.039 192.955 277.379Z" fill="white"/>
<path d="M265.328 283.417C265.328 282.011 265.328 277.387 265.328 277.387C265.328 277.387 269.433 277.387 271.358 277.387C272.861 277.387 277.388 277.387 277.388 277.387C277.388 277.387 277.388 281.59 277.388 283.417C277.388 286.747 274.688 289.447 271.358 289.447C268.028 289.447 265.328 286.747 265.328 283.417Z" fill="white"/>
<path d="M301.513 283.409C301.513 284.814 301.513 289.439 301.513 289.439C301.513 289.439 297.408 289.439 295.483 289.439C293.98 289.439 289.453 289.439 289.453 289.439C289.453 289.439 289.453 285.236 289.453 283.409C289.453 280.079 292.153 277.379 295.483 277.379C298.813 277.379 301.513 280.079 301.513 283.409Z" fill="white"/>
<path d="M355.78 277.379C357.186 277.379 361.81 277.379 361.81 277.379C361.81 277.379 361.81 281.484 361.81 283.409C361.81 284.912 361.81 289.439 361.81 289.439C361.81 289.439 357.608 289.439 355.78 289.439C352.449 289.439 349.75 286.738 349.75 283.409C349.75 280.079 352.449 277.379 355.78 277.379Z" fill="white"/>
<path d="M373.869 277.383H361.809V289.443H373.869V277.383Z" fill="white"/>
<path d="M385.931 277.395H373.871V289.455H385.931V277.395Z" fill="white"/>
<path d="M12.0796 301.501V289.441H0.0195312C0.0195312 296.102 5.41883 301.501 12.0796 301.501Z" fill="white"/>
<path d="M18.0925 301.513C16.6871 301.513 12.0625 301.513 12.0625 301.513C12.0625 301.513 12.0625 297.408 12.0625 295.483C12.0625 293.98 12.0625 289.453 12.0625 289.453C12.0625 289.453 16.2657 289.453 18.0925 289.453C21.4226 289.453 24.1226 292.153 24.1226 295.483C24.1226 298.813 21.4226 301.513 18.0925 301.513Z" fill="white"/>
<path d="M72.3531 301.509V289.449H60.293C60.293 296.11 65.6923 301.509 72.3531 301.509Z" fill="white"/>
<path d="M84.4273 289.453H72.3672V301.513H84.4273V289.453Z" fill="white"/>
<path d="M96.482 289.441H84.4219V301.501H96.482V289.441Z" fill="white"/>
<path d="M96.4922 289.445V301.505H108.552C108.552 294.845 103.153 289.445 96.4922 289.445Z" fill="white"/>
<path d="M132.669 301.509V289.449H120.609C120.609 296.11 126.009 301.509 132.669 301.509Z" fill="white"/>
<path d="M138.702 301.513C137.296 301.513 132.672 301.513 132.672 301.513C132.672 301.513 132.672 297.408 132.672 295.483C132.672 293.98 132.672 289.453 132.672 289.453C132.672 289.453 136.875 289.453 138.702 289.453C142.032 289.453 144.732 292.153 144.732 295.483C144.732 298.813 142.032 301.513 138.702 301.513Z" fill="white"/>
<path d="M168.844 295.483C168.844 294.078 168.844 289.453 168.844 289.453C168.844 289.453 172.949 289.453 174.874 289.453C176.377 289.453 180.904 289.453 180.904 289.453C180.904 289.453 180.904 293.656 180.904 295.483C180.904 298.813 178.204 301.513 174.874 301.513C171.544 301.513 168.844 298.813 168.844 295.483Z" fill="white"/>
<path d="M223.12 289.441C226.45 289.441 229.15 292.141 229.15 295.471C229.15 298.802 226.45 301.501 223.12 301.501C219.79 301.501 217.09 298.802 217.09 295.471C217.09 292.141 219.79 289.441 223.12 289.441Z" fill="white"/>
<path d="M253.267 295.471C253.267 296.877 253.267 301.501 253.267 301.501C253.267 301.501 249.162 301.501 247.237 301.501C245.734 301.501 241.207 301.501 241.207 301.501C241.207 301.501 241.207 297.299 241.207 295.471C241.207 292.141 243.907 289.441 247.237 289.441C250.567 289.441 253.267 292.141 253.267 295.471Z" fill="white"/>
<path d="M283.425 289.445C284.83 289.445 289.455 289.445 289.455 289.445C289.455 289.445 289.455 293.55 289.455 295.475C289.455 296.978 289.455 301.505 289.455 301.505C289.455 301.505 285.252 301.505 283.425 301.505C280.093 301.505 277.395 298.804 277.395 295.475C277.395 292.146 280.093 289.445 283.425 289.445Z" fill="white"/>
<path d="M301.513 289.445H289.453V301.505H301.513V289.445Z" fill="white"/>
<path d="M313.572 289.445H301.512V301.505H313.572V289.445Z" fill="white"/>
<path d="M325.626 289.445H313.566V301.505H325.626V289.445Z" fill="white"/>
<path d="M337.685 289.445H325.625V301.505H337.685V289.445Z" fill="white"/>
<path d="M337.703 289.449V301.509H349.763C349.763 294.849 344.364 289.449 337.703 289.449Z" fill="white"/>
<path d="M373.875 295.483C373.875 294.078 373.875 289.453 373.875 289.453C373.875 289.453 377.98 289.453 379.905 289.453C381.408 289.453 385.935 289.453 385.935 289.453C385.935 289.453 385.935 293.656 385.935 295.483C385.935 298.813 383.235 301.513 379.905 301.513C376.575 301.513 373.875 298.813 373.875 295.483Z" fill="white"/>
<path d="M96.4844 307.553C96.4844 306.148 96.4844 301.523 96.4844 301.523C96.4844 301.523 100.59 301.523 102.514 301.523C104.018 301.523 108.544 301.523 108.544 301.523C108.544 301.523 108.544 305.727 108.544 307.553C108.544 310.884 105.844 313.584 102.514 313.584C99.1841 313.584 96.4844 310.884 96.4844 307.553Z" fill="white"/>
<path d="M150.764 301.523C154.095 301.523 156.794 304.223 156.794 307.553C156.794 310.884 154.095 313.584 150.764 313.584C147.434 313.584 144.734 310.884 144.734 307.553C144.734 304.223 147.434 301.523 150.764 301.523Z" fill="white"/>
<path d="M186.928 301.512C188.334 301.512 192.959 301.512 192.959 301.512C192.959 301.512 192.959 305.616 192.959 307.542C192.959 309.044 192.959 313.572 192.959 313.572C192.959 313.572 188.756 313.572 186.928 313.572C183.597 313.572 180.898 310.871 180.898 307.542C180.898 304.212 183.597 301.512 186.928 301.512Z" fill="white"/>
<path d="M205.029 301.523H192.969V313.584H205.029V301.523Z" fill="white"/>
<path d="M211.061 313.572C209.656 313.572 205.031 313.572 205.031 313.572C205.031 313.572 205.031 309.466 205.031 307.542C205.031 306.039 205.031 301.512 205.031 301.512C205.031 301.512 209.234 301.512 211.061 301.512C214.391 301.512 217.091 304.211 217.091 307.542C217.091 310.872 214.391 313.572 211.061 313.572Z" fill="white"/>
<path d="M253.267 313.591V301.531H241.207C241.207 308.192 246.606 313.591 253.267 313.591Z" fill="white"/>
<path d="M259.296 313.572C257.89 313.572 253.266 313.572 253.266 313.572C253.266 313.572 253.266 309.466 253.266 307.542C253.266 306.039 253.266 301.512 253.266 301.512C253.266 301.512 257.469 301.512 259.296 301.512C262.626 301.512 265.326 304.211 265.326 307.542C265.326 310.872 262.626 313.572 259.296 313.572Z" fill="white"/>
<path d="M301.513 301.512H289.453V313.572H301.513V301.512Z" fill="white"/>
<path d="M349.755 301.512H337.695V313.572H349.755V301.512Z" fill="white"/>
<path d="M391.964 301.512C395.294 301.512 397.994 304.211 397.994 307.542C397.994 310.872 395.294 313.572 391.964 313.572C388.633 313.572 385.934 310.872 385.934 307.542C385.934 304.211 388.633 301.512 391.964 301.512Z" fill="white"/>
<path d="M114.577 313.559C115.982 313.559 120.607 313.559 120.607 313.559C120.607 313.559 120.607 317.663 120.607 319.589C120.607 321.091 120.607 325.619 120.607 325.619C120.607 325.619 116.405 325.619 114.577 325.619C111.245 325.619 108.547 322.918 108.547 319.589C108.547 316.259 111.245 313.559 114.577 313.559Z" fill="white"/>
<path d="M132.666 313.566H120.605V325.626H132.666V313.566Z" fill="white"/>
<path d="M138.702 325.619C137.296 325.619 132.672 325.619 132.672 325.619C132.672 325.619 132.672 321.513 132.672 319.589C132.672 318.085 132.672 313.559 132.672 313.559C132.672 313.559 136.875 313.559 138.702 313.559C142.032 313.559 144.732 316.258 144.732 319.589C144.732 322.919 142.032 325.619 138.702 325.619Z" fill="white"/>
<path d="M229.138 319.596C229.138 321.002 229.138 325.626 229.138 325.626C229.138 325.626 225.033 325.626 223.108 325.626C221.605 325.626 217.078 325.626 217.078 325.626C217.078 325.626 217.078 321.424 217.078 319.596C217.078 316.266 219.778 313.566 223.108 313.566C226.438 313.566 229.138 316.266 229.138 319.596Z" fill="white"/>
<path d="M265.336 325.619H277.396V313.559C270.735 313.559 265.336 318.958 265.336 325.619Z" fill="white"/>
<path d="M289.447 313.566H277.387V325.626H289.447V313.566Z" fill="white"/>
<path d="M301.505 313.559H289.445V325.619H301.505V313.559Z" fill="white"/>
<path d="M319.596 313.566C322.927 313.566 325.626 316.266 325.626 319.596C325.626 322.927 322.927 325.626 319.596 325.626C316.266 325.626 313.566 322.927 313.566 319.596C313.566 316.266 316.266 313.566 319.596 313.566Z" fill="white"/>
<path d="M349.748 313.559H337.688V325.619H349.748V313.559Z" fill="white"/>
<path d="M361.816 325.611H373.876V313.551C367.216 313.551 361.816 318.95 361.816 325.611Z" fill="white"/>
<path d="M373.875 313.566V325.626H385.935C385.935 318.966 380.536 313.566 373.875 313.566Z" fill="white"/>
<path d="M102.518 325.625C105.849 325.625 108.548 328.325 108.548 331.655C108.548 334.986 105.849 337.685 102.518 337.685C99.1881 337.685 96.4883 334.986 96.4883 331.655C96.4883 328.325 99.1881 325.625 102.518 325.625Z" fill="white"/>
<path d="M156.797 337.685H168.857V325.625C162.196 325.625 156.797 331.024 156.797 337.685Z" fill="white"/>
<path d="M180.919 325.625H168.859V337.685H180.919V325.625Z" fill="white"/>
<path d="M180.902 325.629V337.689H192.962C192.962 331.028 187.563 325.629 180.902 325.629Z" fill="white"/>
<path d="M205.027 337.693H217.087V325.633C210.427 325.633 205.027 331.032 205.027 337.693Z" fill="white"/>
<path d="M229.154 325.625H217.094V337.685C223.754 337.685 229.154 332.286 229.154 325.625Z" fill="white"/>
<path d="M247.237 325.637C248.643 325.637 253.267 325.637 253.267 325.637C253.267 325.637 253.267 329.741 253.267 331.667C253.267 333.169 253.267 337.697 253.267 337.697C253.267 337.697 249.065 337.697 247.237 337.697C243.906 337.697 241.207 334.996 241.207 331.667C241.207 328.337 243.906 325.637 247.237 325.637Z" fill="white"/>
<path d="M265.334 325.625H253.273V337.685H265.334V325.625Z" fill="white"/>
<path d="M277.384 325.637H265.324V337.697H277.384V325.637Z" fill="white"/>
<path d="M301.513 325.637H289.453V337.697H301.513V325.637Z" fill="white"/>
<path d="M349.755 325.637H337.695V337.697H349.755V325.637Z" fill="white"/>
<path d="M361.814 325.637H349.754V337.697H361.814V325.637Z" fill="white"/>
<path d="M373.869 325.637H361.809V337.697H373.869V325.637Z" fill="white"/>
<path d="M385.931 325.625H373.871V337.685H385.931V325.625Z" fill="white"/>
<path d="M108.562 349.755H120.623V337.695C113.962 337.695 108.562 343.095 108.562 349.755Z" fill="white"/>
<path d="M120.609 337.703V349.763H132.669C132.669 343.102 127.27 337.703 120.609 337.703Z" fill="white"/>
<path d="M150.761 337.688C152.166 337.688 156.791 337.688 156.791 337.688C156.791 337.688 156.791 341.792 156.791 343.718C156.791 345.22 156.791 349.748 156.791 349.748C156.791 349.748 152.588 349.748 150.761 349.748C147.429 349.748 144.73 347.047 144.73 343.718C144.73 340.388 147.429 337.688 150.761 337.688Z" fill="white"/>
<path d="M168.853 337.699H156.793V349.759H168.853V337.699Z" fill="white"/>
<path d="M180.912 337.695H168.852V349.755H180.912V337.695Z" fill="white"/>
<path d="M192.986 337.684H180.926V349.744C187.586 349.744 192.986 344.344 192.986 337.684Z" fill="white"/>
<path d="M205.035 343.725C205.035 342.32 205.035 337.695 205.035 337.695C205.035 337.695 209.14 337.695 211.065 337.695C212.568 337.695 217.095 337.695 217.095 337.695C217.095 337.695 217.095 341.898 217.095 343.725C217.095 347.055 214.395 349.755 211.065 349.755C207.735 349.755 205.035 347.055 205.035 343.725Z" fill="white"/>
<path d="M241.205 343.729C241.205 345.135 241.205 349.759 241.205 349.759C241.205 349.759 237.1 349.759 235.175 349.759C233.671 349.759 229.145 349.759 229.145 349.759C229.145 349.759 229.145 345.556 229.145 343.729C229.145 340.399 231.844 337.699 235.174 337.699C238.505 337.699 241.205 340.399 241.205 343.729Z" fill="white"/>
<path d="M265.322 337.691H253.262V349.751H265.322V337.691Z" fill="white"/>
<path d="M277.392 337.695H265.332V349.755C271.993 349.755 277.392 344.356 277.392 337.695Z" fill="white"/>
<path d="M301.517 337.688H289.457V349.748H301.517V337.688Z" fill="white"/>
<path d="M313.572 337.695H301.512V349.755H313.572V337.695Z" fill="white"/>
<path d="M325.626 337.684H313.566V349.744H325.626V337.684Z" fill="white"/>
<path d="M337.685 337.699H325.625V349.759H337.685V337.699Z" fill="white"/>
<path d="M349.755 337.699H337.695V349.759H349.755V337.699Z" fill="white"/>
<path d="M361.81 337.695H349.75V349.755H361.81V337.695Z" fill="white"/>
<path d="M385.931 337.699H373.871V349.759H385.931V337.699Z" fill="white"/>
<path d="M391.964 349.744C390.558 349.744 385.934 349.744 385.934 349.744C385.934 349.744 385.934 345.638 385.934 343.714C385.934 342.21 385.934 337.684 385.934 337.684C385.934 337.684 390.137 337.684 391.964 337.684C395.294 337.684 397.994 340.383 397.994 343.714C397.994 347.044 395.294 349.744 391.964 349.744Z" fill="white"/>
<path d="M120.607 361.83V349.77H108.547C108.547 356.43 113.946 361.83 120.607 361.83Z" fill="white"/>
<path d="M132.669 349.754H120.609V361.814H132.669V349.754Z" fill="white"/>
<path d="M199.003 349.738C202.333 349.738 205.033 352.438 205.033 355.768C205.033 359.099 202.333 361.798 199.003 361.798C195.672 361.798 192.973 359.099 192.973 355.768C192.973 352.438 195.672 349.738 199.003 349.738Z" fill="white"/>
<path d="M241.205 349.754H229.145V361.814H241.205V349.754Z" fill="white"/>
<path d="M253.262 355.768C253.262 354.363 253.262 349.738 253.262 349.738C253.262 349.738 257.367 349.738 259.292 349.738C260.795 349.738 265.322 349.738 265.322 349.738C265.322 349.738 265.322 353.941 265.322 355.768C265.322 359.098 262.622 361.798 259.292 361.798C255.961 361.798 253.262 359.098 253.262 355.768Z" fill="white"/>
<path d="M277.379 361.83H289.439V349.77C282.778 349.77 277.379 355.169 277.379 361.83Z" fill="white"/>
<path d="M301.513 349.754H289.453V361.814H301.513V349.754Z" fill="white"/>
<path d="M313.584 349.758H301.523V361.818C308.184 361.818 313.584 356.418 313.584 349.758Z" fill="white"/>
<path d="M337.685 361.81V349.75H325.625C325.625 356.411 331.024 361.81 337.685 361.81Z" fill="white"/>
<path d="M349.748 349.746H337.688V361.806H349.748V349.746Z" fill="white"/>
<path d="M361.798 349.766H349.738V361.826H361.798V349.766Z" fill="white"/>
<path d="M385.931 349.75H373.871V361.81H385.931V349.75Z" fill="white"/>
<path d="M132.658 373.865V361.805H120.598C120.598 368.465 125.997 373.865 132.658 373.865Z" fill="white"/>
<path d="M132.648 361.805V373.865H144.709C144.709 367.204 139.309 361.805 132.648 361.805Z" fill="white"/>
<path d="M174.889 361.809C178.22 361.809 180.919 364.508 180.919 367.839C180.919 371.169 178.22 373.869 174.889 373.869C171.559 373.869 168.859 371.169 168.859 367.839C168.859 364.508 171.559 361.809 174.889 361.809Z" fill="white"/>
<path d="M217.095 367.839C217.095 369.244 217.095 373.869 217.095 373.869C217.095 373.869 212.99 373.869 211.065 373.868C209.562 373.869 205.035 373.868 205.035 373.868C205.035 373.868 205.035 369.666 205.035 367.839C205.035 364.508 207.735 361.809 211.065 361.809C214.395 361.809 217.095 364.508 217.095 367.839Z" fill="white"/>
<path d="M229.145 367.839C229.145 366.433 229.145 361.809 229.145 361.809C229.145 361.809 233.25 361.809 235.175 361.809C236.678 361.809 241.205 361.809 241.205 361.809C241.205 361.809 241.205 366.012 241.205 367.839C241.205 371.169 238.505 373.869 235.175 373.869C231.844 373.869 229.145 371.169 229.145 367.839Z" fill="white"/>
<path d="M277.395 367.839C277.395 366.433 277.395 361.809 277.395 361.809C277.395 361.809 281.5 361.809 283.425 361.809C284.928 361.809 289.455 361.809 289.455 361.809C289.455 361.809 289.455 366.012 289.455 367.839C289.455 371.169 286.755 373.869 283.425 373.869C280.094 373.869 277.395 371.169 277.395 367.839Z" fill="white"/>
<path d="M349.744 373.869V361.809H337.684C337.684 368.469 343.083 373.869 349.744 373.869Z" fill="white"/>
<path d="M361.814 361.809H349.754V373.869H361.814V361.809Z" fill="white"/>
<path d="M385.935 373.865V361.805H373.875C373.875 368.465 379.274 373.865 385.935 373.865Z" fill="white"/>
<path d="M391.956 373.869C390.55 373.869 385.926 373.869 385.926 373.869C385.926 373.869 385.926 369.763 385.926 367.839C385.926 366.335 385.926 361.809 385.926 361.809C385.926 361.809 390.129 361.809 391.956 361.809C395.286 361.809 397.986 364.508 397.986 367.839C397.986 371.169 395.286 373.869 391.956 373.869Z" fill="white"/>
<path d="M120.603 379.901C120.603 381.307 120.603 385.931 120.603 385.931C120.603 385.931 116.498 385.931 114.573 385.931C113.07 385.931 108.543 385.931 108.543 385.931C108.543 385.931 108.543 381.728 108.543 379.901C108.543 376.571 111.243 373.871 114.573 373.871C117.903 373.871 120.603 376.571 120.603 379.901Z" fill="white"/>
<path d="M144.724 373.871H132.664V385.931H144.724V373.871Z" fill="white"/>
<path d="M186.94 373.867C188.346 373.867 192.97 373.867 192.97 373.867C192.97 373.867 192.97 377.972 192.97 379.897C192.97 381.4 192.97 385.927 192.97 385.927C192.97 385.927 188.768 385.927 186.94 385.927C183.609 385.927 180.91 383.226 180.91 379.897C180.91 376.568 183.609 373.867 186.94 373.867Z" fill="white"/>
<path d="M205.033 373.871H192.973V385.931H205.033V373.871Z" fill="white"/>
<path d="M217.095 373.871H205.035V385.931H217.095V373.871Z" fill="white"/>
<path d="M223.112 385.931C221.707 385.931 217.082 385.931 217.082 385.931C217.082 385.931 217.082 381.826 217.082 379.901C217.082 378.398 217.082 373.871 217.082 373.871C217.082 373.871 221.285 373.871 223.112 373.871C226.442 373.871 229.142 376.571 229.142 379.901C229.142 383.231 226.442 385.931 223.112 385.931Z" fill="white"/>
<path d="M277.384 379.897C277.384 381.303 277.384 385.927 277.384 385.927C277.384 385.927 273.279 385.927 271.354 385.927C269.851 385.927 265.324 385.927 265.324 385.927C265.324 385.927 265.324 381.724 265.324 379.897C265.324 376.567 268.024 373.867 271.354 373.867C274.684 373.867 277.384 376.567 277.384 379.897Z" fill="white"/>
<path d="M349.738 379.901C349.738 378.496 349.738 373.871 349.738 373.871C349.738 373.871 353.844 373.871 355.768 373.871C357.271 373.871 361.798 373.871 361.798 373.871C361.798 373.871 361.798 378.074 361.798 379.901C361.798 383.231 359.098 385.931 355.768 385.931C352.438 385.931 349.738 383.231 349.738 379.901Z" fill="white"/>
<path d="M108.551 391.964C108.551 390.558 108.551 385.934 108.551 385.934C108.551 385.934 112.656 385.934 114.581 385.934C116.084 385.934 120.611 385.934 120.611 385.934C120.611 385.934 120.611 390.137 120.611 391.964C120.611 395.294 117.911 397.994 114.581 397.994C111.251 397.994 108.551 395.294 108.551 391.964Z" fill="white"/>
<path d="M144.748 397.998V385.938H132.688C132.688 392.598 138.087 397.998 144.748 397.998Z" fill="white"/>
<path d="M150.764 397.986C149.359 397.986 144.734 397.986 144.734 397.986C144.734 397.986 144.734 393.88 144.734 391.956C144.734 390.453 144.734 385.926 144.734 385.926C144.734 385.926 148.938 385.926 150.764 385.926C154.094 385.926 156.794 388.626 156.794 391.956C156.794 395.286 154.094 397.986 150.764 397.986Z" fill="white"/>
<path d="M174.889 385.934C178.22 385.934 180.919 388.633 180.919 391.964C180.919 395.294 178.22 397.994 174.889 397.994C171.559 397.994 168.859 395.294 168.859 391.964C168.859 388.633 171.559 385.934 174.889 385.934Z" fill="white"/>
<path d="M192.973 391.96C192.973 390.554 192.973 385.93 192.973 385.93C192.973 385.93 197.078 385.93 199.003 385.93C200.506 385.93 205.033 385.93 205.033 385.93C205.033 385.93 205.033 390.133 205.033 391.96C205.033 395.29 202.333 397.99 199.003 397.99C195.672 397.99 192.973 395.29 192.973 391.96Z" fill="white"/>
<path d="M235.175 385.934C236.58 385.934 241.205 385.934 241.205 385.934C241.205 385.934 241.205 390.038 241.205 391.964C241.205 393.466 241.205 397.994 241.205 397.994C241.205 397.994 237.002 397.994 235.175 397.994C231.843 397.994 229.145 395.293 229.145 391.964C229.145 388.634 231.843 385.934 235.175 385.934Z" fill="white"/>
<path d="M247.237 397.986C245.832 397.986 241.207 397.986 241.207 397.986C241.207 397.986 241.207 393.88 241.207 391.956C241.207 390.453 241.207 385.926 241.207 385.926C241.207 385.926 245.41 385.926 247.237 385.926C250.567 385.926 253.267 388.626 253.267 391.956C253.267 395.286 250.567 397.986 247.237 397.986Z" fill="white"/>
<path d="M277.408 397.962V385.902H265.348C265.348 392.563 270.747 397.962 277.408 397.962Z" fill="white"/>
<path d="M289.447 385.91H277.387V397.97H289.447V385.91Z" fill="white"/>
<path d="M295.471 397.99C294.066 397.99 289.441 397.99 289.441 397.99C289.441 397.99 289.441 393.884 289.441 391.96C289.441 390.457 289.441 385.93 289.441 385.93C289.441 385.93 293.645 385.93 295.471 385.93C298.801 385.93 301.501 388.629 301.501 391.96C301.501 395.29 298.801 397.99 295.471 397.99Z" fill="white"/>
<path d="M367.827 385.93C369.232 385.93 373.857 385.93 373.857 385.93C373.857 385.93 373.857 390.034 373.857 391.96C373.857 393.462 373.857 397.99 373.857 397.99C373.857 397.99 369.655 397.99 367.827 397.99C364.495 397.99 361.797 395.289 361.797 391.96C361.797 388.63 364.495 385.93 367.827 385.93Z" fill="white"/>
<path d="M379.901 397.982C378.496 397.982 373.871 397.982 373.871 397.982C373.871 397.982 373.871 393.876 373.871 391.952C373.871 390.449 373.871 385.922 373.871 385.922C373.871 385.922 378.074 385.922 379.901 385.922C383.231 385.922 385.931 388.622 385.931 391.952C385.931 395.282 383.231 397.982 379.901 397.982Z" fill="white"/>
<path d="M55.6111 0.0117188L28.8329 0.0117188C15.7815 0.0117188 4.73083 8.63106 1.19361 20.4162C0.830598 21.6318 0.543568 22.8897 0.340959 24.1644C0.121465 25.5743 0.0117187 27.0263 0.0117187 28.4952L0.0117187 55.9066C0.0117187 71.6257 12.945 84.407 28.8329 84.407H42.222H55.6111C71.4991 84.407 84.4323 71.6257 84.4323 55.9066V28.5037C84.4323 12.793 71.4991 0.0117188 55.6111 0.0117188ZM71.7692 55.915C71.7692 64.6441 64.5175 71.7523 55.6027 71.7523H42.222H28.8414C19.9265 71.7523 12.6748 64.6441 12.6748 55.915L12.6748 28.5037C12.6748 25.7769 13.3839 23.2105 14.6249 20.9649C15.8237 18.8037 17.5206 16.9465 19.5635 15.5451C22.189 13.7385 25.3886 12.6748 28.8329 12.6748L55.6111 12.6748C64.526 12.6748 71.7692 19.7746 71.7692 28.5037V55.915Z" fill="white"/>
<path d="M369.158 0.00390625L342.38 0.00390625C329.328 0.00390625 318.278 8.62325 314.74 20.4084C314.377 21.624 314.09 22.8819 313.888 24.1566C313.668 25.5665 313.559 27.0185 313.559 28.4874V55.8988C313.559 71.6179 326.492 84.3992 342.38 84.3992H355.769H369.158C385.046 84.3992 397.979 71.6179 397.979 55.8988V28.4959C397.979 12.7852 385.046 0.00390625 369.158 0.00390625ZM385.316 55.9072C385.316 64.6363 378.064 71.7445 369.15 71.7445H355.769H342.388C333.473 71.7445 326.222 64.6363 326.222 55.9072V28.4959C326.222 25.7691 326.931 23.2027 328.172 20.9571C329.371 18.7959 331.067 16.9387 333.11 15.5373C335.736 13.7307 338.935 12.667 342.38 12.667L369.158 12.667C378.073 12.667 385.316 19.7668 385.316 28.4959V55.9072Z" fill="white"/>
<path d="M55.6111 313.578H28.8329C15.7815 313.578 4.73083 322.197 1.19361 333.983C0.830598 335.198 0.543568 336.456 0.340959 337.731C0.121465 339.141 0.0117187 340.593 0.0117187 342.062L0.0117187 369.473C0.0117187 385.192 12.945 397.973 28.8329 397.973H42.222H55.6111C71.4991 397.973 84.4323 385.192 84.4323 369.473V342.07C84.4323 326.359 71.4991 313.578 55.6111 313.578ZM71.7692 369.481C71.7692 378.211 64.5175 385.319 55.6027 385.319H42.222H28.8414C19.9265 385.319 12.6748 378.211 12.6748 369.481L12.6748 342.07C12.6748 339.343 13.3839 336.777 14.6249 334.531C15.8237 332.37 17.5206 330.513 19.5635 329.112C22.189 327.305 25.3886 326.241 28.8329 326.241H55.6111C64.526 326.241 71.7692 333.341 71.7692 342.07V369.481Z" fill="white"/>
<path d="M33.9966 60.2935C28.537 60.2935 24.0977 55.941 24.0977 50.5936V33.806C24.0977 32.1344 24.5318 30.5642 25.2916 29.1894C26.0261 27.8652 27.0644 26.7291 28.3163 25.8716C29.9227 24.7645 31.8836 24.1133 33.993 24.1133H50.3935C55.8495 24.1133 60.2888 28.4621 60.2888 33.806V50.5936C60.2888 55.941 55.8458 60.2935 50.3935 60.2935H42.195H33.9966Z" fill="white"/>
<path d="M347.59 60.3209C342.131 60.3209 337.691 55.9684 337.691 50.6209V33.8333C337.691 32.1618 338.126 30.5916 338.885 29.2167C339.62 27.8925 340.658 26.7565 341.91 25.899C343.516 24.7919 345.477 24.1406 347.587 24.1406L363.987 24.1406C369.443 24.1406 373.883 28.4895 373.883 33.8333V50.6209C373.883 55.9684 369.44 60.3209 363.987 60.3209L355.789 60.3209H347.59Z" fill="white"/>
<path d="M34.0122 373.879C28.5526 373.879 24.1133 369.527 24.1133 364.18V347.392C24.1133 345.72 24.5474 344.15 25.3072 342.775C26.0417 341.451 27.0801 340.315 28.3319 339.458C29.9383 338.35 31.8993 337.699 34.0086 337.699H50.4091C55.8651 337.699 60.3044 342.048 60.3044 347.392V364.18C60.3044 369.527 55.8615 373.879 50.4091 373.879H42.2106H34.0122Z" fill="white"/>
</mask>
<g mask="url(#mask0)">
<path d="M397.987 0L0.00390625 0L0.00390625 397.983H397.987V0Z" fill="url(#paint0_linear)"/>
</g>
<path d="M223.389 209.967C221.028 212.719 216.206 212.025 214.768 208.686C212.383 203.488 210.506 198.061 208.267 192.799C206.15 197.882 204.265 203.081 202.071 208.138C201.11 210.84 197.872 212.579 195.175 211.33C193.043 210.343 191.892 207.915 191.402 206.597C189.602 201.768 187.191 195.78 184.194 188.53C183.265 186.268 184.92 183.784 187.356 183.784C188.04 183.783 188.708 183.987 189.275 184.37C189.842 184.752 190.281 185.296 190.537 185.931C192.719 191.333 194.894 196.754 197.102 202.15C198.966 197.556 200.785 192.951 202.611 188.339C203.438 186.268 204.513 183.943 206.829 183.236C209.38 182.274 212.148 184.096 213.108 186.461C215.564 192.015 217.607 197.743 219.985 203.316C222.396 199.208 223.911 194.513 223.649 189.697C223.363 179.109 214.807 169.465 204.335 168.007C191.886 166.113 179.194 174.669 175.613 186.632C172.054 198.518 177.455 210.446 185.002 216.317C185.002 216.317 192.118 221.855 202.306 222.057C203.044 222.064 203.779 221.963 204.488 221.758C204.782 221.664 205.069 221.549 205.347 221.414L202.917 219.751L201.196 218.47L199.659 217.132C199.351 216.825 199.12 216.45 198.983 216.037C198.69 215.137 198.91 214.177 199.349 213.571C200.13 212.494 201.897 212.132 203.485 212.952L214.064 220.489C214.107 220.526 214.148 220.566 214.185 220.61C214.225 220.62 214.262 220.639 214.293 220.667C215.584 221.591 215.858 223.489 214.885 224.897L207.423 235.758C206.462 237.16 204.611 237.549 203.313 236.625C202.002 235.695 201.729 233.79 202.709 232.389L205.463 228.452L205.387 228.47C205.387 228.47 202.359 229.221 198.682 228.745C184.658 226.934 176.206 217.539 176.206 217.539C171.148 212.017 168.31 204.753 167.516 197.357V192.493C168.216 184.983 171.104 177.624 176.206 172.025C181.811 165.616 189.941 161.776 198.338 160.832H203.294C212.391 161.679 221.017 166.751 225.852 174.554C232.842 185.206 231.875 200.431 223.389 209.967Z" fill="url(#paint1_linear)"/>
<defs>
<linearGradient id="paint0_linear" x1="372.946" y1="580.926" x2="-136.468" y2="-32.5969" gradientUnits="userSpaceOnUse">
<stop stop-color="#1228EB"/>
<stop offset="0.536458" stop-color="#12B2EB"/>
</linearGradient>
<linearGradient id="paint1_linear" x1="226.533" y1="272.197" x2="127.185" y2="173.427" gradientUnits="userSpaceOnUse">
<stop stop-color="#1228EB"/>
<stop offset="0.536458" stop-color="#12B2EB"/>
</linearGradient>
</defs>
</svg>
