<svg width="358" height="326" viewBox="0 0 358 326" fill="none" xmlns="http://www.w3.org/2000/svg">
<g clip-path="url(#clip0)">
<path fill-rule="evenodd" clip-rule="evenodd" d="M38.5138 123.818C55.3595 66.4011 115.046 25.3424 173.594 34.4356C197.202 37.7896 218.726 50.1641 234.905 67.733L212.048 107.29C211.769 107.763 211.527 108.247 211.321 108.743C211.054 109.107 210.812 109.494 210.582 109.894L194.584 137.573L179.532 111.274C178.478 109.421 177.012 107.956 175.327 106.903C171.425 102.387 165.729 99.7591 159.705 99.7591H157.197C153.803 99.7591 150.434 100.437 147.295 101.745L106.769 118.733C101.752 120.839 98.2371 125.465 97.5584 130.853C97.1463 134.122 97.8129 137.44 99.4611 140.297L123.615 182.349L127.056 187.507L138.327 199.119L132.619 227.742L106.248 213.624C100.843 210.73 94.1287 213.213 91.9109 218.915C90.0324 223.722 92.0442 229.183 96.601 231.617L134.389 251.85C135.455 252.552 136.679 253.06 138.024 253.327C143.599 254.441 149.016 250.82 150.119 245.251L155.742 217.051L182.174 244.282L182.15 268.426C182.138 275.606 189.143 280.716 195.99 278.524C200.523 277.071 203.54 272.785 203.359 268.026L202.195 237.574C202.062 234.123 200.753 230.818 198.499 228.202L163.256 187.507L173.158 150.165L182.695 166.826C187.143 174.588 197.045 177.276 204.813 172.832C205.443 172.469 206.001 172.045 206.51 171.573C207.734 170.543 208.812 169.284 209.648 167.819L234.99 123.963C235.268 123.467 235.523 122.97 235.741 122.462C235.996 122.111 236.226 121.735 236.456 121.36L266.633 69.1497C269.178 64.7544 269.069 59.56 266.815 55.4069C266.451 54.5957 266.003 53.8086 265.469 53.0579C242.54 20.7897 208.327 3.76564 168.698 0H145.393C132.51 1.4893 81.0157 8.97214 41.3013 53.7118C36.999 58.5672 4.53172 96.1751 0.435444 151.933C-0.328064 162.334 0.0839879 170.664 0.435444 175.278C4.55596 230.103 36.7202 267.009 41.3013 272.131C81.7914 317.306 134.51 324.051 149.647 325.37C196.208 329.463 230.445 312.463 237.341 308.915C245.885 304.52 288.084 281.745 308.917 232.222C314.104 219.884 316.661 208.987 318.018 201.468L318.042 201.092L331.979 219.751C336.936 226.386 346.171 228.154 352.497 223.698C358.775 219.291 359.841 210.307 354.848 203.744L316.176 152.865C311.171 146.242 301.972 144.487 295.707 148.87C295.537 148.967 295.379 149.1 295.27 149.269C295.016 149.366 294.761 149.487 294.519 149.62L243.328 185.57C237.086 191.454 236.032 200.015 239.789 205.245C241.91 208.188 246.006 210.694 250.623 210.791C252.744 210.827 254.829 210.367 256.731 209.459L265.288 204.616L273.868 198.852L285.308 190.486C285.502 191.951 285.599 193.428 285.575 194.905C285.478 197.278 285.139 199.627 284.569 201.928C281.903 211.941 276.413 227.839 264.379 243.882C239.304 277.325 196.172 297.643 152.361 294.192C114.84 291.237 89.5476 271.852 82.6397 266.21C45.3369 235.806 22.1772 179.491 38.5138 123.818ZM170.128 92.8938C182.962 92.8938 193.372 82.4929 193.372 69.6703C193.372 56.8478 182.962 46.4469 170.128 46.4469C157.294 46.4469 146.883 56.8478 146.883 69.6703C146.883 82.4929 157.282 92.8938 170.128 92.8938ZM124.608 129.799L115.664 135.72L121.979 144.39L124.608 129.799Z" fill="url(#paint0_linear)"/>
</g>
<defs>
<linearGradient id="paint0_linear" x1="383.959" y1="466.275" x2="-41.9531" y2="-95.2002" gradientUnits="userSpaceOnUse">
<stop stop-color="#1235EB"/>
<stop offset="0.4925" stop-color="#12B2EB"/>
<stop offset="0.7977" stop-color="#89E4FD"/>
</linearGradient>
<clipPath id="clip0">
<rect width="358" height="326" fill="white"/>
</clipPath>
</defs>
</svg>
