<svg width="933" height="933" viewBox="0 0 933 933" fill="none" xmlns="http://www.w3.org/2000/svg">
<mask id="mask0" mask-type="alpha" maskUnits="userSpaceOnUse" x="15" y="15" width="898" height="902">
<path d="M169.447 203.921C174.951 201.622 181.276 204.222 183.574 209.726C185.873 215.231 183.274 221.555 177.769 223.853C172.265 226.152 165.94 223.553 163.642 218.048C161.344 212.544 163.943 206.219 169.447 203.921Z" fill="white"/>
<path d="M243.371 184.753C244.341 187.076 247.532 194.72 247.532 194.72C247.532 194.72 240.748 197.552 237.566 198.88C235.082 199.918 227.6 203.042 227.6 203.042C227.6 203.042 224.699 196.096 223.439 193.076C221.141 187.571 223.739 181.246 229.243 178.948C234.747 176.65 241.073 179.249 243.371 184.753Z" fill="white"/>
<path d="M327.264 161.429L347.197 153.106L338.874 133.174C327.866 137.77 322.667 150.42 327.264 161.429Z" fill="white"/>
<path d="M357.148 148.943C354.825 149.913 347.182 153.105 347.182 153.105C347.182 153.105 344.349 146.319 343.021 143.138C341.983 140.654 338.859 133.172 338.859 133.172C338.859 133.172 345.806 130.271 348.826 129.011C354.33 126.713 360.655 129.312 362.953 134.816C365.251 140.32 362.652 146.645 357.148 148.943Z" fill="white"/>
<path d="M387.057 136.464L406.989 128.141L398.667 108.209C387.659 112.805 382.46 125.455 387.057 136.464Z" fill="white"/>
<path d="M416.953 123.978C414.63 124.948 406.987 128.14 406.987 128.14C406.987 128.14 404.153 121.354 402.825 118.173C401.788 115.689 398.664 108.207 398.664 108.207C398.664 108.207 405.611 105.306 408.63 104.046C414.134 101.748 420.46 104.347 422.758 109.851C425.056 115.355 422.457 121.68 416.953 123.978Z" fill="white"/>
<path d="M448.494 87.3896C453.998 85.0912 460.323 87.6905 462.621 93.1947C464.92 98.6993 462.321 105.024 456.816 107.322C451.312 109.62 444.987 107.022 442.689 101.517C440.39 96.0129 442.989 89.6877 448.494 87.3896Z" fill="white"/>
<path d="M502.481 76.5541C503.451 78.877 506.642 86.5204 506.642 86.5204C506.642 86.5204 499.857 89.3532 496.675 90.6812C494.191 91.7189 486.709 94.8424 486.709 94.8424C486.709 94.8424 483.809 87.8963 482.548 84.8765C480.25 79.3721 482.849 73.0471 488.353 70.7491C493.857 68.4509 500.182 71.0498 502.481 76.5541Z" fill="white"/>
<path d="M215.987 231.296L235.919 222.974L227.597 203.041C216.588 207.637 211.39 220.287 215.987 231.296Z" fill="white"/>
<path d="M247.523 194.717L227.59 203.039L235.912 222.972L255.845 214.649L247.523 194.717Z" fill="white"/>
<path d="M291.555 188.042C292.525 190.365 295.716 198.009 295.716 198.009C295.716 198.009 288.931 200.841 285.75 202.169C283.265 203.207 275.783 206.331 275.783 206.331C275.783 206.331 272.883 199.385 271.622 196.365C269.324 190.86 271.923 184.535 277.427 182.237C282.931 179.939 289.257 182.538 291.555 188.042Z" fill="white"/>
<path d="M315.658 189.698L335.591 181.376L327.269 161.443C316.26 166.04 311.062 178.689 315.658 189.698Z" fill="white"/>
<path d="M347.187 153.103L327.254 161.426L335.576 181.358L355.509 173.036L347.187 153.103Z" fill="white"/>
<path d="M391.212 146.427C390.242 144.104 387.051 136.461 387.051 136.461C387.051 136.461 393.836 133.628 397.017 132.3C399.502 131.262 406.983 128.138 406.983 128.138C406.983 128.138 409.884 135.085 411.145 138.105C413.443 143.609 410.843 149.934 405.34 152.232C399.835 154.531 393.51 151.931 391.212 146.427Z" fill="white"/>
<path d="M506.663 86.5252L486.73 94.8477L495.053 114.78L514.986 106.458L506.663 86.5252Z" fill="white"/>
<path d="M186.08 243.78C191.584 241.482 197.909 244.081 200.207 249.585C202.505 255.09 199.907 261.415 194.402 263.713C188.898 266.011 182.573 263.412 180.275 257.908C177.976 252.404 180.575 246.078 186.08 243.78Z" fill="white"/>
<path d="M235.921 222.971L215.988 231.293L224.311 251.226L244.243 242.903L235.921 222.971Z" fill="white"/>
<path d="M255.851 214.646L235.918 222.969L244.24 242.901L264.173 234.579L255.851 214.646Z" fill="white"/>
<path d="M275.788 206.318L255.855 214.641L264.178 234.573L284.111 226.251L275.788 206.318Z" fill="white"/>
<path d="M295.726 198.013L275.793 206.336L284.115 226.269L304.048 217.946L295.726 198.013Z" fill="white"/>
<path d="M335.581 181.357L315.648 189.68L323.971 209.612L343.904 201.29L335.581 181.357Z" fill="white"/>
<path d="M355.503 173.041L335.57 181.363L343.893 201.296L363.825 192.974L355.503 173.041Z" fill="white"/>
<path d="M385.412 160.561C390.916 158.263 397.241 160.862 399.539 166.367C401.838 171.871 399.239 178.196 393.734 180.494C388.23 182.792 381.905 180.194 379.607 174.689C377.308 169.185 379.907 162.86 385.412 160.561Z" fill="white"/>
<path d="M443.572 159.698L463.505 151.376L455.183 131.443C444.174 136.04 438.976 148.689 443.572 159.698Z" fill="white"/>
<path d="M475.105 123.111L455.172 131.434L463.494 151.366L483.427 143.044L475.105 123.111Z" fill="white"/>
<path d="M495.042 114.775L475.109 123.098L483.432 143.03L503.364 134.708L495.042 114.775Z" fill="white"/>
<path d="M514.976 106.455L495.043 114.777L503.365 134.71L523.298 126.388L514.976 106.455Z" fill="white"/>
<path d="M228.474 261.189C227.504 258.866 224.312 251.223 224.312 251.223C224.312 251.223 231.098 248.39 234.279 247.061C236.763 246.024 244.245 242.9 244.245 242.9C244.245 242.9 247.146 249.847 248.406 252.867C250.704 258.37 248.105 264.696 242.601 266.994C237.097 269.292 230.772 266.693 228.474 261.189Z" fill="white"/>
<path d="M304.042 217.931L284.109 226.254L292.432 246.187L312.364 237.864L304.042 217.931Z" fill="white"/>
<path d="M343.905 201.291L323.973 209.613L332.295 229.546L352.228 221.224L343.905 201.291Z" fill="white"/>
<path d="M363.835 192.971L343.902 201.293L352.225 221.226L372.157 212.903L363.835 192.971Z" fill="white"/>
<path d="M463.499 151.365L443.566 159.688L451.889 179.62L471.822 171.298L463.499 151.365Z" fill="white"/>
<path d="M511.689 154.641L503.366 134.709L483.434 143.031C488.03 154.04 500.68 159.238 511.689 154.641Z" fill="white"/>
<path d="M523.304 126.392L503.371 134.715L511.694 154.648C522.702 150.051 527.9 137.401 523.304 126.392Z" fill="white"/>
<path d="M202.728 283.647C208.233 281.349 214.557 283.948 216.856 289.452C219.154 294.957 216.555 301.282 211.05 303.58C205.546 305.878 199.221 303.28 196.923 297.775C194.625 292.271 197.224 285.946 202.728 283.647Z" fill="white"/>
<path d="M262.521 258.671C264.844 257.701 272.487 254.51 272.487 254.51C272.487 254.51 275.32 261.294 276.649 264.476C277.686 266.96 280.81 274.442 280.81 274.442C280.81 274.442 273.864 277.342 270.843 278.603C265.337 280.902 259.013 278.301 256.716 272.798C254.418 267.295 257.015 260.97 262.521 258.671Z" fill="white"/>
<path d="M292.421 246.205L272.488 254.527L280.811 274.46L300.743 266.138L292.421 246.205Z" fill="white"/>
<path d="M312.362 237.881L292.43 246.203L300.752 266.136C311.761 261.539 316.959 248.889 312.362 237.881Z" fill="white"/>
<path d="M352.233 221.221L332.301 229.543L340.623 249.476L360.556 241.153L352.233 221.221Z" fill="white"/>
<path d="M372.159 212.908L352.227 221.23L360.549 241.163L380.482 232.841L372.159 212.908Z" fill="white"/>
<path d="M392.089 204.584L372.156 212.906L380.479 232.839L400.411 224.516L392.089 204.584Z" fill="white"/>
<path d="M410.375 220.353C408.052 221.323 400.408 224.515 400.408 224.515C400.408 224.515 397.575 217.729 396.247 214.548C395.21 212.064 392.086 204.582 392.086 204.582C392.086 204.582 399.033 201.681 402.052 200.421C407.556 198.123 413.882 200.722 416.18 206.226C418.478 211.73 415.879 218.055 410.375 220.353Z" fill="white"/>
<path d="M471.819 171.283L451.887 179.605L460.209 199.538L480.142 191.216L471.819 171.283Z" fill="white"/>
<path d="M490.117 187.053C487.794 188.023 480.151 191.214 480.151 191.214C480.151 191.214 477.317 184.428 475.989 181.248C474.952 178.763 471.828 171.281 471.828 171.281C471.828 171.281 478.775 168.381 481.794 167.12C487.298 164.822 493.624 167.421 495.922 172.925C498.22 178.429 495.621 184.755 490.117 187.053Z" fill="white"/>
<path d="M265.047 292.738C266.017 295.061 269.208 302.704 269.208 302.704C269.208 302.704 262.424 305.537 259.242 306.865C256.757 307.903 249.275 311.026 249.275 311.026C249.275 311.026 246.375 304.08 245.114 301.06C242.817 295.556 245.415 289.231 250.919 286.933C256.423 284.635 262.749 287.233 265.047 292.738Z" fill="white"/>
<path d="M300.753 266.123L280.82 274.445L289.143 294.378L309.075 286.056L300.753 266.123Z" fill="white"/>
<path d="M329.01 277.73L348.943 269.407L340.62 249.474C329.612 254.071 324.413 266.721 329.01 277.73Z" fill="white"/>
<path d="M360.55 241.162L340.617 249.484L348.94 269.417C359.948 264.821 365.146 252.17 360.55 241.162Z" fill="white"/>
<path d="M384.65 242.798C383.68 240.475 380.488 232.832 380.488 232.832C380.488 232.832 387.273 229.999 390.455 228.671C392.939 227.634 400.421 224.51 400.421 224.51C400.421 224.51 403.321 231.457 404.582 234.476C406.88 239.98 404.281 246.305 398.777 248.603C393.273 250.902 386.947 248.302 384.65 242.798Z" fill="white"/>
<path d="M464.376 209.509C463.406 207.186 460.215 199.543 460.215 199.543C460.215 199.543 467 196.71 470.181 195.382C472.666 194.344 480.148 191.221 480.148 191.221C480.148 191.221 483.048 198.167 484.309 201.187C486.607 206.691 484.007 213.016 478.504 215.314C472.999 217.613 466.674 215.013 464.376 209.509Z" fill="white"/>
<path d="M510.041 178.733C512.364 177.763 520.007 174.572 520.007 174.572C520.007 174.572 522.84 181.356 524.168 184.538C525.205 187.022 528.329 194.505 528.329 194.505C528.329 194.505 521.384 197.405 518.363 198.666C512.857 200.965 506.533 198.363 504.235 192.861C501.938 187.358 504.534 181.032 510.041 178.733Z" fill="white"/>
<path d="M520.012 174.578L528.334 194.511L548.267 186.188C543.67 175.18 531.02 169.982 520.012 174.578Z" fill="white"/>
<path d="M233.504 329.316C234.474 331.639 237.665 339.282 237.665 339.282C237.665 339.282 230.881 342.115 227.699 343.443C225.215 344.481 217.732 347.604 217.732 347.604C217.732 347.604 214.832 340.658 213.571 337.638C211.274 332.134 213.872 325.809 219.376 323.511C224.88 321.213 231.206 323.812 233.504 329.316Z" fill="white"/>
<path d="M269.21 302.701L249.277 311.023L257.6 330.956L277.532 322.634L269.21 302.701Z" fill="white"/>
<path d="M309.077 286.053L289.145 294.375L297.467 314.308L317.4 305.985L309.077 286.053Z" fill="white"/>
<path d="M333.173 287.701C332.203 285.378 329.012 277.734 329.012 277.734C329.012 277.734 335.797 274.901 338.978 273.573C341.462 272.536 348.944 269.412 348.944 269.412C348.944 269.412 351.845 276.359 353.106 279.378C355.404 284.882 352.804 291.208 347.3 293.506C341.796 295.804 335.471 293.205 333.173 287.701Z" fill="white"/>
<path d="M378.834 256.925C384.338 254.626 390.663 257.226 392.961 262.73C395.259 268.234 392.661 274.559 387.156 276.857C381.652 279.156 375.327 276.557 373.028 271.052C370.73 265.548 373.329 259.223 378.834 256.925Z" fill="white"/>
<path d="M418.709 240.284C424.213 237.986 430.538 240.585 432.836 246.089C435.134 251.594 432.536 257.918 427.031 260.217C421.527 262.515 415.202 259.916 412.903 254.412C410.605 248.907 413.204 242.582 418.709 240.284Z" fill="white"/>
<path d="M472.695 229.433C473.665 231.756 476.857 239.399 476.857 239.399C476.857 239.399 470.072 242.232 466.89 243.56C464.406 244.598 456.924 247.721 456.924 247.721C456.924 247.721 454.024 240.775 452.763 237.755C450.465 232.251 453.064 225.926 458.567 223.628C464.072 221.33 470.397 223.929 472.695 229.433Z" fill="white"/>
<path d="M512.563 212.8C513.533 215.123 516.724 222.766 516.724 222.766C516.724 222.766 509.939 225.599 506.757 226.927C504.273 227.965 496.791 231.089 496.791 231.089C496.791 231.089 493.891 224.142 492.63 221.123C490.332 215.618 492.931 209.293 498.435 206.995C503.939 204.697 510.264 207.296 512.563 212.8Z" fill="white"/>
<path d="M532.497 204.474C531.527 202.151 528.336 194.508 528.336 194.508C528.336 194.508 535.121 191.675 538.302 190.347C540.787 189.309 548.269 186.185 548.269 186.185C548.269 186.185 551.169 193.132 552.43 196.152C554.728 201.656 552.129 207.981 546.625 210.279C541.121 212.577 534.795 209.978 532.497 204.474Z" fill="white"/>
<path d="M245.974 359.196L237.651 339.263L217.719 347.586C222.315 358.594 234.965 363.793 245.974 359.196Z" fill="white"/>
<path d="M257.597 330.955L237.664 339.277L245.987 359.21L265.919 350.888L257.597 330.955Z" fill="white"/>
<path d="M277.534 322.631L257.602 330.953L265.924 350.886L285.857 342.563L277.534 322.631Z" fill="white"/>
<path d="M297.464 314.306L277.531 322.629L285.854 342.562L305.786 334.239L297.464 314.306Z" fill="white"/>
<path d="M317.394 305.99L297.461 314.312L305.783 334.245L325.716 325.923L317.394 305.99Z" fill="white"/>
<path d="M335.679 321.752C333.356 322.722 325.713 325.913 325.713 325.913C325.713 325.913 322.88 319.128 321.552 315.947C320.515 313.462 317.391 305.98 317.391 305.98C317.391 305.98 324.338 303.08 327.357 301.819C332.861 299.521 339.186 302.12 341.485 307.624C343.783 313.128 341.183 319.454 335.679 321.752Z" fill="white"/>
<path d="M407.087 268.546C412.592 266.247 418.917 268.847 421.215 274.351C423.513 279.856 420.914 286.18 415.41 288.478C409.906 290.777 403.581 288.178 401.282 282.673C398.984 277.169 401.583 270.844 407.087 268.546Z" fill="white"/>
<path d="M476.851 239.42L456.918 247.742L465.24 267.675L485.173 259.352L476.851 239.42Z" fill="white"/>
<path d="M516.722 222.763L496.789 231.086L505.112 251.019L525.044 242.696L516.722 222.763Z" fill="white"/>
<path d="M516.723 222.777L525.045 242.71L544.978 234.388C540.381 223.379 527.731 218.181 516.723 222.777Z" fill="white"/>
<path d="M174.576 412.429L194.509 404.106L186.187 384.174C175.178 388.77 169.98 401.42 174.576 412.429Z" fill="white"/>
<path d="M204.472 399.943C202.149 400.913 194.506 404.105 194.506 404.105C194.506 404.105 191.673 397.319 190.345 394.138C189.308 391.654 186.184 384.172 186.184 384.172C186.184 384.172 193.131 381.271 196.15 380.011C201.654 377.713 207.979 380.312 210.277 385.816C212.575 391.32 209.976 397.645 204.472 399.943Z" fill="white"/>
<path d="M305.788 334.244L285.855 342.566L294.178 362.499L314.111 354.177L305.788 334.244Z" fill="white"/>
<path d="M325.718 325.912L305.785 334.234L314.108 354.167L334.04 345.845L325.718 325.912Z" fill="white"/>
<path d="M353.975 337.523L373.907 329.2L365.585 309.267C354.577 313.864 349.378 326.514 353.975 337.523Z" fill="white"/>
<path d="M385.511 300.947L365.578 309.27L373.901 329.202L393.833 320.88L385.511 300.947Z" fill="white"/>
<path d="M403.804 316.732C401.481 317.702 393.838 320.894 393.838 320.894C393.838 320.894 391.005 314.108 389.677 310.927C388.64 308.443 385.516 300.961 385.516 300.961C385.516 300.961 392.463 298.06 395.482 296.8C400.986 294.502 407.311 297.101 409.61 302.605C411.908 308.109 409.308 314.434 403.804 316.732Z" fill="white"/>
<path d="M433.705 304.237L453.638 295.915L445.315 275.982C434.307 280.579 429.109 293.229 433.705 304.237Z" fill="white"/>
<path d="M465.245 267.658L445.312 275.98L453.635 295.913L473.568 287.591L465.245 267.658Z" fill="white"/>
<path d="M485.183 259.334L465.25 267.656L473.572 287.589C484.581 282.993 489.779 270.342 485.183 259.334Z" fill="white"/>
<path d="M525.05 242.693L505.117 251.016L513.44 270.948L533.372 262.626L525.05 242.693Z" fill="white"/>
<path d="M544.987 234.377L525.055 242.699L533.377 262.632L553.31 254.309L544.987 234.377Z" fill="white"/>
<path d="M563.269 250.146C560.946 251.116 553.303 254.308 553.303 254.308C553.303 254.308 550.47 247.522 549.142 244.341C548.104 241.857 544.98 234.375 544.98 234.375C544.98 234.375 551.927 231.474 554.947 230.214C560.451 227.916 566.776 230.515 569.074 236.019C571.372 241.523 568.773 247.848 563.269 250.146Z" fill="white"/>
<path d="M594.806 213.565C600.311 211.267 606.636 213.866 608.934 219.37C611.232 224.875 608.633 231.2 603.129 233.498C597.624 235.796 591.299 233.198 589.001 227.693C586.703 222.189 589.302 215.864 594.806 213.565Z" fill="white"/>
<path d="M648.793 202.73C649.763 205.053 652.954 212.696 652.954 212.696C652.954 212.696 646.17 215.529 642.988 216.857C640.504 217.895 633.021 221.018 633.021 221.018C633.021 221.018 630.121 214.072 628.86 211.052C626.563 205.548 629.161 199.223 634.665 196.925C640.169 194.627 646.495 197.226 648.793 202.73Z" fill="white"/>
<path d="M688.668 186.081C689.638 188.404 692.829 196.048 692.829 196.048C692.829 196.048 686.045 198.881 682.863 200.209C680.379 201.246 672.896 204.37 672.896 204.37C672.896 204.37 669.996 197.424 668.735 194.404C666.438 188.899 669.036 182.574 674.54 180.276C680.044 177.978 686.37 180.577 688.668 186.081Z" fill="white"/>
<path d="M714.416 163.628C719.92 161.33 726.245 163.929 728.543 169.433C730.841 174.938 728.243 181.262 722.738 183.561C717.234 185.859 710.909 183.26 708.61 177.755C706.312 172.251 708.911 165.926 714.416 163.628Z" fill="white"/>
<path d="M83.2326 473.964L103.165 465.641L94.8428 445.709C83.8344 450.305 78.6361 462.955 83.2326 473.964Z" fill="white"/>
<path d="M113.136 461.502C110.813 462.472 103.17 465.663 103.17 465.663C103.17 465.663 100.337 458.878 99.0089 455.697C97.9716 453.212 94.8477 445.73 94.8477 445.73C94.8477 445.73 101.795 442.83 104.814 441.569C110.318 439.271 116.643 441.87 118.942 447.374C121.24 452.878 118.64 459.204 113.136 461.502Z" fill="white"/>
<path d="M143.033 449.007L162.966 440.684L154.644 420.752C143.635 425.348 138.437 437.998 143.033 449.007Z" fill="white"/>
<path d="M174.577 412.428L154.645 420.75L162.967 440.683L182.9 432.36L174.577 412.428Z" fill="white"/>
<path d="M194.515 404.111L174.582 412.434L182.904 432.366C193.913 427.77 199.111 415.12 194.515 404.111Z" fill="white"/>
<path d="M244.349 383.308C246.672 382.338 254.315 379.146 254.315 379.146C254.315 379.146 257.148 385.931 258.477 389.113C259.514 391.596 262.638 399.079 262.638 399.079C262.638 399.079 255.693 401.979 252.672 403.24C247.165 405.539 240.841 402.937 238.544 397.435C236.246 391.932 238.843 385.607 244.349 383.308Z" fill="white"/>
<path d="M274.245 370.814L254.312 379.137L262.635 399.069L282.568 390.747L274.245 370.814Z" fill="white"/>
<path d="M294.175 362.498L274.242 370.82L282.565 390.753L302.497 382.431L294.175 362.498Z" fill="white"/>
<path d="M314.101 354.181L294.168 362.504L302.49 382.437L322.423 374.114L314.101 354.181Z" fill="white"/>
<path d="M334.038 345.865L314.105 354.188L322.428 374.12C333.436 369.524 338.634 356.873 334.038 345.865Z" fill="white"/>
<path d="M373.909 329.209L353.977 337.531L362.299 357.464L382.232 349.141L373.909 329.209Z" fill="white"/>
<path d="M422.092 332.499L442.025 324.177L433.702 304.244C422.694 308.84 417.495 321.49 422.092 332.499Z" fill="white"/>
<path d="M453.64 295.92L433.707 304.242L442.029 324.175L461.962 315.852L453.64 295.92Z" fill="white"/>
<path d="M473.562 287.584L453.629 295.906L461.951 315.839C472.96 311.243 478.158 298.592 473.562 287.584Z" fill="white"/>
<path d="M541.689 282.552L533.366 262.619L513.434 270.941C518.03 281.95 530.68 287.148 541.689 282.552Z" fill="white"/>
<path d="M553.304 254.306L533.371 262.629L541.694 282.562C552.702 277.965 557.9 265.315 553.304 254.306Z" fill="white"/>
<path d="M597.32 247.624C598.29 249.947 601.482 257.591 601.482 257.591C601.482 257.591 594.697 260.423 591.515 261.752C589.031 262.789 581.549 265.913 581.549 265.913C581.549 265.913 578.649 258.967 577.388 255.947C575.09 250.442 577.689 244.117 583.192 241.819C588.697 239.521 595.022 242.12 597.32 247.624Z" fill="white"/>
<path d="M621.416 249.261L641.349 240.938L633.026 221.006C622.018 225.602 616.82 238.252 621.416 249.261Z" fill="white"/>
<path d="M652.964 212.693L633.031 221.016L641.354 240.948L661.286 232.626L652.964 212.693Z" fill="white"/>
<path d="M672.894 204.377L652.961 212.699L661.283 232.632L681.216 224.309L672.894 204.377Z" fill="white"/>
<path d="M692.831 196.053L672.898 204.375L681.221 224.308L701.154 215.985L692.831 196.053Z" fill="white"/>
<path d="M692.828 196.039L701.151 215.972L721.083 207.649C716.487 196.64 703.837 191.443 692.828 196.039Z" fill="white"/>
<path d="M103.167 465.646L83.2344 473.969L91.5568 493.901L111.489 485.579L103.167 465.646Z" fill="white"/>
<path d="M131.432 477.269L151.364 468.946L143.042 449.013C132.034 453.61 126.835 466.26 131.432 477.269Z" fill="white"/>
<path d="M162.972 440.681L143.039 449.004L151.362 468.937L171.294 460.614L162.972 440.681Z" fill="white"/>
<path d="M182.909 432.365L162.977 440.688L171.299 460.62C182.307 456.024 187.506 443.373 182.909 432.365Z" fill="white"/>
<path d="M212.802 419.886C218.307 417.587 224.632 420.187 226.93 425.691C229.228 431.195 226.629 437.52 221.125 439.818C215.621 442.116 209.295 439.518 206.997 434.013C204.699 428.509 207.298 422.184 212.802 419.886Z" fill="white"/>
<path d="M282.562 390.76L262.629 399.082L270.951 419.015L290.884 410.692L282.562 390.76Z" fill="white"/>
<path d="M306.657 392.392C305.687 390.069 302.496 382.426 302.496 382.426C302.496 382.426 309.281 379.593 312.462 378.265C314.947 377.227 322.429 374.103 322.429 374.103C322.429 374.103 325.329 381.05 326.59 384.07C328.888 389.573 326.289 395.899 320.785 398.197C315.281 400.495 308.955 397.896 306.657 392.392Z" fill="white"/>
<path d="M352.326 361.624C354.649 360.654 362.292 357.463 362.292 357.463C362.292 357.463 365.125 364.247 366.453 367.429C367.49 369.913 370.614 377.395 370.614 377.395C370.614 377.395 363.669 380.295 360.648 381.557C355.142 383.856 348.818 381.254 346.521 375.751C344.223 370.248 346.82 363.923 352.326 361.624Z" fill="white"/>
<path d="M382.233 349.138L362.301 357.461L370.623 377.394L390.556 369.071L382.233 349.138Z" fill="white"/>
<path d="M402.159 340.822L382.227 349.145L390.549 369.077L410.482 360.755L402.159 340.822Z" fill="white"/>
<path d="M422.089 332.49L402.156 340.812L410.479 360.745L430.411 352.423L422.089 332.49Z" fill="white"/>
<path d="M442.038 324.158L422.105 332.48L430.428 352.413C441.436 347.817 446.634 335.166 442.038 324.158Z" fill="white"/>
<path d="M511.783 295.046C517.287 292.747 523.612 295.347 525.91 300.851C528.209 306.356 525.61 312.68 520.105 314.978C514.601 317.277 508.276 314.678 505.978 309.173C503.679 303.669 506.279 297.344 511.783 295.046Z" fill="white"/>
<path d="M571.587 270.069C573.91 269.099 581.554 265.908 581.554 265.908C581.554 265.908 584.386 272.692 585.715 275.874C586.752 278.358 589.876 285.841 589.876 285.841C589.876 285.841 582.931 288.741 579.91 290.002C574.404 292.301 568.08 289.699 565.782 284.197C563.485 278.694 566.081 272.368 571.587 270.069Z" fill="white"/>
<path d="M601.491 257.596L581.559 265.918L589.881 285.851L609.814 277.528L601.491 257.596Z" fill="white"/>
<path d="M621.421 249.271L601.488 257.594L609.811 277.526L629.743 269.204L621.421 249.271Z" fill="white"/>
<path d="M641.351 240.947L621.418 249.27L629.74 269.202L649.673 260.88L641.351 240.947Z" fill="white"/>
<path d="M701.148 215.982L681.215 224.305L689.537 244.237L709.47 235.915L701.148 215.982Z" fill="white"/>
<path d="M721.077 207.654L701.145 215.977L709.467 235.909L729.4 227.587L721.077 207.654Z" fill="white"/>
<path d="M119.806 505.524L111.483 485.592L91.5508 493.914C96.1471 504.922 108.797 510.121 119.806 505.524Z" fill="white"/>
<path d="M131.421 477.267L111.488 485.59L119.811 505.523L139.743 497.2L131.421 477.267Z" fill="white"/>
<path d="M151.358 468.943L131.426 477.266L139.748 497.198L159.681 488.876L151.358 468.943Z" fill="white"/>
<path d="M171.296 460.615L151.363 468.938L159.686 488.87C170.694 484.274 175.892 471.623 171.296 460.615Z" fill="white"/>
<path d="M215.317 453.952C216.286 456.275 219.478 463.919 219.478 463.919C219.478 463.919 212.693 466.752 209.511 468.08C207.027 469.117 199.545 472.241 199.545 472.241C199.545 472.241 196.645 465.295 195.384 462.275C193.086 456.771 195.685 450.446 201.189 448.148C206.693 445.849 213.018 448.448 215.317 453.952Z" fill="white"/>
<path d="M290.886 410.678L270.953 419L279.276 438.933L299.208 430.61L290.886 410.678Z" fill="white"/>
<path d="M538.404 330.733L558.337 322.411L550.015 302.478C539.006 307.075 533.808 319.725 538.404 330.733Z" fill="white"/>
<path d="M568.289 318.275C565.966 319.245 558.322 322.437 558.322 322.437C558.322 322.437 555.489 315.651 554.161 312.47C553.124 309.986 550 302.504 550 302.504C550 302.504 556.947 299.603 559.966 298.343C565.47 296.045 571.796 298.644 574.094 304.148C576.392 309.652 573.793 315.977 568.289 318.275Z" fill="white"/>
<path d="M629.745 269.201L609.812 277.523L618.135 297.456L638.068 289.134L629.745 269.201Z" fill="white"/>
<path d="M649.687 260.885L629.754 269.207L638.076 289.14C649.085 284.543 654.283 271.893 649.687 260.885Z" fill="white"/>
<path d="M677.924 272.491L697.857 264.169L689.534 244.236C678.526 248.832 673.328 261.482 677.924 272.491Z" fill="white"/>
<path d="M709.472 235.92L689.539 244.242L697.862 264.175L717.794 255.852L709.472 235.92Z" fill="white"/>
<path d="M729.409 227.592L709.477 235.914L717.799 255.847L737.732 247.524L729.409 227.592Z" fill="white"/>
<path d="M189.584 476.393C191.906 475.424 199.55 472.232 199.55 472.232C199.55 472.232 202.382 479.017 203.711 482.199C204.748 484.682 207.872 492.165 207.872 492.165C207.872 492.165 200.927 495.065 197.906 496.326C192.4 498.625 186.076 496.023 183.778 490.521C181.481 485.018 184.077 478.692 189.584 476.393Z" fill="white"/>
<path d="M219.48 463.896L199.547 472.219L207.869 492.151L227.802 483.829L219.48 463.896Z" fill="white"/>
<path d="M237.773 479.693C235.45 480.663 227.807 483.855 227.807 483.855C227.807 483.855 224.974 477.069 223.646 473.888C222.608 471.404 219.484 463.922 219.484 463.922C219.484 463.922 226.431 461.021 229.451 459.761C234.955 457.463 241.28 460.062 243.578 465.566C245.876 471.07 243.277 477.395 237.773 479.693Z" fill="white"/>
<path d="M269.314 443.104C271.637 442.135 279.28 438.943 279.28 438.943C279.28 438.943 282.113 445.727 283.442 448.91C284.479 451.393 287.603 458.876 287.603 458.876C287.603 458.876 280.657 461.776 277.636 463.037C272.13 465.336 265.806 462.734 263.509 457.232C261.211 451.729 263.808 445.403 269.314 443.104Z" fill="white"/>
<path d="M299.21 430.615L279.277 438.938L287.6 458.87L307.532 450.548L299.21 430.615Z" fill="white"/>
<path d="M299.195 430.617L307.518 450.55L327.45 442.227C322.854 431.219 310.204 426.021 299.195 430.617Z" fill="white"/>
<path d="M558.339 322.435L538.406 330.758L546.729 350.69L566.661 342.368L558.339 322.435Z" fill="white"/>
<path d="M638.062 289.127L618.129 297.449L626.451 317.382L646.384 309.059L638.062 289.127Z" fill="white"/>
<path d="M667.955 276.647C670.278 275.677 677.921 272.486 677.921 272.486C677.921 272.486 680.754 279.27 682.082 282.452C683.119 284.936 686.243 292.419 686.243 292.419C686.243 292.419 679.298 295.319 676.277 296.58C670.771 298.879 664.447 296.277 662.15 290.775C659.852 285.272 662.448 278.946 667.955 276.647Z" fill="white"/>
<path d="M697.874 264.17L677.941 272.492L686.264 292.425L706.197 284.102L697.874 264.17Z" fill="white"/>
<path d="M746.056 267.458L737.733 247.525L717.801 255.848C722.397 266.856 735.047 272.054 746.056 267.458Z" fill="white"/>
<path d="M737.73 247.531L746.053 267.464L765.986 259.141C761.389 248.133 748.739 242.935 737.73 247.531Z" fill="white"/>
<path d="M257.705 471.354C263.209 469.056 269.534 471.655 271.832 477.16C274.13 482.664 271.532 488.989 266.027 491.287C260.523 493.585 254.198 490.987 251.9 485.482C249.601 479.978 252.2 473.653 257.705 471.354Z" fill="white"/>
<path d="M315.849 470.497L307.526 450.564L287.594 458.887C292.19 469.895 304.84 475.093 315.849 470.497Z" fill="white"/>
<path d="M327.464 442.228L307.531 450.551L315.854 470.483C326.862 465.887 332.06 453.237 327.464 442.228Z" fill="white"/>
<path d="M566.655 342.353L546.723 350.676L555.045 370.608L574.978 362.286L566.655 342.353Z" fill="white"/>
<path d="M584.945 358.135C582.622 359.105 574.979 362.296 574.979 362.296C574.979 362.296 572.146 355.51 570.817 352.33C569.78 349.845 566.656 342.363 566.656 342.363C566.656 342.363 573.603 339.463 576.623 338.202C582.126 335.904 588.452 338.503 590.75 344.007C593.048 349.511 590.449 355.837 584.945 358.135Z" fill="white"/>
<path d="M616.49 321.542C618.813 320.572 626.456 317.381 626.456 317.381C626.456 317.381 629.289 324.165 630.617 327.347C631.654 329.831 634.779 337.313 634.779 337.313C634.779 337.313 627.833 340.213 624.812 341.475C619.306 343.774 612.982 341.172 610.685 335.669C608.387 330.166 610.984 323.841 616.49 321.542Z" fill="white"/>
<path d="M646.398 309.076L626.465 317.398L634.787 337.331C645.796 332.735 650.994 320.084 646.398 309.076Z" fill="white"/>
<path d="M706.183 284.099L686.25 292.422L694.572 312.355L714.505 304.032L706.183 284.099Z" fill="white"/>
<path d="M750.208 277.416C749.238 275.093 746.047 267.449 746.047 267.449C746.047 267.449 752.832 264.616 756.013 263.288C758.498 262.251 765.98 259.127 765.98 259.127C765.98 259.127 768.88 266.074 770.141 269.093C772.439 274.597 769.839 280.923 764.336 283.221C758.831 285.519 752.506 282.919 750.208 277.416Z" fill="white"/>
<path d="M126.498 549.558C132.002 547.259 138.327 549.858 140.625 555.363C142.923 560.867 140.325 567.192 134.82 569.49C129.316 571.788 122.991 569.19 120.692 563.685C118.394 558.181 120.993 551.856 126.498 549.558Z" fill="white"/>
<path d="M184.643 548.667L204.575 540.345L196.253 520.412C185.245 525.008 180.046 537.658 184.643 548.667Z" fill="white"/>
<path d="M214.547 536.182C212.224 537.152 204.58 540.343 204.58 540.343C204.58 540.343 201.747 533.557 200.419 530.376C199.382 527.892 196.258 520.41 196.258 520.41C196.258 520.41 203.205 517.51 206.224 516.249C211.728 513.951 218.054 516.55 220.352 522.054C222.65 527.558 220.05 533.884 214.547 536.182Z" fill="white"/>
<path d="M246.099 499.616C251.604 497.318 257.929 499.917 260.227 505.421C262.525 510.926 259.926 517.25 254.422 519.549C248.917 521.847 242.592 519.248 240.294 513.744C237.996 508.239 240.595 501.914 246.099 499.616Z" fill="white"/>
<path d="M559.208 380.58C558.238 378.257 555.047 370.613 555.047 370.613C555.047 370.613 561.832 367.78 565.013 366.452C567.498 365.415 574.98 362.291 574.98 362.291C574.98 362.291 577.88 369.238 579.141 372.257C581.439 377.761 578.839 384.087 573.336 386.385C567.831 388.683 561.506 386.083 559.208 380.58Z" fill="white"/>
<path d="M698.735 322.318C697.766 319.995 694.574 312.352 694.574 312.352C694.574 312.352 701.359 309.519 704.541 308.19C707.025 307.153 714.507 304.029 714.507 304.029C714.507 304.029 717.407 310.976 718.668 313.995C720.966 319.499 718.367 325.825 712.863 328.123C707.359 330.421 701.033 327.822 698.735 322.318Z" fill="white"/>
<path d="M758.535 297.363C759.505 299.686 762.697 307.329 762.697 307.329C762.697 307.329 755.912 310.162 752.73 311.49C750.246 312.528 742.764 315.651 742.764 315.651C742.764 315.651 739.863 308.705 738.603 305.685C736.305 300.181 738.904 293.856 744.407 291.558C749.912 289.26 756.237 291.858 758.535 297.363Z" fill="white"/>
<path d="M188.814 558.63C187.844 556.307 184.652 548.664 184.652 548.664C184.652 548.664 191.437 545.831 194.619 544.503C197.103 543.466 204.585 540.342 204.585 540.342C204.585 540.342 207.486 547.289 208.746 550.308C211.044 555.812 208.445 562.138 202.941 564.436C197.437 566.734 191.112 564.134 188.814 558.63Z" fill="white"/>
<path d="M248.606 533.667C249.576 535.99 252.767 543.634 252.767 543.634C252.767 543.634 245.982 546.466 242.8 547.794C240.316 548.832 232.834 551.956 232.834 551.956C232.834 551.956 229.934 545.01 228.673 541.99C226.375 536.485 228.974 530.16 234.478 527.862C239.982 525.564 246.307 528.163 248.606 533.667Z" fill="white"/>
<path d="M274.341 511.229C279.846 508.931 286.171 511.53 288.469 517.035C290.767 522.539 288.168 528.864 282.664 531.162C277.16 533.46 270.835 530.862 268.536 525.357C266.238 519.853 268.837 513.528 274.341 511.229Z" fill="white"/>
<path d="M328.336 500.378C329.306 502.701 332.497 510.345 332.497 510.345C332.497 510.345 325.713 513.177 322.531 514.505C320.047 515.543 312.564 518.667 312.564 518.667C312.564 518.667 309.664 511.721 308.403 508.701C306.106 503.196 308.704 496.871 314.208 494.573C319.712 492.275 326.038 494.874 328.336 500.378Z" fill="white"/>
<path d="M613.205 369.741C615.528 368.771 623.171 365.58 623.171 365.58C623.171 365.58 626.004 372.364 627.332 375.546C628.369 378.03 631.493 385.513 631.493 385.513C631.493 385.513 624.548 388.412 621.527 389.674C616.021 391.973 609.697 389.371 607.4 383.869C605.102 378.366 607.698 372.04 613.205 369.741Z" fill="white"/>
<path d="M643.097 357.263L623.164 365.586L631.487 385.519L651.419 377.196L643.097 357.263Z" fill="white"/>
<path d="M661.383 373.025C659.06 373.995 651.416 377.187 651.416 377.187C651.416 377.187 648.583 370.401 647.255 367.22C646.218 364.736 643.094 357.254 643.094 357.254C643.094 357.254 650.041 354.353 653.06 353.093C658.564 350.795 664.889 353.394 667.188 358.898C669.486 364.402 666.886 370.727 661.383 373.025Z" fill="white"/>
<path d="M707.055 342.257C708.025 344.58 711.216 352.224 711.216 352.224C711.216 352.224 704.431 355.056 701.25 356.384C698.765 357.422 691.283 360.546 691.283 360.546C691.283 360.546 688.383 353.599 687.122 350.58C684.824 345.075 687.423 338.75 692.927 336.452C698.431 334.154 704.757 336.753 707.055 342.257Z" fill="white"/>
<path d="M731.147 343.898L751.079 335.575L742.757 315.642C731.748 320.239 726.55 332.889 731.147 343.898Z" fill="white"/>
<path d="M762.694 307.326L742.762 315.648L751.084 335.581C762.093 330.985 767.291 318.334 762.694 307.326Z" fill="white"/>
<path d="M177.203 586.902C178.173 589.225 181.364 596.868 181.364 596.868C181.364 596.868 174.58 599.701 171.398 601.029C168.914 602.067 161.432 605.19 161.432 605.19C161.432 605.19 158.531 598.244 157.271 595.224C154.973 589.72 157.572 583.395 163.075 581.097C168.58 578.799 174.905 581.398 177.203 586.902Z" fill="white"/>
<path d="M252.776 543.631L232.844 551.953L241.166 571.886L261.099 563.563L252.776 543.631Z" fill="white"/>
<path d="M271.05 559.4C268.728 560.37 261.084 563.562 261.084 563.562C261.084 563.562 258.251 556.776 256.923 553.595C255.886 551.111 252.762 543.629 252.762 543.629C252.762 543.629 259.709 540.728 262.728 539.468C268.232 537.17 274.557 539.769 276.856 545.273C279.154 550.777 276.554 557.102 271.05 559.4Z" fill="white"/>
<path d="M300.963 546.913L320.896 538.591L312.573 518.658C301.565 523.254 296.367 535.904 300.963 546.913Z" fill="white"/>
<path d="M332.499 510.342L312.566 518.664L320.889 538.597L340.822 530.274L332.499 510.342Z" fill="white"/>
<path d="M350.777 526.119C348.454 527.089 340.811 530.28 340.811 530.28C340.811 530.28 337.978 523.495 336.65 520.314C335.612 517.83 332.488 510.348 332.488 510.348C332.488 510.348 339.435 507.447 342.455 506.186C347.958 503.888 354.284 506.487 356.582 511.992C358.88 517.495 356.281 523.821 350.777 526.119Z" fill="white"/>
<path d="M651.421 377.185L631.488 385.508L639.811 405.44L659.743 397.118L651.421 377.185Z" fill="white"/>
<path d="M679.67 388.8L699.603 380.477L691.28 360.545C680.272 365.141 675.074 377.791 679.67 388.8Z" fill="white"/>
<path d="M711.218 352.221L691.285 360.543L699.608 380.476C710.616 375.879 715.814 363.229 711.218 352.221Z" fill="white"/>
<path d="M735.314 353.861C734.344 351.538 731.152 343.895 731.152 343.895C731.152 343.895 737.937 341.062 741.119 339.733C743.603 338.696 751.085 335.572 751.085 335.572C751.085 335.572 753.986 342.519 755.246 345.538C757.544 351.042 754.945 357.368 749.441 359.666C743.937 361.964 737.612 359.365 735.314 353.861Z" fill="white"/>
<path d="M795.11 328.898C796.079 331.221 799.271 338.864 799.271 338.864C799.271 338.864 792.486 341.697 789.304 343.025C786.82 344.063 779.338 347.186 779.338 347.186C779.338 347.186 776.438 340.24 775.177 337.22C772.879 331.716 775.478 325.391 780.982 323.093C786.486 320.795 792.811 323.394 795.11 328.898Z" fill="white"/>
<path d="M149.819 633.437L169.751 625.114L161.429 605.181C150.42 609.778 145.222 622.428 149.819 633.437Z" fill="white"/>
<path d="M181.366 596.857L161.434 605.18L169.756 625.112L189.689 616.79L181.366 596.857Z" fill="white"/>
<path d="M181.371 596.855L189.694 616.788L209.626 608.466C205.03 597.457 192.38 592.259 181.371 596.855Z" fill="white"/>
<path d="M231.193 576.054C233.516 575.084 241.159 571.892 241.159 571.892C241.159 571.892 243.992 578.677 245.32 581.859C246.357 584.342 249.482 591.825 249.482 591.825C249.482 591.825 242.536 594.725 239.515 595.986C234.009 598.285 227.685 595.683 225.388 590.181C223.09 584.678 225.687 578.353 231.193 576.054Z" fill="white"/>
<path d="M261.081 563.576L241.148 571.898L249.471 591.831C260.479 587.235 265.677 574.584 261.081 563.576Z" fill="white"/>
<path d="M305.114 556.876C304.144 554.554 300.953 546.91 300.953 546.91C300.953 546.91 307.738 544.077 310.919 542.749C313.404 541.712 320.886 538.588 320.886 538.588C320.886 538.588 323.786 545.535 325.047 548.554C327.345 554.058 324.746 560.384 319.242 562.682C313.738 564.98 307.412 562.38 305.114 556.876Z" fill="white"/>
<path d="M608.279 442.019L628.212 433.696L619.89 413.763C608.881 418.36 603.683 431.01 608.279 442.019Z" fill="white"/>
<path d="M639.8 405.431L619.867 413.754L628.19 433.687L648.122 425.364L639.8 405.431Z" fill="white"/>
<path d="M659.737 397.123L639.805 405.445L648.127 425.378L668.06 417.056L659.737 397.123Z" fill="white"/>
<path d="M679.675 388.799L659.742 397.121L668.065 417.054L687.997 408.731L679.675 388.799Z" fill="white"/>
<path d="M699.612 380.474L679.68 388.797L688.002 408.73C699.011 404.133 704.209 391.483 699.612 380.474Z" fill="white"/>
<path d="M799.276 338.861L779.344 347.184L787.666 367.116L807.599 358.794L799.276 338.861Z" fill="white"/>
<path d="M169.745 625.111L149.812 633.434L158.135 653.366L178.068 645.044L169.745 625.111Z" fill="white"/>
<path d="M189.683 616.795L169.75 625.117L178.072 645.05L198.005 636.727L189.683 616.795Z" fill="white"/>
<path d="M209.62 608.478L189.688 616.801L198.01 636.733L217.943 628.411L209.62 608.478Z" fill="white"/>
<path d="M209.617 608.457L217.94 628.39L237.872 620.067C233.276 609.058 220.626 603.861 209.617 608.457Z" fill="white"/>
<path d="M279.376 579.343C284.881 577.044 291.206 579.644 293.504 585.148C295.802 590.652 293.204 596.977 287.699 599.275C282.195 601.574 275.87 598.975 273.571 593.47C271.273 587.966 273.872 581.641 279.376 579.343Z" fill="white"/>
<path d="M359.111 546.054C364.615 543.755 370.94 546.355 373.238 551.859C375.537 557.363 372.938 563.688 367.433 565.986C361.929 568.284 355.604 565.686 353.306 560.181C351.008 554.677 353.607 548.352 359.111 546.054Z" fill="white"/>
<path d="M628.206 433.701L608.273 442.023L616.596 461.956L636.529 453.634L628.206 433.701Z" fill="white"/>
<path d="M736.186 412.007L756.118 403.684L747.796 383.752C736.788 388.348 731.589 400.998 736.186 412.007Z" fill="white"/>
<path d="M767.726 375.439L747.793 383.762L756.115 403.694L776.048 395.372L767.726 375.439Z" fill="white"/>
<path d="M787.663 367.115L767.73 375.438L776.053 395.37L795.986 387.048L787.663 367.115Z" fill="white"/>
<path d="M807.589 358.806L787.656 367.129L795.979 387.062C806.987 382.465 812.185 369.815 807.589 358.806Z" fill="white"/>
<path d="M162.306 663.337C161.336 661.014 158.145 653.371 158.145 653.371C158.145 653.371 164.93 650.538 168.111 649.21C170.595 648.173 178.077 645.049 178.077 645.049C178.077 645.049 180.978 651.996 182.238 655.015C184.536 660.519 181.937 666.845 176.433 669.143C170.929 671.441 164.604 668.841 162.306 663.337Z" fill="white"/>
<path d="M246.197 640.024L237.874 620.092L217.941 628.414C222.538 639.422 235.188 644.621 246.197 640.024Z" fill="white"/>
<path d="M256.168 635.853C253.845 636.823 246.201 640.015 246.201 640.015C246.201 640.015 243.368 633.229 242.04 630.048C241.003 627.564 237.879 620.082 237.879 620.082C237.879 620.082 244.826 617.181 247.845 615.921C253.349 613.623 259.675 616.222 261.973 621.726C264.271 627.23 261.671 633.555 256.168 635.853Z" fill="white"/>
<path d="M305.987 615.042L325.919 606.72L317.597 586.787C306.588 591.383 301.39 604.033 305.987 615.042Z" fill="white"/>
<path d="M337.534 578.478L317.602 586.801L325.924 606.733L345.857 598.411L337.534 578.478Z" fill="white"/>
<path d="M355.828 594.24C353.505 595.21 345.862 598.401 345.862 598.401C345.862 598.401 343.028 591.616 341.7 588.435C340.663 585.951 337.539 578.469 337.539 578.469C337.539 578.469 344.486 575.568 347.505 574.308C353.009 572.01 359.335 574.608 361.633 580.113C363.931 585.616 361.332 591.942 355.828 594.24Z" fill="white"/>
<path d="M604.983 490.218L624.915 481.895L616.593 461.963C605.584 466.559 600.386 479.209 604.983 490.218Z" fill="white"/>
<path d="M636.53 453.638L616.598 461.961L624.92 481.894L644.853 473.571L636.53 453.638Z" fill="white"/>
<path d="M654.804 469.4C652.481 470.37 644.838 473.562 644.838 473.562C644.838 473.562 642.005 466.776 640.677 463.595C639.64 461.111 636.516 453.629 636.516 453.629C636.516 453.629 643.463 450.728 646.482 449.468C651.986 447.17 658.311 449.769 660.61 455.273C662.908 460.777 660.308 467.102 654.804 469.4Z" fill="white"/>
<path d="M684.713 456.909L704.646 448.587L696.323 428.654C685.315 433.25 680.117 445.9 684.713 456.909Z" fill="white"/>
<path d="M696.312 428.66L704.635 448.593L724.568 440.27C719.971 429.262 707.321 424.064 696.312 428.66Z" fill="white"/>
<path d="M756.12 403.701L736.188 412.023L744.51 431.956L764.443 423.634L756.12 403.701Z" fill="white"/>
<path d="M776.05 395.377L756.117 403.699L764.44 423.632L784.372 415.309L776.05 395.377Z" fill="white"/>
<path d="M795.987 387.06L776.055 395.383L784.377 415.315L804.31 406.993L795.987 387.06Z" fill="white"/>
<path d="M194.713 684.917L214.646 676.595L206.323 656.662C195.315 661.258 190.117 673.908 194.713 684.917Z" fill="white"/>
<path d="M206.316 656.648L214.639 676.581L234.572 668.259C229.975 657.25 217.325 652.052 206.316 656.648Z" fill="white"/>
<path d="M274.451 651.628L294.384 643.306L286.062 623.373C275.053 627.969 269.855 640.619 274.451 651.628Z" fill="white"/>
<path d="M305.995 615.049L286.062 623.371L294.385 643.304L314.318 634.981L305.995 615.049Z" fill="white"/>
<path d="M325.921 606.724L305.988 615.047L314.311 634.98L334.243 626.657L325.921 606.724Z" fill="white"/>
<path d="M345.87 598.416L325.938 606.738L334.26 626.671C345.268 622.075 350.466 609.424 345.87 598.416Z" fill="white"/>
<path d="M389.887 591.718C390.857 594.041 394.048 601.684 394.048 601.684C394.048 601.684 387.263 604.517 384.082 605.845C381.597 606.883 374.115 610.006 374.115 610.006C374.115 610.006 371.215 603.06 369.954 600.041C367.656 594.536 370.255 588.211 375.759 585.913C381.263 583.615 387.589 586.214 389.887 591.718Z" fill="white"/>
<path d="M624.917 481.892L604.984 490.215L613.307 510.148L633.239 501.825L624.917 481.892Z" fill="white"/>
<path d="M674.744 461.069C677.067 460.099 684.71 456.908 684.71 456.908C684.71 456.908 687.543 463.692 688.871 466.874C689.908 469.358 693.032 476.841 693.032 476.841C693.032 476.841 686.087 479.741 683.066 481.002C677.56 483.301 671.236 480.699 668.939 475.197C666.641 469.694 669.237 463.368 674.744 461.069Z" fill="white"/>
<path d="M704.64 448.592L684.707 456.914L693.029 476.847L712.962 468.524L704.64 448.592Z" fill="white"/>
<path d="M724.577 440.267L704.645 448.59L712.967 468.523L732.9 460.2L724.577 440.267Z" fill="white"/>
<path d="M744.507 431.943L724.574 440.266L732.897 460.198L752.829 451.876L744.507 431.943Z" fill="white"/>
<path d="M764.444 423.638L744.512 431.961L752.834 451.894C763.843 447.297 769.041 434.647 764.444 423.638Z" fill="white"/>
<path d="M804.308 406.986L784.375 415.309L792.697 435.241L812.63 426.919L804.308 406.986Z" fill="white"/>
<path d="M822.597 422.76C820.274 423.73 812.631 426.921 812.631 426.921C812.631 426.921 809.798 420.135 808.47 416.955C807.433 414.47 804.309 406.988 804.309 406.988C804.309 406.988 811.256 404.088 814.275 402.827C819.779 400.529 826.104 403.128 828.402 408.632C830.7 414.136 828.101 420.462 822.597 422.76Z" fill="white"/>
<path d="M183.108 713.171L203.04 704.849L194.718 684.916C183.709 689.512 178.511 702.162 183.108 713.171Z" fill="white"/>
<path d="M214.655 676.588L194.723 684.91L203.045 704.843L222.978 696.52L214.655 676.588Z" fill="white"/>
<path d="M234.577 668.263L214.645 676.586L222.967 696.519L242.9 688.196L234.577 668.263Z" fill="white"/>
<path d="M252.879 684.033C250.556 685.003 242.912 688.194 242.912 688.194C242.912 688.194 240.079 681.409 238.751 678.228C237.714 675.744 234.59 668.262 234.59 668.262C234.59 668.262 241.537 665.361 244.556 664.1C250.06 661.803 256.386 664.401 258.684 669.906C260.982 675.409 258.382 681.735 252.879 684.033Z" fill="white"/>
<path d="M278.61 661.587C277.641 659.264 274.449 651.621 274.449 651.621C274.449 651.621 281.234 648.788 284.416 647.46C286.9 646.423 294.382 643.299 294.382 643.299C294.382 643.299 297.282 650.246 298.543 653.265C300.841 658.769 298.242 665.095 292.738 667.393C287.234 669.691 280.908 667.091 278.61 661.587Z" fill="white"/>
<path d="M378.271 619.986C377.301 617.663 374.109 610.02 374.109 610.02C374.109 610.02 380.894 607.187 384.076 605.858C386.56 604.821 394.042 601.697 394.042 601.697C394.042 601.697 396.943 608.644 398.203 611.663C400.501 617.167 397.902 623.493 392.398 625.791C386.894 628.089 380.569 625.49 378.271 619.986Z" fill="white"/>
<path d="M633.241 501.81L613.309 510.133L621.631 530.065L641.564 521.743L633.241 501.81Z" fill="white"/>
<path d="M663.142 489.343C668.647 487.044 674.972 489.644 677.27 495.148C679.568 500.652 676.969 506.977 671.465 509.275C665.96 511.574 659.635 508.975 657.337 503.47C655.039 497.966 657.638 491.641 663.142 489.343Z" fill="white"/>
<path d="M697.192 486.81C696.223 484.487 693.031 476.844 693.031 476.844C693.031 476.844 699.816 474.011 702.998 472.683C705.482 471.645 712.964 468.521 712.964 468.521C712.964 468.521 715.864 475.468 717.125 478.488C719.423 483.991 716.824 490.317 711.32 492.615C705.816 494.913 699.49 492.314 697.192 486.81Z" fill="white"/>
<path d="M737.06 470.169C736.09 467.847 732.898 460.203 732.898 460.203C732.898 460.203 739.684 457.37 742.865 456.042C745.349 455.005 752.831 451.881 752.831 451.881C752.831 451.881 755.732 458.828 756.992 461.847C759.29 467.351 756.691 473.677 751.187 475.975C745.683 478.273 739.358 475.673 737.06 470.169Z" fill="white"/>
<path d="M781.08 463.487L801.013 455.165L792.69 435.232C781.682 439.829 776.484 452.479 781.08 463.487Z" fill="white"/>
<path d="M812.636 426.908L792.703 435.23L801.026 455.163L820.958 446.841L812.636 426.908Z" fill="white"/>
<path d="M203.042 704.842L183.109 713.164L191.432 733.097L211.364 724.774L203.042 704.842Z" fill="white"/>
<path d="M227.13 706.494C226.16 704.171 222.969 696.527 222.969 696.527C222.969 696.527 229.754 693.694 232.935 692.366C235.419 691.329 242.901 688.205 242.901 688.205C242.901 688.205 245.802 695.152 247.063 698.171C249.361 703.675 246.761 710.001 241.258 712.299C235.753 714.597 229.428 711.997 227.13 706.494Z" fill="white"/>
<path d="M312.666 659.073C318.17 656.775 324.495 659.374 326.793 664.878C329.091 670.383 326.493 676.708 320.988 679.006C315.484 681.304 309.159 678.705 306.86 673.201C304.562 667.697 307.161 661.371 312.666 659.073Z" fill="white"/>
<path d="M412.33 617.472C417.834 615.173 424.159 617.773 426.457 623.277C428.755 628.781 426.157 635.106 420.652 637.404C415.148 639.702 408.823 637.104 406.525 631.599C404.226 626.095 406.825 619.77 412.33 617.472Z" fill="white"/>
<path d="M490.428 608.249L510.361 599.927L502.038 579.994C491.03 584.59 485.831 597.24 490.428 608.249Z" fill="white"/>
<path d="M520.312 595.791C517.989 596.761 510.346 599.952 510.346 599.952C510.346 599.952 507.513 593.167 506.185 589.986C505.147 587.501 502.023 580.02 502.023 580.02C502.023 580.02 508.97 577.119 511.99 575.858C517.494 573.56 523.819 576.159 526.117 581.663C528.415 587.167 525.816 593.493 520.312 595.791Z" fill="white"/>
<path d="M551.857 559.21C557.362 556.912 563.686 559.511 565.985 565.015C568.283 570.52 565.684 576.844 560.179 579.143C554.675 581.441 548.35 578.842 546.052 573.337C543.754 567.833 546.353 561.508 551.857 559.21Z" fill="white"/>
<path d="M641.558 521.756L621.625 530.078L629.947 550.011L649.88 541.688L641.558 521.756Z" fill="white"/>
<path d="M731.251 484.296C736.756 481.997 743.081 484.597 745.379 490.101C747.677 495.606 745.079 501.93 739.574 504.228C734.07 506.527 727.745 503.928 725.446 498.423C723.148 492.919 725.747 486.594 731.251 484.296Z" fill="white"/>
<path d="M801.023 455.17L781.09 463.492L789.412 483.425L809.345 475.102L801.023 455.17Z" fill="white"/>
<path d="M820.952 446.853L801.02 455.176L809.342 475.108L829.275 466.786L820.952 446.853Z" fill="white"/>
<path d="M211.358 724.771L191.426 733.094L199.748 753.026L219.681 744.704L211.358 724.771Z" fill="white"/>
<path d="M261.189 703.968C266.694 701.669 273.018 704.269 275.317 709.773C277.615 715.277 275.016 721.602 269.511 723.9C264.007 726.199 257.682 723.6 255.384 718.095C253.086 712.591 255.685 706.266 261.189 703.968Z" fill="white"/>
<path d="M315.188 693.132C316.158 695.455 319.349 703.099 319.349 703.099C319.349 703.099 312.564 705.931 309.382 707.259C306.898 708.297 299.416 711.421 299.416 711.421C299.416 711.421 296.516 704.474 295.255 701.455C292.957 695.95 295.556 689.625 301.06 687.327C306.564 685.029 312.889 687.628 315.188 693.132Z" fill="white"/>
<path d="M355.047 676.495C356.017 678.818 359.208 686.462 359.208 686.462C359.208 686.462 352.424 689.295 349.242 690.623C346.757 691.66 339.275 694.784 339.275 694.784C339.275 694.784 336.375 687.838 335.114 684.818C332.817 679.314 335.415 672.989 340.919 670.691C346.423 668.392 352.749 670.991 355.047 676.495Z" fill="white"/>
<path d="M380.794 654.038C383.117 653.068 390.761 649.877 390.761 649.877C390.761 649.877 393.593 656.661 394.922 659.843C395.959 662.327 399.083 669.809 399.083 669.809C399.083 669.809 392.138 672.709 389.117 673.971C383.611 676.27 377.287 673.668 374.989 668.166C372.692 662.663 375.288 656.337 380.794 654.038Z" fill="white"/>
<path d="M390.758 649.895L399.08 669.827L419.013 661.505C414.416 650.496 401.766 645.298 390.758 649.895Z" fill="white"/>
<path d="M478.803 636.523L498.736 628.2L490.413 608.267C479.405 612.864 474.206 625.514 478.803 636.523Z" fill="white"/>
<path d="M510.343 599.947L490.41 608.27L498.733 628.202C509.741 623.606 514.939 610.956 510.343 599.947Z" fill="white"/>
<path d="M634.11 559.974C633.141 557.651 629.949 550.008 629.949 550.008C629.949 550.008 636.734 547.175 639.916 545.847C642.4 544.809 649.882 541.685 649.882 541.685C649.882 541.685 652.782 548.632 654.043 551.652C656.341 557.156 653.742 563.481 648.238 565.779C642.734 568.077 636.408 565.478 634.11 559.974Z" fill="white"/>
<path d="M693.91 535.003C694.88 537.326 698.072 544.97 698.072 544.97C698.072 544.97 691.287 547.802 688.105 549.13C685.621 550.168 678.139 553.292 678.139 553.292C678.139 553.292 675.238 546.346 673.978 543.326C671.68 537.821 674.279 531.496 679.782 529.198C685.287 526.9 691.612 529.499 693.91 535.003Z" fill="white"/>
<path d="M779.443 487.593C781.766 486.623 789.409 483.431 789.409 483.431C789.409 483.431 792.242 490.216 793.57 493.398C794.607 495.881 797.732 503.364 797.732 503.364C797.732 503.364 790.786 506.264 787.765 507.525C782.259 509.824 775.935 507.222 773.638 501.72C771.34 496.217 773.937 489.892 779.443 487.593Z" fill="white"/>
<path d="M809.339 475.107L789.406 483.43L797.729 503.362L817.661 495.04L809.339 475.107Z" fill="white"/>
<path d="M829.276 466.791L809.344 475.113L817.666 495.046L837.599 486.724L829.276 466.791Z" fill="white"/>
<path d="M228.013 764.649L219.69 744.717L199.758 753.039C204.354 764.047 217.004 769.246 228.013 764.649Z" fill="white"/>
<path d="M237.968 760.486C235.646 761.456 228.002 764.648 228.002 764.648C228.002 764.648 225.169 757.862 223.841 754.681C222.804 752.197 219.68 744.715 219.68 744.715C219.68 744.715 226.627 741.814 229.646 740.554C235.15 738.256 241.475 740.855 243.774 746.359C246.072 751.863 243.472 758.188 237.968 760.486Z" fill="white"/>
<path d="M327.665 723.028L319.343 703.096L299.41 711.418C304.006 722.426 316.656 727.625 327.665 723.028Z" fill="white"/>
<path d="M339.284 694.779L319.352 703.102L327.674 723.034L347.607 714.712L339.284 694.779Z" fill="white"/>
<path d="M359.21 686.467L339.277 694.789L347.6 714.722L367.532 706.399L359.21 686.467Z" fill="white"/>
<path d="M359.215 686.453L367.537 706.386L387.47 698.063C382.873 687.055 370.223 681.857 359.215 686.453Z" fill="white"/>
<path d="M427.337 681.415L419.015 661.482L399.082 669.805C403.678 680.813 416.328 686.011 427.337 681.415Z" fill="white"/>
<path d="M437.3 677.26C434.978 678.23 427.334 681.421 427.334 681.421C427.334 681.421 424.501 674.635 423.173 671.455C422.136 668.97 419.012 661.488 419.012 661.488C419.012 661.488 425.959 658.588 428.978 657.327C434.482 655.029 440.807 657.628 443.106 663.132C445.404 668.636 442.804 674.962 437.3 677.26Z" fill="white"/>
<path d="M482.97 646.49C482 644.167 478.809 636.523 478.809 636.523C478.809 636.523 485.594 633.69 488.775 632.362C491.259 631.325 498.741 628.201 498.741 628.201C498.741 628.201 501.642 635.148 502.902 638.167C505.2 643.671 502.601 649.997 497.097 652.295C491.593 654.593 485.268 651.994 482.97 646.49Z" fill="white"/>
<path d="M568.505 599.073C574.01 596.775 580.335 599.374 582.633 604.878C584.931 610.383 582.332 616.708 576.828 619.006C571.324 621.304 564.999 618.705 562.7 613.201C560.402 607.697 563.001 601.371 568.505 599.073Z" fill="white"/>
<path d="M622.492 588.222C623.462 590.545 626.654 598.188 626.654 598.188C626.654 598.188 619.869 601.021 616.687 602.349C614.203 603.387 606.721 606.51 606.721 606.51C606.721 606.51 603.821 599.564 602.56 596.544C600.262 591.04 602.861 584.715 608.364 582.417C613.869 580.119 620.194 582.718 622.492 588.222Z" fill="white"/>
<path d="M668.177 557.468C670.5 556.498 678.144 553.306 678.144 553.306C678.144 553.306 680.976 560.091 682.305 563.273C683.342 565.756 686.466 573.239 686.466 573.239C686.466 573.239 679.521 576.139 676.5 577.4C670.994 579.699 664.669 577.097 662.372 571.595C660.074 566.092 662.671 559.767 668.177 557.468Z" fill="white"/>
<path d="M698.069 544.974L678.137 553.297L686.459 573.23L706.392 564.907L698.069 544.974Z" fill="white"/>
<path d="M717.999 536.642L698.066 544.965L706.389 564.898L726.322 556.575L717.999 536.642Z" fill="white"/>
<path d="M737.94 528.326L718.008 536.648L726.33 556.581L746.263 548.259L737.94 528.326Z" fill="white"/>
<path d="M757.866 520.002L737.934 528.324L746.256 548.257L766.189 539.934L757.866 520.002Z" fill="white"/>
<path d="M757.871 520L766.194 539.933L786.126 531.61C781.53 520.601 768.88 515.404 757.871 520Z" fill="white"/>
<path d="M821.837 505.001C820.867 502.679 817.676 495.035 817.676 495.035C817.676 495.035 824.461 492.202 827.642 490.874C830.127 489.837 837.608 486.713 837.608 486.713C837.608 486.713 840.509 493.66 841.77 496.679C844.068 502.183 841.468 508.509 835.965 510.807C830.46 513.105 824.135 510.505 821.837 505.001Z" fill="white"/>
<path d="M371.7 716.365C370.73 714.042 367.539 706.398 367.539 706.398C367.539 706.398 374.324 703.565 377.505 702.237C379.99 701.2 387.472 698.076 387.472 698.076C387.472 698.076 390.372 705.023 391.633 708.042C393.931 713.546 391.332 719.872 385.828 722.17C380.324 724.468 373.998 721.869 371.7 716.365Z" fill="white"/>
<path d="M457.24 668.948C462.744 666.65 469.069 669.249 471.367 674.753C473.666 680.258 471.067 686.583 465.562 688.881C460.058 691.179 453.733 688.58 451.435 683.076C449.136 677.572 451.736 671.246 457.24 668.948Z" fill="white"/>
<path d="M517.029 643.968C519.352 642.998 526.995 639.806 526.995 639.806C526.995 639.806 529.828 646.591 531.156 649.773C532.193 652.256 535.318 659.739 535.318 659.739C535.318 659.739 528.372 662.639 525.351 663.9C519.845 666.199 513.521 663.597 511.224 658.095C508.926 652.592 511.523 646.267 517.029 643.968Z" fill="white"/>
<path d="M546.929 631.498L526.996 639.82L535.319 659.753L555.251 651.431L546.929 631.498Z" fill="white"/>
<path d="M565.222 647.26C562.899 648.23 555.256 651.421 555.256 651.421C555.256 651.421 552.423 644.635 551.095 641.455C550.058 638.97 546.934 631.488 546.934 631.488C546.934 631.488 553.881 628.588 556.9 627.327C562.404 625.029 568.729 627.628 571.027 633.132C573.325 638.636 570.726 644.962 565.222 647.26Z" fill="white"/>
<path d="M634.978 618.145L626.655 598.213L606.723 606.535C611.319 617.544 623.969 622.742 634.978 618.145Z" fill="white"/>
<path d="M644.949 613.963C642.626 614.933 634.983 618.124 634.983 618.124C634.983 618.124 632.149 611.339 630.821 608.158C629.784 605.673 626.66 598.191 626.66 598.191C626.66 598.191 633.607 595.291 636.626 594.03C642.13 591.732 648.456 594.331 650.754 599.835C653.052 605.339 650.453 611.665 644.949 613.963Z" fill="white"/>
<path d="M706.405 564.904L686.473 573.227L694.795 593.159L714.728 584.837L706.405 564.904Z" fill="white"/>
<path d="M786.128 531.623L766.195 539.945L774.518 559.878L794.45 551.556L786.128 531.623Z" fill="white"/>
<path d="M855.888 502.487C861.393 500.189 867.718 502.788 870.016 508.292C872.314 513.797 869.715 520.122 864.211 522.42C858.706 524.718 852.381 522.119 850.083 516.615C847.785 511.111 850.384 504.785 855.888 502.487Z" fill="white"/>
<path d="M405.759 713.835C408.082 712.865 415.726 709.674 415.726 709.674C415.726 709.674 418.558 716.458 419.887 719.64C420.924 722.124 424.048 729.606 424.048 729.606C424.048 729.606 417.103 732.506 414.082 733.768C408.576 736.067 402.252 733.465 399.954 727.962C397.657 722.459 400.253 716.134 405.759 713.835Z" fill="white"/>
<path d="M435.655 701.349L415.723 709.672L424.045 729.605L443.978 721.282L435.655 701.349Z" fill="white"/>
<path d="M453.941 717.119C451.618 718.089 443.975 721.28 443.975 721.28C443.975 721.28 441.142 714.495 439.814 711.314C438.776 708.83 435.652 701.348 435.652 701.348C435.652 701.348 442.599 698.447 445.619 697.186C451.122 694.888 457.448 697.487 459.746 702.992C462.044 708.495 459.445 714.821 453.941 717.119Z" fill="white"/>
<path d="M599.281 644.745C600.251 647.068 603.443 654.712 603.443 654.712C603.443 654.712 596.658 657.545 593.476 658.873C590.992 659.91 583.51 663.034 583.51 663.034C583.51 663.034 580.61 656.088 579.349 653.068C577.051 647.564 579.65 641.239 585.153 638.941C590.658 636.642 596.983 639.241 599.281 644.745Z" fill="white"/>
<path d="M663.233 629.73L683.165 621.407L674.843 601.474C663.834 606.071 658.636 618.721 663.233 629.73Z" fill="white"/>
<path d="M694.784 593.166L674.852 601.488L683.174 621.421L703.107 613.099L694.784 593.166Z" fill="white"/>
<path d="M714.71 584.842L694.777 593.164L703.1 613.097L723.032 604.774L714.71 584.842Z" fill="white"/>
<path d="M744.611 572.362C750.115 570.064 756.44 572.663 758.738 578.167C761.037 583.672 758.438 589.997 752.933 592.295C747.429 594.593 741.104 591.994 738.806 586.49C736.508 580.986 739.107 574.66 744.611 572.362Z" fill="white"/>
<path d="M794.444 551.553L774.512 559.875L782.834 579.808L802.767 571.485L794.444 551.553Z" fill="white"/>
<path d="M822.69 563.155L842.622 554.833L834.3 534.9C823.291 539.497 818.093 552.147 822.69 563.155Z" fill="white"/>
<path d="M834.305 534.902L842.627 554.835L862.56 546.513C857.963 535.504 845.313 530.306 834.305 534.902Z" fill="white"/>
<path d="M394.146 742.081C399.651 739.783 405.975 742.382 408.274 747.886C410.572 753.391 407.973 759.715 402.468 762.014C396.964 764.312 390.639 761.713 388.341 756.209C386.043 750.704 388.642 744.379 394.146 742.081Z" fill="white"/>
<path d="M492.166 724.577L512.099 716.255L503.776 696.322C492.768 700.918 487.57 713.568 492.166 724.577Z" fill="white"/>
<path d="M523.714 687.99L503.781 696.312L512.104 716.245L532.036 707.923L523.714 687.99Z" fill="white"/>
<path d="M523.707 688.004L532.029 707.937L551.962 699.614C547.366 688.605 534.715 683.408 523.707 688.004Z" fill="white"/>
<path d="M571.901 691.28L591.833 682.958L583.511 663.025C572.502 667.622 567.304 680.272 571.901 691.28Z" fill="white"/>
<path d="M603.444 654.701L583.512 663.023L591.834 682.956C602.843 678.36 608.041 665.709 603.444 654.701Z" fill="white"/>
<path d="M633.337 642.237C635.66 641.267 643.304 638.076 643.304 638.076C643.304 638.076 646.136 644.86 647.465 648.042C648.502 650.526 651.626 658.009 651.626 658.009C651.626 658.009 644.681 660.909 641.66 662.17C636.154 664.469 629.83 661.867 627.532 656.365C625.235 650.862 627.831 644.536 633.337 642.237Z" fill="white"/>
<path d="M663.233 629.744L643.301 638.066L651.623 657.999L671.556 649.677L663.233 629.744Z" fill="white"/>
<path d="M683.171 621.42L663.238 629.742L671.561 649.675L691.493 641.352L683.171 621.42Z" fill="white"/>
<path d="M723.034 604.771L703.102 613.094L711.424 633.026L731.357 624.704L723.034 604.771Z" fill="white"/>
<path d="M802.769 571.482L782.836 579.805L791.158 599.737L811.091 591.415L802.769 571.482Z" fill="white"/>
<path d="M822.706 563.166L802.773 571.488L811.096 591.421L831.029 583.099L822.706 563.166Z" fill="white"/>
<path d="M842.636 554.834L822.703 563.156L831.026 583.089L850.958 574.766L842.636 554.834Z" fill="white"/>
<path d="M862.573 546.506L842.641 554.828L850.963 574.761L870.896 566.438L862.573 546.506Z" fill="white"/>
<path d="M420.756 777.796L440.689 769.474L432.366 749.541C421.358 754.137 416.16 766.787 420.756 777.796Z" fill="white"/>
<path d="M432.371 749.547L440.694 769.48L460.626 761.157C456.03 750.148 443.38 744.951 432.371 749.547Z" fill="white"/>
<path d="M482.197 728.737C484.52 727.767 492.163 724.576 492.163 724.576C492.163 724.576 494.996 731.36 496.324 734.542C497.361 737.026 500.486 744.509 500.486 744.509C500.486 744.509 493.54 747.409 490.519 748.67C485.013 750.969 478.689 748.367 476.392 742.865C474.094 737.362 476.691 731.036 482.197 728.737Z" fill="white"/>
<path d="M512.097 716.26L492.164 724.582L500.487 744.515L520.419 736.192L512.097 716.26Z" fill="white"/>
<path d="M532.03 707.935L512.098 716.258L520.42 736.19L540.353 727.868L532.03 707.935Z" fill="white"/>
<path d="M551.976 699.592L532.043 707.914L540.365 727.847C551.374 723.25 556.572 710.6 551.976 699.592Z" fill="white"/>
<path d="M576.06 701.251C575.09 698.929 571.898 691.285 571.898 691.285C571.898 691.285 578.684 688.452 581.865 687.124C584.349 686.087 591.831 682.963 591.831 682.963C591.831 682.963 594.732 689.91 595.992 692.929C598.29 698.433 595.691 704.759 590.187 707.057C584.683 709.355 578.358 706.755 576.06 701.251Z" fill="white"/>
<path d="M635.86 676.288C636.829 678.611 640.021 686.255 640.021 686.255C640.021 686.255 633.236 689.088 630.054 690.416C627.57 691.453 620.088 694.577 620.088 694.577C620.088 694.577 617.188 687.631 615.927 684.611C613.629 679.106 616.228 672.781 621.732 670.483C627.236 668.185 633.561 670.784 635.86 676.288Z" fill="white"/>
<path d="M671.558 649.674L651.625 657.996L659.947 677.929L679.88 669.606L671.558 649.674Z" fill="white"/>
<path d="M691.487 641.349L671.555 649.672L679.877 669.605C690.886 665.008 696.084 652.358 691.487 641.349Z" fill="white"/>
<path d="M731.37 624.701L711.438 633.023L719.76 652.956L739.693 644.634L731.37 624.701Z" fill="white"/>
<path d="M751.3 616.385L731.367 624.707L739.69 644.64L759.622 636.317L751.3 616.385Z" fill="white"/>
<path d="M771.226 608.06L751.293 616.383L759.615 636.315L779.548 627.993L771.226 608.06Z" fill="white"/>
<path d="M791.155 599.752L771.223 608.074L779.545 628.007L799.478 619.684L791.155 599.752Z" fill="white"/>
<path d="M811.093 591.42L791.16 599.742L799.483 619.675L819.415 611.352L811.093 591.42Z" fill="white"/>
<path d="M831.023 583.096L811.09 591.418L819.412 611.351L839.345 603.028L831.023 583.096Z" fill="white"/>
<path d="M870.89 566.455L850.957 574.777L859.279 594.71L879.212 586.388L870.89 566.455Z" fill="white"/>
<path d="M889.183 582.217C886.86 583.187 879.217 586.378 879.217 586.378C879.217 586.378 876.384 579.593 875.056 576.412C874.018 573.927 870.895 566.445 870.895 566.445C870.895 566.445 877.841 563.545 880.861 562.284C886.365 559.986 892.69 562.585 894.988 568.089C897.286 573.593 894.687 579.919 889.183 582.217Z" fill="white"/>
<path d="M449.025 789.419L440.702 769.486L420.77 777.809C425.366 788.817 438.016 794.015 449.025 789.419Z" fill="white"/>
<path d="M460.62 761.154L440.688 769.477L449.01 789.409L468.943 781.087L460.62 761.154Z" fill="white"/>
<path d="M570.255 715.366C575.76 713.068 582.085 715.667 584.383 721.171C586.681 726.676 584.082 733 578.578 735.299C573.074 737.597 566.749 734.998 564.45 729.494C562.152 723.989 564.751 717.664 570.255 715.366Z" fill="white"/>
<path d="M640.015 686.252L620.082 694.574L628.404 714.507L648.337 706.184L640.015 686.252Z" fill="white"/>
<path d="M664.11 687.892C663.141 685.569 659.949 677.926 659.949 677.926C659.949 677.926 666.734 675.093 669.916 673.765C672.4 672.727 679.882 669.603 679.882 669.603C679.882 669.603 682.782 676.55 684.043 679.57C686.341 685.073 683.742 691.399 678.238 693.697C672.734 695.995 666.408 693.396 664.11 687.892Z" fill="white"/>
<path d="M708.147 681.233L728.079 672.911L719.757 652.978C708.748 657.575 703.55 670.225 708.147 681.233Z" fill="white"/>
<path d="M739.683 644.638L719.75 652.961L728.072 672.894L748.005 664.571L739.683 644.638Z" fill="white"/>
<path d="M759.632 636.322L739.699 644.645L748.022 664.577C759.03 659.981 764.228 647.331 759.632 636.322Z" fill="white"/>
<path d="M807.802 639.606L799.48 619.674L779.547 627.996C784.143 639.005 796.793 644.203 807.802 639.606Z" fill="white"/>
<path d="M819.409 611.349L799.477 619.672L807.799 639.605L827.732 631.282L819.409 611.349Z" fill="white"/>
<path d="M839.347 603.041L819.414 611.363L827.737 631.296L847.669 622.974L839.347 603.041Z" fill="white"/>
<path d="M879.21 586.385L859.277 594.707L867.6 614.64L887.532 606.317L879.21 586.385Z" fill="white"/>
<path d="M477.275 801.016L468.952 781.084L449.02 789.406C453.616 800.415 466.266 805.613 477.275 801.016Z" fill="white"/>
<path d="M468.934 781.09L477.256 801.023L497.189 792.7C492.592 781.691 479.942 776.494 468.934 781.09Z" fill="white"/>
<path d="M538.712 751.944C544.217 749.646 550.542 752.245 552.84 757.749C555.138 763.254 552.539 769.579 547.035 771.877C541.531 774.175 535.206 771.576 532.907 766.072C530.609 760.568 533.208 754.242 538.712 751.944Z" fill="white"/>
<path d="M612.641 732.792C613.611 735.115 616.802 742.759 616.802 742.759C616.802 742.759 610.017 745.591 606.835 746.919C604.351 747.957 596.869 751.081 596.869 751.081C596.869 751.081 593.969 744.135 592.708 741.115C590.41 735.61 593.009 729.285 598.513 726.987C604.017 724.689 610.343 727.288 612.641 732.792Z" fill="white"/>
<path d="M632.567 724.459C631.598 722.136 628.406 714.492 628.406 714.492C628.406 714.492 635.191 711.659 638.373 710.331C640.857 709.294 648.339 706.17 648.339 706.17C648.339 706.17 651.239 713.117 652.5 716.136C654.798 721.64 652.199 727.966 646.695 730.264C641.191 732.562 634.865 729.962 632.567 724.459Z" fill="white"/>
<path d="M712.302 691.189C711.332 688.866 708.141 681.223 708.141 681.223C708.141 681.223 714.926 678.39 718.107 677.061C720.591 676.024 728.073 672.9 728.073 672.9C728.073 672.9 730.974 679.847 732.235 682.867C734.533 688.37 731.933 694.696 726.429 696.994C720.925 699.292 714.6 696.693 712.302 691.189Z" fill="white"/>
<path d="M836.056 651.216L827.733 631.283L807.801 639.605C812.397 650.614 825.047 655.812 836.056 651.216Z" fill="white"/>
<path d="M847.663 622.951L827.73 631.273L836.053 651.206L855.986 642.884L847.663 622.951Z" fill="white"/>
<path d="M895.861 626.247L887.538 606.314L867.605 614.637C872.202 625.645 884.852 630.843 895.861 626.247Z" fill="white"/>
<path d="M905.804 622.072C903.481 623.042 895.838 626.233 895.838 626.233C895.838 626.233 893.005 619.448 891.677 616.267C890.64 613.783 887.516 606.301 887.516 606.301C887.516 606.301 894.463 603.4 897.482 602.14C902.986 599.842 909.311 602.44 911.61 607.945C913.908 613.448 911.308 619.774 905.804 622.072Z" fill="white"/>
<path d="M461.492 819.312C462.462 821.635 465.654 829.278 465.654 829.278C465.654 829.278 458.869 832.111 455.687 833.439C453.203 834.477 445.721 837.6 445.721 837.6C445.721 837.6 442.821 830.654 441.56 827.634C439.262 822.13 441.861 815.805 447.364 813.507C452.869 811.209 459.194 813.808 461.492 819.312Z" fill="white"/>
<path d="M497.206 792.693L477.273 801.016L485.596 820.948L505.529 812.626L497.206 792.693Z" fill="white"/>
<path d="M566.97 763.558C569.293 762.588 576.937 759.396 576.937 759.396C576.937 759.396 579.769 766.181 581.098 769.363C582.135 771.846 585.259 779.329 585.259 779.329C585.259 779.329 578.314 782.229 575.293 783.49C569.786 785.789 563.462 783.187 561.165 777.685C558.867 772.182 561.464 765.857 566.97 763.558Z" fill="white"/>
<path d="M596.87 751.092L576.938 759.414L585.26 779.347L605.193 771.024L596.87 751.092Z" fill="white"/>
<path d="M616.796 742.756L596.863 751.078L605.186 771.011L625.118 762.688L616.796 742.756Z" fill="white"/>
<path d="M635.082 758.533C632.759 759.503 625.115 762.694 625.115 762.694C625.115 762.694 622.282 755.909 620.954 752.728C619.917 750.244 616.793 742.762 616.793 742.762C616.793 742.762 623.74 739.861 626.759 738.6C632.263 736.303 638.589 738.901 640.887 744.406C643.185 749.909 640.586 756.235 635.082 758.533Z" fill="white"/>
<path d="M720.621 711.109C721.591 713.432 724.782 721.075 724.782 721.075C724.782 721.075 717.998 723.908 714.816 725.236C712.332 726.274 704.85 729.397 704.85 729.397C704.85 729.397 701.949 722.451 700.689 719.431C698.391 713.927 700.989 707.602 706.493 705.304C711.997 703.006 718.323 705.605 720.621 711.109Z" fill="white"/>
<path d="M840.216 661.185C839.246 658.862 836.055 651.219 836.055 651.219C836.055 651.219 842.84 648.386 846.021 647.058C848.505 646.02 855.987 642.896 855.987 642.896C855.987 642.896 858.888 649.843 860.149 652.863C862.447 658.366 859.847 664.692 854.343 666.99C848.839 669.288 842.514 666.689 840.216 661.185Z" fill="white"/>
<path d="M449.884 847.56C448.914 845.237 445.723 837.594 445.723 837.594C445.723 837.594 452.508 834.761 455.689 833.433C458.173 832.395 465.655 829.271 465.655 829.271C465.655 829.271 468.556 836.218 469.817 839.238C472.115 844.741 469.515 851.067 464.011 853.365C458.507 855.663 452.182 853.064 449.884 847.56Z" fill="white"/>
<path d="M513.853 832.556L505.53 812.623L485.598 820.945C490.194 831.954 502.844 837.152 513.853 832.556Z" fill="white"/>
<path d="M523.816 828.393C521.493 829.362 513.85 832.554 513.85 832.554C513.85 832.554 511.017 825.768 509.689 822.587C508.651 820.103 505.527 812.621 505.527 812.621C505.527 812.621 512.474 809.721 515.494 808.46C520.997 806.162 527.323 808.761 529.621 814.265C531.919 819.769 529.32 826.095 523.816 828.393Z" fill="white"/>
<path d="M555.361 791.819C560.865 789.521 567.19 792.12 569.488 797.624C571.787 803.129 569.188 809.454 563.683 811.752C558.179 814.05 551.854 811.451 549.556 805.947C547.258 800.443 549.857 794.117 555.361 791.819Z" fill="white"/>
<path d="M589.423 789.298C588.453 786.975 585.262 779.332 585.262 779.332C585.262 779.332 592.047 776.499 595.228 775.171C597.712 774.134 605.194 771.01 605.194 771.01C605.194 771.01 608.095 777.957 609.356 780.976C611.654 786.48 609.054 792.805 603.55 795.103C598.046 797.402 591.721 794.802 589.423 789.298Z" fill="white"/>
<path d="M655.021 750.206C657.344 749.236 664.987 746.045 664.987 746.045C664.987 746.045 667.82 752.829 669.149 756.011C670.186 758.495 673.31 765.977 673.31 765.977C673.31 765.977 666.364 768.877 663.343 770.139C657.837 772.438 651.513 769.836 649.216 764.334C646.918 758.831 649.515 752.505 655.021 750.206Z" fill="white"/>
<path d="M683.273 761.822C680.95 762.792 673.307 765.983 673.307 765.983C673.307 765.983 670.474 759.198 669.146 756.017C668.108 753.533 664.984 746.051 664.984 746.051C664.984 746.051 671.931 743.15 674.951 741.89C680.455 739.592 686.78 742.19 689.078 747.695C691.376 753.198 688.777 759.524 683.273 761.822Z" fill="white"/>
<path d="M733.107 741.005L724.784 721.072L704.852 729.395C709.448 740.403 722.098 745.601 733.107 741.005Z" fill="white"/>
<path d="M744.706 712.748L724.773 721.07L733.096 741.003L753.029 732.681L744.706 712.748Z" fill="white"/>
<path d="M763.004 728.533C760.681 729.503 753.037 732.694 753.037 732.694C753.037 732.694 750.204 725.909 748.876 722.728C747.839 720.244 744.715 712.762 744.715 712.762C744.715 712.762 751.662 709.861 754.681 708.6C760.185 706.303 766.511 708.901 768.809 714.406C771.107 719.909 768.507 726.235 763.004 728.533Z" fill="white"/>
<path d="M874.267 658.663C876.59 657.693 884.233 654.502 884.233 654.502C884.233 654.502 887.066 661.286 888.395 664.468C889.432 666.952 892.556 674.434 892.556 674.434C892.556 674.434 885.611 677.334 882.59 678.596C877.083 680.895 870.759 678.293 868.462 672.791C866.164 667.288 868.761 660.962 874.267 658.663Z" fill="white"/>
<path d="M902.535 670.264C900.212 671.234 892.569 674.425 892.569 674.425C892.569 674.425 889.735 667.639 888.407 664.459C887.37 661.974 884.246 654.492 884.246 654.492C884.246 654.492 891.193 651.592 894.212 650.331C899.716 648.033 906.042 650.632 908.34 656.136C910.638 661.64 908.039 667.966 902.535 670.264Z" fill="white"/>
<path d="M91.9171 236.292L47.6585 254.771C26.0874 263.778 13.7711 285.649 16.0576 307.569C16.2965 309.828 16.6901 312.105 17.2349 314.352C17.8451 316.834 18.6657 319.309 19.6794 321.737L38.5954 367.042C49.4429 393.022 79.6388 405.222 105.898 394.258L128.027 385.018L150.157 375.779C176.416 364.815 188.972 334.765 178.124 308.785L159.214 263.494C148.372 237.528 118.176 225.328 91.9171 236.292ZM157.201 317.538C163.224 331.965 156.144 348.717 141.41 354.869L119.295 364.103L97.1794 373.337C82.4451 379.489 65.5544 372.745 59.5306 358.318L40.6145 313.013C38.7328 308.506 38.1338 303.775 38.6353 299.207C39.1252 294.808 40.6481 290.567 43.0576 286.841C46.1502 282.043 50.7043 278.077 56.3971 275.7L100.656 257.221C115.39 251.069 132.261 257.805 138.285 272.233L157.201 317.538Z" fill="white"/>
<path d="M610.163 19.9092L565.905 38.3884C544.333 47.3949 532.017 69.2667 534.304 91.1858C534.543 93.4456 534.936 95.7226 535.481 97.9693C536.091 100.451 536.912 102.927 537.925 105.354L556.842 150.659C567.689 176.64 597.885 188.839 624.144 177.875L646.273 168.636L668.403 159.396C694.662 148.432 707.218 118.382 696.37 92.4022L677.46 47.1112C666.618 21.1449 636.422 8.94525 610.163 19.9092ZM675.447 101.155C681.471 115.582 674.39 132.335 659.656 138.487L637.541 147.72L615.425 156.954C600.691 163.106 583.8 156.362 577.777 141.935L558.861 96.6297C556.979 92.1229 556.38 87.3919 556.881 82.8241C557.371 78.4249 558.894 74.1843 561.304 70.4583C564.396 65.6606 568.95 61.6946 574.643 59.3177L618.902 40.8385C633.636 34.6866 650.507 41.4225 656.531 55.8498L675.447 101.155Z" fill="white"/>
<path d="M308.3 754.554L264.041 773.033C242.47 782.039 230.154 803.911 232.44 825.83C232.679 828.09 233.073 830.367 233.618 832.614C234.228 835.095 235.049 837.571 236.062 839.999L254.978 885.304C265.826 911.284 296.022 923.484 322.281 912.52L344.41 903.28L366.539 894.041C392.799 883.077 405.354 853.027 394.507 827.047L375.597 781.756C364.755 755.789 334.559 743.59 308.3 754.554ZM373.584 835.799C379.607 850.227 372.527 866.979 357.793 873.131L335.677 882.365L313.562 891.599C298.828 897.751 281.937 891.006 275.913 876.579L256.997 831.274C255.116 826.767 254.517 822.036 255.018 817.469C255.508 813.069 257.031 808.829 259.44 805.103C262.533 800.305 267.087 796.339 272.78 793.962L317.038 775.483C331.773 769.331 348.644 776.067 354.667 790.494L373.584 835.799Z" fill="white"/>
<path d="M97.8242 350.85C88.8006 354.617 78.4598 350.487 74.7697 341.649L63.1848 313.903C62.0313 311.14 61.6653 308.245 61.9723 305.449C62.2724 302.753 63.2047 300.159 64.682 297.878C66.573 294.939 69.3646 292.51 72.8509 291.054L99.9573 279.737C108.975 275.971 119.313 280.096 123.001 288.928L134.586 316.674C138.276 325.512 133.936 335.772 124.925 339.535L111.374 345.192L97.8242 350.85Z" fill="white"/>
<path d="M616.098 134.471C607.074 138.238 596.733 134.108 593.043 125.27L581.458 97.5238C580.305 94.7611 579.939 91.8663 580.246 89.0696C580.546 86.3742 581.478 83.78 582.955 81.4989C584.846 78.5605 587.638 76.1309 591.124 74.6753L618.231 63.3577C627.248 59.5926 637.587 63.7168 641.274 72.549L652.859 100.295C656.549 109.133 652.21 119.393 643.198 123.156L629.648 128.813L616.098 134.471Z" fill="white"/>
<path d="M314.223 869.088C305.199 872.856 294.858 868.725 291.168 859.887L279.583 832.141C278.43 829.378 278.064 826.483 278.371 823.687C278.671 820.991 279.603 818.397 281.08 816.116C282.971 813.178 285.763 810.748 289.249 809.293L316.356 797.975C325.373 794.21 335.712 798.334 339.399 807.166L350.984 834.912C354.674 843.751 350.335 854.01 341.323 857.773L327.773 863.43L314.223 869.088Z" fill="white"/>
</mask>
<g mask="url(#mask0)">
<path d="M657.794 0.0040592L0.015625 274.645L274.656 932.423L932.434 657.782L657.794 0.0040592Z" fill="url(#paint0_linear)"/>
</g>
<path d="M514.108 467.536C512.107 473.713 503.657 475.893 498.977 471.367C491.447 464.422 484.6 456.747 477.268 449.595C477.276 459.458 477.75 469.35 477.613 479.224C477.889 484.352 473.737 489.461 468.417 489.258C464.214 489.097 460.636 485.88 458.916 484.038C452.608 477.3 444.491 469.067 434.535 459.151C431.439 456.055 432.459 450.807 436.486 449.126C437.615 448.653 438.86 448.528 440.061 448.77C441.262 449.011 442.364 449.606 443.225 450.479C450.559 457.902 457.895 465.359 465.268 472.755C465.179 463.876 465.008 455.01 464.843 446.127C464.781 442.134 464.953 437.549 468.293 434.782C471.845 431.432 477.676 432.533 480.895 435.779C488.787 443.265 496.118 451.32 503.894 458.892C505.043 450.438 504.307 441.632 500.551 433.853C492.771 416.551 471.975 406.516 453.662 411.333C431.778 416.794 416.706 439.693 419.042 461.938C421.363 484.037 438.521 500.024 455.046 504.521C455.046 504.521 470.628 508.762 487.606 502.066C488.831 501.568 489.977 500.895 491.007 500.066C491.428 499.708 491.823 499.32 492.188 498.905L487.025 497.833L483.297 496.903L479.832 495.753C479.112 495.457 478.471 494.997 477.96 494.409C476.855 493.123 476.556 491.385 476.864 490.08C477.412 487.763 480.081 485.944 483.271 486.204L505.957 491.36C506.055 491.391 506.15 491.43 506.241 491.477C506.314 491.465 506.389 491.472 506.459 491.496C509.231 492.132 510.993 495.081 510.356 498.079L505.518 521.18C504.898 524.16 502.106 526.08 499.324 525.449C496.516 524.816 494.749 521.856 495.402 518.864L497.237 510.456L497.124 510.54C497.124 510.54 492.639 513.871 486.231 515.621C461.804 522.305 441.351 512.61 441.351 512.61C429.182 506.974 419.477 496.927 413.061 485.251L409.704 477.211C405.679 464.316 405.374 450.161 409.943 437.385C414.783 422.925 425.571 410.969 438.798 403.613L446.989 400.193C462.609 395.315 480.367 397.746 493.742 407.305C512.645 420.086 521.554 445.917 514.108 467.536Z" fill="url(#paint1_linear)"/>
<defs>
<linearGradient id="paint0_linear" x1="328.903" y1="137.324" x2="603.543" y2="795.102" gradientUnits="userSpaceOnUse">
<stop offset="0.05" stop-color="#12B2EB"/>
<stop offset="0.95" stop-color="#1F68F5"/>
</linearGradient>
<linearGradient id="paint1_linear" x1="562.249" y1="568.219" x2="329.889" y2="473.532" gradientUnits="userSpaceOnUse">
<stop stop-color="#1235EB"/>
<stop offset="0.492467" stop-color="#12B2EB"/>
<stop offset="0.797749" stop-color="#89E4FD"/>
</linearGradient>
</defs>
</svg>
