<svg width="368" height="468" viewBox="0 0 368 468" fill="none" xmlns="http://www.w3.org/2000/svg">
<rect y="52" width="349" height="397.925" rx="47.2944" fill="url(#paint0_linear)"/>
<path d="M43.8864 142.816H48.7216V115.239H43.8482L36.6432 120.303V124.833L43.7718 119.94H43.8864V142.816ZM54.9328 123.476H59.5578C59.5578 120.666 61.813 118.64 64.7943 118.64C67.5273 118.64 69.3429 120.475 69.3429 122.883C69.3429 124.947 68.5402 126.323 64.9472 129.859L55.2004 139.453V142.816H74.5794V138.784H61.7174V138.688L67.7948 132.726C72.6109 127.986 74.1589 125.845 74.1589 122.577C74.1589 118.144 70.4131 114.684 64.7943 114.684C59.0609 114.684 54.9328 118.335 54.9328 123.476ZM81.5168 128.75C83.0457 128.75 84.2498 127.527 84.2498 125.998C84.2498 124.469 83.0457 123.246 81.5168 123.246C79.9688 123.246 78.7648 124.469 78.7648 125.998C78.7648 127.527 79.9688 128.75 81.5168 128.75ZM81.5168 143.027C83.0457 143.027 84.2498 141.823 84.2498 140.275C84.2498 138.746 83.0457 137.523 81.5168 137.523C79.9688 137.523 78.7648 138.746 78.7648 140.275C78.7648 141.823 79.9688 143.027 81.5168 143.027ZM102.96 130.451H106.228C109.764 130.451 111.904 132.095 111.885 135.038C111.885 137.561 109.725 139.338 106.572 139.338C103.304 139.338 101.106 137.695 100.915 135.191H96.1944C96.4428 140.064 100.533 143.371 106.572 143.371C112.611 143.371 116.892 140.045 116.892 135.153C116.892 131.311 114.197 128.865 110.127 128.483V128.387C113.452 127.699 115.917 125.406 115.917 121.928C115.917 117.666 112.248 114.684 106.534 114.684C100.991 114.684 97.1117 117.819 96.7868 122.749H101.374C101.546 120.15 103.629 118.602 106.534 118.602C109.572 118.602 111.178 120.169 111.178 122.597C111.178 125.043 109.152 126.782 106.113 126.782H102.96V130.451ZM130.461 143.371C137.475 143.371 141.68 137.905 141.68 128.712C141.68 118.488 136.195 114.665 130.538 114.665C124.575 114.665 120.237 118.698 120.237 124.317C120.237 129.649 124.231 133.356 129.391 133.356C132.965 133.356 135.793 131.56 136.863 128.884H136.94C136.94 135.306 134.838 139.376 130.499 139.376C127.977 139.376 126.123 138.23 125.435 136.051H120.542C121.307 140.408 125.301 143.371 130.461 143.371ZM130.538 129.534C127.403 129.534 125.072 127.279 125.072 124.125C125.072 121.106 127.518 118.717 130.595 118.717C133.71 118.717 136.118 121.125 136.118 124.221C136.118 127.298 133.729 129.534 130.538 129.534ZM153.586 115.239V142.816H158.517V133.7H164.097C169.678 133.7 173.596 129.974 173.596 124.469C173.596 118.965 169.792 115.239 164.308 115.239H153.586ZM158.517 119.271H163.008C166.544 119.271 168.588 121.163 168.588 124.469C168.588 127.814 166.524 129.725 162.989 129.725H158.517V119.271ZM205.665 142.816V115.239H199.969L191.522 136.28H191.369L182.922 115.239H177.208V142.816H181.661V123.246H181.794L189.764 142.816H193.128L201.097 123.246H201.231V142.816H205.665Z" fill="white"/>
<path d="M46.2469 175.262V184.101C46.2469 185.165 46.5782 186.031 47.2407 186.7C47.9096 187.363 48.8302 187.694 50.0023 187.694C51.1745 187.694 52.0918 187.363 52.7544 186.7C53.4233 186.031 53.7577 185.165 53.7577 184.101V175.262H55.4777V184.216C55.4777 185.713 54.984 186.933 53.9966 187.875C53.0156 188.812 51.6841 189.28 50.0023 189.28C48.3205 189.28 46.9859 188.812 45.9985 187.875C45.0174 186.933 44.5269 185.713 44.5269 184.216V175.262H46.2469ZM62.721 178.941C63.9951 178.941 65.0207 179.409 65.7979 180.346C66.5815 181.282 66.9733 182.527 66.9733 184.082C66.9733 185.63 66.5847 186.875 65.8075 187.818C65.0303 188.755 64.0142 189.223 62.7592 189.223C62.0584 189.223 61.4309 189.064 60.8767 188.745C60.3225 188.426 59.8957 187.99 59.5962 187.436H59.558V192.367H57.8953V179.113H59.472V180.795H59.5102C59.8224 180.221 60.2588 179.769 60.8194 179.438C61.38 179.106 62.0138 178.941 62.721 178.941ZM62.3961 187.761C63.2816 187.761 63.9823 187.429 64.4983 186.767C65.0143 186.104 65.2723 185.209 65.2723 184.082C65.2723 182.954 65.0143 182.059 64.4983 181.397C63.9823 180.734 63.2816 180.403 62.3961 180.403C61.5424 180.403 60.8544 180.74 60.332 181.416C59.8097 182.091 59.5485 182.98 59.5485 184.082C59.5485 185.19 59.8097 186.082 60.332 186.757C60.8544 187.426 61.5424 187.761 62.3961 187.761ZM72.6685 189.051V179.113H74.2356V180.699H74.2738C74.5605 180.145 74.9714 179.715 75.5065 179.409C76.0416 179.097 76.6819 178.941 77.4272 178.941C78.5102 178.941 79.3543 179.269 79.9595 179.925C80.5647 180.575 80.8673 181.467 80.8673 182.601V189.051H79.2046V182.897C79.2046 182.088 79.0135 181.473 78.6312 181.053C78.249 180.626 77.6788 180.412 76.9208 180.412C76.1372 180.412 75.5097 180.667 75.0383 181.177C74.5669 181.687 74.3312 182.362 74.3312 183.203V189.051H72.6685ZM86.9734 180.384C86.2025 180.384 85.5623 180.651 85.0527 181.186C84.5494 181.715 84.2723 182.397 84.2213 183.231H89.6203C89.6012 182.39 89.3495 181.706 88.8654 181.177C88.3812 180.648 87.7506 180.384 86.9734 180.384ZM89.5821 186.203H91.2161C91.0696 187.082 90.6109 187.805 89.8401 188.372C89.0756 188.939 88.1551 189.223 87.0785 189.223C85.6579 189.223 84.5398 188.764 83.7244 187.847C82.909 186.929 82.5013 185.687 82.5013 184.12C82.5013 182.566 82.909 181.314 83.7244 180.365C84.5462 179.415 85.6387 178.941 87.002 178.941C88.3398 178.941 89.3973 179.39 90.1745 180.288C90.9517 181.186 91.3403 182.39 91.3403 183.9V184.531H84.2118V184.626C84.2118 185.582 84.4729 186.347 84.9953 186.92C85.5177 187.493 86.2248 187.78 87.1167 187.78C87.741 187.78 88.2729 187.637 88.7125 187.35C89.1521 187.063 89.4419 186.681 89.5821 186.203ZM96.3475 185.267H96.3093L93.9108 189.051H92.0666L95.4493 184.082L92.1239 179.113H93.9777L96.3666 182.84H96.4048L98.7651 179.113H100.619L97.2649 184.015L100.571 189.051H98.7269L96.3475 185.267ZM102.559 176.714H104.221V179.113H106.152V180.479H104.221V186.385C104.221 186.837 104.32 187.171 104.518 187.388C104.715 187.598 105.027 187.703 105.454 187.703C105.722 187.703 105.951 187.688 106.142 187.656V189.051C105.926 189.102 105.575 189.127 105.091 189.127C104.18 189.127 103.53 188.923 103.142 188.516C102.753 188.108 102.559 187.426 102.559 186.471V180.479H101.078V179.113H102.559V176.714Z" fill="white"/>
<rect x="32.6172" y="210.191" width="283.766" height="84.8037" rx="17.9393" fill="#464670"/>
<path d="M87.7714 256.805H92.6926C93.9858 256.805 95.0433 257.219 95.8651 258.047C96.6932 258.869 97.1073 259.93 97.1073 261.229C97.1073 262.535 96.6932 263.602 95.8651 264.43C95.0369 265.258 93.973 265.673 92.6735 265.673H89.4914V270.594H87.7714V256.805ZM89.4914 258.334V264.144H92.2435C93.2245 264.144 93.9858 263.889 94.5273 263.379C95.0688 262.863 95.3395 262.147 95.3395 261.229C95.3395 260.312 95.0688 259.601 94.5273 259.098C93.9922 258.589 93.2309 258.334 92.2435 258.334H89.4914ZM98.9134 270.594V260.656H100.576V270.594H98.9134ZM99.7447 258.984C99.4644 258.984 99.2223 258.882 99.0185 258.678C98.8146 258.474 98.7127 258.232 98.7127 257.952C98.7127 257.665 98.8146 257.423 99.0185 257.225C99.2223 257.021 99.4644 256.92 99.7447 256.92C100.031 256.92 100.277 257.021 100.48 257.225C100.684 257.423 100.786 257.665 100.786 257.952C100.786 258.232 100.684 258.474 100.48 258.678C100.277 258.882 100.031 258.984 99.7447 258.984ZM111.078 263.914H109.453C109.326 263.341 109.042 262.87 108.603 262.5C108.17 262.131 107.606 261.946 106.911 261.946C106.045 261.946 105.348 262.28 104.819 262.949C104.29 263.612 104.026 264.504 104.026 265.625C104.026 266.765 104.29 267.663 104.819 268.319C105.354 268.976 106.058 269.304 106.931 269.304C107.599 269.304 108.151 269.138 108.584 268.807C109.023 268.469 109.316 267.998 109.463 267.393H111.097C110.969 268.386 110.52 269.199 109.75 269.829C108.985 270.454 108.042 270.766 106.921 270.766C105.532 270.766 104.421 270.307 103.586 269.39C102.752 268.466 102.334 267.211 102.334 265.625C102.334 264.064 102.752 262.819 103.586 261.888C104.421 260.952 105.526 260.484 106.902 260.484C108.087 260.484 109.049 260.818 109.788 261.487C110.533 262.156 110.963 262.965 111.078 263.914ZM114.374 265.071L118.77 260.656H120.786L116.477 264.946L120.92 270.594H118.99L115.301 265.969L114.374 266.848V270.594H112.712V256.805H114.374V265.071ZM134.298 260.656V270.594H132.721V268.979H132.683C132.065 270.17 131.014 270.766 129.53 270.766C128.453 270.766 127.609 270.441 126.998 269.791C126.392 269.135 126.09 268.24 126.09 267.106V260.656H127.752V266.81C127.752 268.466 128.517 269.294 130.046 269.294C130.849 269.294 131.479 269.043 131.938 268.539C132.403 268.03 132.635 267.348 132.635 266.494V260.656H134.298ZM141.283 260.484C142.557 260.484 143.583 260.952 144.36 261.888C145.144 262.825 145.536 264.07 145.536 265.625C145.536 267.173 145.147 268.418 144.37 269.361C143.593 270.298 142.577 270.766 141.322 270.766C140.621 270.766 139.993 270.606 139.439 270.288C138.885 269.969 138.458 269.533 138.159 268.979H138.12V273.91H136.458V260.656H138.034V262.338H138.073C138.385 261.764 138.821 261.312 139.382 260.981C139.942 260.649 140.576 260.484 141.283 260.484ZM140.958 269.304C141.844 269.304 142.545 268.972 143.061 268.31C143.577 267.647 143.835 266.752 143.835 265.625C143.835 264.497 143.577 263.602 143.061 262.94C142.545 262.277 141.844 261.946 140.958 261.946C140.105 261.946 139.417 262.283 138.894 262.959C138.372 263.634 138.111 264.523 138.111 265.625C138.111 266.733 138.372 267.625 138.894 268.3C139.417 268.969 140.105 269.304 140.958 269.304ZM157.165 270.823C155.26 270.823 153.747 270.183 152.626 268.902C151.511 267.616 150.954 265.88 150.954 263.695C150.954 261.529 151.518 259.802 152.645 258.515C153.773 257.222 155.279 256.576 157.165 256.576C158.668 256.576 159.942 256.996 160.987 257.837C162.038 258.671 162.672 259.777 162.889 261.153H161.15C160.927 260.248 160.452 259.525 159.726 258.984C159 258.436 158.146 258.162 157.165 258.162C155.821 258.162 154.744 258.665 153.935 259.672C153.126 260.678 152.722 262.019 152.722 263.695C152.722 265.389 153.123 266.736 153.926 267.737C154.728 268.737 155.811 269.237 157.175 269.237C158.187 269.237 159.041 269.004 159.735 268.539C160.43 268.074 160.901 267.421 161.15 266.58H162.889C162.57 267.944 161.917 268.992 160.93 269.724C159.942 270.457 158.687 270.823 157.165 270.823ZM169.463 270.594H167.743V258.353H163.395V256.805H173.811V258.353H169.463V270.594ZM175.627 256.805H180.548C181.841 256.805 182.898 257.219 183.72 258.047C184.548 258.869 184.963 259.93 184.963 261.229C184.963 262.535 184.548 263.602 183.72 264.43C182.892 265.258 181.828 265.673 180.529 265.673H177.347V270.594H175.627V256.805ZM177.347 258.334V264.144H180.099C181.08 264.144 181.841 263.889 182.382 263.379C182.924 262.863 183.195 262.147 183.195 261.229C183.195 260.312 182.924 259.601 182.382 259.098C181.847 258.589 181.086 258.334 180.099 258.334H177.347ZM194.814 270.766C193.426 270.766 192.311 270.304 191.47 269.38C190.629 268.45 190.209 267.198 190.209 265.625C190.209 264.051 190.629 262.803 191.47 261.879C192.311 260.949 193.426 260.484 194.814 260.484C196.197 260.484 197.308 260.949 198.149 261.879C198.99 262.803 199.411 264.051 199.411 265.625C199.411 267.192 198.99 268.441 198.149 269.371C197.308 270.301 196.197 270.766 194.814 270.766ZM192.684 268.329C193.212 268.979 193.923 269.304 194.814 269.304C195.706 269.304 196.413 268.982 196.936 268.339C197.458 267.689 197.719 266.784 197.719 265.625C197.719 264.465 197.458 263.564 196.936 262.921C196.413 262.271 195.706 261.946 194.814 261.946C193.923 261.946 193.212 262.271 192.684 262.921C192.161 263.57 191.9 264.472 191.9 265.625C191.9 266.778 192.161 267.679 192.684 268.329ZM201.093 270.594V260.656H202.66V262.28H202.698C202.864 261.726 203.16 261.29 203.587 260.971C204.02 260.646 204.526 260.484 205.106 260.484C205.24 260.484 205.463 260.506 205.775 260.551V262.166C205.596 262.102 205.3 262.07 204.886 262.07C204.243 262.07 203.727 262.283 203.338 262.71C202.95 263.137 202.755 263.701 202.755 264.402V270.594H201.093ZM210.419 270.766C209.145 270.766 208.116 270.298 207.332 269.361C206.555 268.425 206.167 267.179 206.167 265.625C206.167 264.077 206.555 262.835 207.332 261.898C208.11 260.955 209.126 260.484 210.381 260.484C211.081 260.484 211.709 260.643 212.263 260.962C212.817 261.28 213.244 261.716 213.544 262.271H213.582V256.805H215.245V270.594H213.658V268.912H213.63C213.305 269.492 212.865 269.947 212.311 270.278C211.757 270.603 211.126 270.766 210.419 270.766ZM210.734 261.946C209.855 261.946 209.158 262.28 208.642 262.949C208.126 263.612 207.868 264.504 207.868 265.625C207.868 266.752 208.126 267.647 208.642 268.31C209.158 268.972 209.855 269.304 210.734 269.304C211.594 269.304 212.285 268.969 212.808 268.3C213.33 267.625 213.591 266.733 213.591 265.625C213.591 264.516 213.327 263.628 212.798 262.959C212.276 262.283 211.588 261.946 210.734 261.946ZM221.475 261.927C220.704 261.927 220.064 262.194 219.554 262.729C219.051 263.258 218.774 263.94 218.723 264.774H224.122C224.103 263.933 223.851 263.249 223.367 262.72C222.883 262.191 222.252 261.927 221.475 261.927ZM224.084 267.746H225.718C225.571 268.625 225.112 269.348 224.342 269.915C223.577 270.482 222.657 270.766 221.58 270.766C220.159 270.766 219.041 270.307 218.226 269.39C217.411 268.472 217.003 267.23 217.003 265.663C217.003 264.109 217.411 262.857 218.226 261.908C219.048 260.958 220.14 260.484 221.504 260.484C222.841 260.484 223.899 260.933 224.676 261.831C225.453 262.729 225.842 263.933 225.842 265.443V266.074H218.713V266.169C218.713 267.125 218.974 267.889 219.497 268.463C220.019 269.036 220.726 269.323 221.618 269.323C222.243 269.323 222.774 269.18 223.214 268.893C223.654 268.606 223.943 268.224 224.084 267.746ZM227.524 270.594V260.656H229.091V262.28H229.129C229.295 261.726 229.591 261.29 230.018 260.971C230.451 260.646 230.957 260.484 231.537 260.484C231.671 260.484 231.894 260.506 232.206 260.551V262.166C232.028 262.102 231.731 262.07 231.317 262.07C230.674 262.07 230.158 262.283 229.769 262.71C229.381 263.137 229.186 263.701 229.186 264.402V270.594H227.524Z" fill="white"/>
<path d="M60.208 241.238H62.6256V227.449H60.1888L56.5863 229.982V232.246L60.1506 229.8H60.208V241.238ZM65.7312 231.568H68.0436C68.0436 230.163 69.1712 229.15 70.6619 229.15C72.0284 229.15 72.9362 230.068 72.9362 231.272C72.9362 232.304 72.5348 232.992 70.7384 234.76L65.8649 239.556V241.238H75.5544V239.222H69.1234V239.174L72.1622 236.193C74.5702 233.823 75.3442 232.753 75.3442 231.119C75.3442 228.902 73.4713 227.172 70.6619 227.172C67.7952 227.172 65.7312 228.997 65.7312 231.568ZM79.0232 232.141C79.7876 232.141 80.3896 231.53 80.3896 230.765C80.3896 230.001 79.7876 229.389 79.0232 229.389C78.2491 229.389 77.6471 230.001 77.6471 230.765C77.6471 231.53 78.2491 232.141 79.0232 232.141ZM79.0232 239.289C79.7876 239.289 80.3896 238.677 80.3896 237.913C80.3896 237.148 79.7876 236.537 79.0232 236.537C78.2491 236.537 77.6471 237.148 77.6471 237.913C77.6471 238.677 78.2491 239.289 79.0232 239.289ZM89.2478 241.238H91.5985V238.591H93.4714V236.566H91.5985V227.449H88.0915C85.1006 231.797 83.5621 234.244 82.3677 236.489V238.591H89.2478V241.238ZM84.5846 236.556C85.6835 234.549 87.0213 232.476 89.2478 229.284H89.286V236.623H84.5846V236.556ZM100.141 241.515C103.199 241.515 105.32 239.547 105.32 236.69C105.32 234.062 103.428 232.151 100.801 232.151C99.415 232.151 98.2779 232.695 97.6759 233.622H97.6281L98.0104 229.466H104.508V227.449H96.0419L95.3825 235.467H97.5326C98.0581 234.53 98.985 234.005 100.17 234.005C101.794 234.005 102.941 235.142 102.941 236.757C102.941 238.381 101.804 239.518 100.16 239.518C98.7079 239.518 97.5995 238.649 97.4466 237.359H95.1341C95.2392 239.805 97.3032 241.515 100.141 241.515ZM111.102 227.449V241.238H113.567V236.68H116.357C119.148 236.68 121.106 234.817 121.106 232.065C121.106 229.313 119.205 227.449 116.462 227.449H111.102ZM113.567 229.466H115.813C117.58 229.466 118.603 230.412 118.603 232.065C118.603 233.737 117.571 234.693 115.803 234.693H113.567V229.466ZM137.141 241.238V227.449H134.293L130.07 237.97H129.993L125.77 227.449H122.913V241.238H125.139V231.453H125.206L129.191 241.238H130.872L134.857 231.453H134.924V241.238H137.141Z" fill="white"/>
<rect x="57.8935" y="258.3" width="11.4159" height="11.4159" rx="5.70794" stroke="#12B2EB" stroke-width="1.63084"/>
<rect x="32.6172" y="311.305" width="283.766" height="84.8037" rx="17.9393" fill="#464670"/>
<path d="M92.9793 371.707H91.2592V359.466H86.9114V357.918H97.3271V359.466H92.9793V371.707ZM100.289 363.04C99.5185 363.04 98.8783 363.308 98.3687 363.843C97.8654 364.371 97.5883 365.053 97.5373 365.888H102.936C102.917 365.047 102.666 364.362 102.181 363.833C101.697 363.304 101.067 363.04 100.289 363.04ZM102.898 368.859H104.532C104.386 369.739 103.927 370.462 103.156 371.029C102.392 371.596 101.471 371.879 100.394 371.879C98.9739 371.879 97.8559 371.42 97.0404 370.503C96.225 369.586 95.8173 368.343 95.8173 366.776C95.8173 365.222 96.225 363.97 97.0404 363.021C97.8622 362.072 98.9548 361.597 100.318 361.597C101.656 361.597 102.713 362.046 103.491 362.944C104.268 363.843 104.656 365.047 104.656 366.557V367.187H97.5278V367.283C97.5278 368.238 97.789 369.003 98.3113 369.576C98.8337 370.149 99.5408 370.436 100.433 370.436C101.057 370.436 101.589 370.293 102.029 370.006C102.468 369.719 102.758 369.337 102.898 368.859ZM109.616 370.465C110.399 370.465 111.055 370.223 111.584 369.739C112.119 369.248 112.387 368.646 112.387 367.933V367.12L109.73 367.283C109.062 367.327 108.542 367.49 108.173 367.77C107.81 368.05 107.628 368.426 107.628 368.898C107.628 369.369 107.81 369.748 108.173 370.035C108.536 370.321 109.017 370.465 109.616 370.465ZM109.243 371.879C108.256 371.879 107.456 371.605 106.845 371.057C106.239 370.509 105.937 369.79 105.937 368.898C105.937 368.044 106.249 367.362 106.873 366.853C107.504 366.343 108.393 366.056 109.539 365.993L112.387 365.83V364.999C112.387 364.394 112.196 363.919 111.814 363.575C111.431 363.231 110.896 363.059 110.208 363.059C109.578 363.059 109.065 363.199 108.67 363.48C108.275 363.753 108.023 364.139 107.915 364.636H106.309C106.367 363.75 106.749 363.024 107.456 362.457C108.17 361.884 109.1 361.597 110.246 361.597C111.412 361.597 112.336 361.89 113.018 362.476C113.706 363.062 114.05 363.849 114.05 364.836V371.707H112.473V369.997H112.435C112.135 370.564 111.696 371.019 111.116 371.363C110.536 371.707 109.912 371.879 109.243 371.879ZM116.161 371.707V361.769H117.729V363.355H117.767C118.009 362.814 118.375 362.387 118.866 362.075C119.356 361.756 119.93 361.597 120.586 361.597C121.261 361.597 121.841 361.763 122.325 362.094C122.809 362.419 123.159 362.884 123.376 363.489H123.414C123.688 362.897 124.099 362.435 124.647 362.104C125.201 361.766 125.829 361.597 126.529 361.597C127.51 361.597 128.294 361.893 128.88 362.486C129.473 363.072 129.769 363.859 129.769 364.846V371.707H128.106V365.228C128.106 364.547 127.924 364.018 127.561 363.642C127.205 363.26 126.698 363.069 126.042 363.069C125.386 363.069 124.848 363.288 124.427 363.728C124.007 364.161 123.796 364.715 123.796 365.391V371.707H122.134V365.047C122.134 364.448 121.949 363.97 121.579 363.613C121.21 363.25 120.716 363.069 120.098 363.069C119.442 363.069 118.898 363.298 118.464 363.757C118.038 364.215 117.824 364.789 117.824 365.477V371.707H116.161ZM149.75 371.707H148.144V361.081H148.077L143.682 371.611H142.229L137.834 361.081H137.767V371.707H136.162V357.918H138.159L142.917 369.423H142.994L147.753 357.918H149.75V371.707ZM156.152 363.04C155.381 363.04 154.741 363.308 154.231 363.843C153.728 364.371 153.451 365.053 153.4 365.888H158.799C158.78 365.047 158.528 364.362 158.044 363.833C157.56 363.304 156.929 363.04 156.152 363.04ZM158.761 368.859H160.395C160.248 369.739 159.79 370.462 159.019 371.029C158.254 371.596 157.334 371.879 156.257 371.879C154.837 371.879 153.719 371.42 152.903 370.503C152.088 369.586 151.68 368.343 151.68 366.776C151.68 365.222 152.088 363.97 152.903 363.021C153.725 362.072 154.817 361.597 156.181 361.597C157.519 361.597 158.576 362.046 159.353 362.944C160.13 363.843 160.519 365.047 160.519 366.557V367.187H153.39V367.283C153.39 368.238 153.652 369.003 154.174 369.576C154.696 370.149 155.404 370.436 156.295 370.436C156.92 370.436 157.452 370.293 157.891 370.006C158.331 369.719 158.621 369.337 158.761 368.859ZM166.186 363.04C165.415 363.04 164.774 363.308 164.265 363.843C163.762 364.371 163.484 365.053 163.433 365.888H168.832C168.813 365.047 168.562 364.362 168.078 363.833C167.593 363.304 166.963 363.04 166.186 363.04ZM168.794 368.859H170.428C170.282 369.739 169.823 370.462 169.052 371.029C168.288 371.596 167.367 371.879 166.291 371.879C164.87 371.879 163.752 371.42 162.937 370.503C162.121 369.586 161.713 368.343 161.713 366.776C161.713 365.222 162.121 363.97 162.937 363.021C163.758 362.072 164.851 361.597 166.214 361.597C167.552 361.597 168.61 362.046 169.387 362.944C170.164 363.843 170.553 365.047 170.553 366.557V367.187H163.424V367.283C163.424 368.238 163.685 369.003 164.208 369.576C164.73 370.149 165.437 370.436 166.329 370.436C166.953 370.436 167.485 370.293 167.925 370.006C168.364 369.719 168.654 369.337 168.794 368.859ZM172.769 359.371H174.432V361.769H176.362V363.136H174.432V369.041C174.432 369.493 174.531 369.828 174.728 370.044C174.926 370.255 175.238 370.36 175.665 370.36C175.932 370.36 176.162 370.344 176.353 370.312V371.707C176.136 371.758 175.786 371.783 175.302 371.783C174.391 371.783 173.741 371.58 173.352 371.172C172.964 370.764 172.769 370.083 172.769 369.127V363.136H171.288V361.769H172.769V359.371ZM178.226 371.707V361.769H179.888V371.707H178.226ZM179.057 360.097C178.777 360.097 178.535 359.995 178.331 359.791C178.127 359.587 178.025 359.345 178.025 359.065C178.025 358.778 178.127 358.536 178.331 358.339C178.535 358.135 178.777 358.033 179.057 358.033C179.344 358.033 179.589 358.135 179.793 358.339C179.997 358.536 180.099 358.778 180.099 359.065C180.099 359.345 179.997 359.587 179.793 359.791C179.589 359.995 179.344 360.097 179.057 360.097ZM182.134 371.707V361.769H183.701V363.355H183.739C184.026 362.801 184.437 362.371 184.972 362.065C185.507 361.753 186.147 361.597 186.893 361.597C187.976 361.597 188.82 361.925 189.425 362.581C190.03 363.231 190.333 364.123 190.333 365.257V371.707H188.67V365.553C188.67 364.744 188.479 364.129 188.097 363.709C187.715 363.282 187.144 363.069 186.386 363.069C185.603 363.069 184.975 363.323 184.504 363.833C184.032 364.343 183.797 365.018 183.797 365.859V371.707H182.134ZM196.496 370.321C197.363 370.321 198.06 369.99 198.589 369.328C199.118 368.665 199.382 367.789 199.382 366.7C199.382 365.604 199.118 364.725 198.589 364.062C198.06 363.394 197.363 363.059 196.496 363.059C195.636 363.059 194.948 363.39 194.432 364.053C193.923 364.709 193.668 365.591 193.668 366.7C193.668 367.808 193.923 368.691 194.432 369.347C194.948 369.997 195.636 370.321 196.496 370.321ZM196.554 375.453C195.464 375.453 194.528 375.176 193.744 374.622C192.961 374.074 192.499 373.376 192.359 372.529H194.069C194.235 372.987 194.547 373.354 195.006 373.628C195.464 373.902 196.003 374.039 196.62 374.039C197.474 374.039 198.146 373.812 198.637 373.36C199.134 372.908 199.382 372.309 199.382 371.564V369.997H199.344C199.032 370.544 198.595 370.981 198.035 371.306C197.474 371.624 196.85 371.783 196.162 371.783C194.894 371.783 193.878 371.322 193.114 370.398C192.349 369.474 191.967 368.241 191.967 366.7C191.967 365.145 192.349 363.906 193.114 362.983C193.884 362.059 194.913 361.597 196.2 361.597C196.901 361.597 197.531 361.76 198.092 362.084C198.653 362.409 199.099 362.862 199.43 363.441H199.459V361.769H201.045V371.506C201.045 372.698 200.637 373.653 199.822 374.373C199.006 375.093 197.917 375.453 196.554 375.453Z" fill="white"/>
<path d="M62.3911 342.352H64.8087V328.563H62.372L58.7695 331.095V333.36L62.3338 330.913H62.3911V342.352ZM69.663 333.255C70.4274 333.255 71.0295 332.643 71.0295 331.879C71.0295 331.114 70.4274 330.502 69.663 330.502C68.889 330.502 68.287 331.114 68.287 331.879C68.287 332.643 68.889 333.255 69.663 333.255ZM69.663 340.402C70.4274 340.402 71.0295 339.791 71.0295 339.026C71.0295 338.262 70.4274 337.65 69.663 337.65C68.889 337.65 68.287 338.262 68.287 339.026C68.287 339.791 68.889 340.402 69.663 340.402ZM78.5498 342.629C81.9421 342.629 83.9583 339.848 83.9583 335.433C83.9583 331.018 81.923 328.286 78.5498 328.286C75.1671 328.286 73.1222 331.038 73.1222 335.443C73.1222 339.867 75.148 342.629 78.5498 342.629ZM78.5498 340.612C76.6769 340.612 75.6066 338.701 75.6066 335.433C75.6066 332.223 76.696 330.302 78.5498 330.302C80.3941 330.302 81.4738 332.213 81.4738 335.443C81.4738 338.711 80.4132 340.612 78.5498 340.612ZM91.0296 342.629C94.4218 342.629 96.4381 339.848 96.4381 335.433C96.4381 331.018 94.4027 328.286 91.0296 328.286C87.6468 328.286 85.6019 331.038 85.6019 335.443C85.6019 339.867 87.6277 342.629 91.0296 342.629ZM91.0296 340.612C89.1566 340.612 88.0864 338.701 88.0864 335.433C88.0864 332.223 89.1758 330.302 91.0296 330.302C92.8738 330.302 93.9536 332.213 93.9536 335.443C93.9536 338.711 92.8929 340.612 91.0296 340.612ZM102.391 328.563V342.352H104.857V337.793H107.647C110.437 337.793 112.396 335.93 112.396 333.178C112.396 330.426 110.495 328.563 107.752 328.563H102.391ZM104.857 330.579H107.102C108.87 330.579 109.893 331.525 109.893 333.178C109.893 334.85 108.861 335.806 107.093 335.806H104.857V330.579ZM128.431 342.352V328.563H125.583L121.359 339.084H121.283L117.059 328.563H114.202V342.352H116.429V332.567H116.496L120.48 342.352H122.162L126.147 332.567H126.214V342.352H128.431Z" fill="white"/>
<rect x="57.8935" y="361.046" width="11.4159" height="11.4159" rx="5.70794" stroke="#D60342" stroke-width="1.63084"/>
<circle opacity="0.3" cx="291.106" cy="129.462" r="15.3131" transform="rotate(75 291.106 129.462)" fill="url(#paint1_linear)"/>
<circle opacity="0.3" cx="291.112" cy="129.448" r="13.6851" transform="rotate(75 291.112 129.448)" fill="url(#paint2_linear)"/>
<circle cx="291.082" cy="129.17" r="11.3084" transform="rotate(75 291.082 129.17)" fill="url(#paint3_linear)"/>
<path d="M237.965 138.231C236.643 138.231 235.512 137.865 234.571 137.132C233.63 136.4 233.041 135.423 232.804 134.202H234.776C234.984 134.906 235.379 135.473 235.961 135.904C236.543 136.328 237.218 136.54 237.986 136.54C239.279 136.54 240.281 135.98 240.992 134.859C241.71 133.731 242.084 132.133 242.113 130.065H242.102H242.08C241.75 130.833 241.19 131.451 240.4 131.918C239.617 132.378 238.73 132.607 237.738 132.607C236.259 132.607 235.027 132.119 234.043 131.142C233.066 130.165 232.578 128.941 232.578 127.468C232.578 125.931 233.095 124.664 234.129 123.665C235.171 122.66 236.489 122.157 238.083 122.157C239.254 122.157 240.285 122.462 241.175 123.073C242.066 123.676 242.748 124.534 243.222 125.648C243.732 126.826 243.987 128.255 243.987 129.936C243.987 132.557 243.459 134.597 242.403 136.055C241.348 137.506 239.868 138.231 237.965 138.231ZM238.072 130.905C239.1 130.905 239.954 130.578 240.637 129.925C241.319 129.271 241.66 128.449 241.66 127.458C241.66 126.459 241.315 125.619 240.626 124.937C239.943 124.247 239.103 123.902 238.105 123.902C237.106 123.902 236.262 124.244 235.573 124.926C234.883 125.601 234.539 126.427 234.539 127.404C234.539 128.416 234.873 129.253 235.541 129.914C236.209 130.575 237.053 130.905 238.072 130.905ZM251.572 138.231C250.085 138.231 248.842 137.811 247.844 136.971C246.853 136.13 246.318 135.049 246.239 133.728H248.146C248.232 134.554 248.595 135.229 249.234 135.753C249.873 136.27 250.66 136.529 251.593 136.529C252.649 136.529 253.507 136.199 254.168 135.538C254.836 134.877 255.17 134.022 255.17 132.974C255.17 131.925 254.836 131.067 254.168 130.399C253.507 129.724 252.66 129.386 251.626 129.386C250.9 129.386 250.243 129.541 249.654 129.849C249.065 130.158 248.613 130.586 248.297 131.131H246.476L247.327 122.426H256.226V124.15H248.921L248.447 129.214H248.491C248.842 128.747 249.324 128.381 249.934 128.115C250.552 127.849 251.231 127.716 251.97 127.716C253.464 127.716 254.693 128.208 255.655 129.192C256.625 130.169 257.109 131.412 257.109 132.92C257.109 134.478 256.592 135.753 255.558 136.744C254.524 137.736 253.195 138.231 251.572 138.231Z" fill="white"/>
<circle cx="262.562" cy="120.488" r="2.69089" stroke="white" stroke-width="1.14159"/>
<path d="M356 347C356 350.866 352.866 354 349 354V275C352.866 275 356 278.134 356 282V347Z" fill="url(#paint4_linear)"/>
<path d="M255 0C271.569 0 285 13.4315 285 30V52L65 52V30C65 13.4315 78.4315 0 95 0L255 0Z" fill="url(#paint5_linear)"/>
<path d="M83 468C73.0589 468 65 459.941 65 450L285 450C285 459.941 276.941 468 267 468L83 468Z" fill="url(#paint6_linear)"/>
<path d="M368 191C368 201.493 359.493 210 349 210V142C359.493 142 368 150.507 368 161V191Z" fill="url(#paint7_linear)"/>
<defs>
<linearGradient id="paint0_linear" x1="-31" y1="-19.5" x2="326" y2="450" gradientUnits="userSpaceOnUse">
<stop stop-color="#000352"/>
<stop offset="1" stop-color="#25002B"/>
</linearGradient>
<linearGradient id="paint1_linear" x1="298.412" y1="114.149" x2="277.029" y2="148.087" gradientUnits="userSpaceOnUse">
<stop stop-color="#EFE94E"/>
<stop offset="1" stop-color="#FF9820"/>
</linearGradient>
<linearGradient id="paint2_linear" x1="297.642" y1="115.763" x2="278.532" y2="146.093" gradientUnits="userSpaceOnUse">
<stop stop-color="#EFE94E"/>
<stop offset="1" stop-color="#FF9820"/>
</linearGradient>
<linearGradient id="paint3_linear" x1="296.477" y1="117.862" x2="280.686" y2="142.925" gradientUnits="userSpaceOnUse">
<stop stop-color="#EFE94E"/>
<stop offset="1" stop-color="#FF9820"/>
</linearGradient>
<linearGradient id="paint4_linear" x1="352.5" y1="354" x2="352.5" y2="275" gradientUnits="userSpaceOnUse">
<stop stop-color="#E1E1E1"/>
<stop offset="1" stop-color="#DFDCDC"/>
</linearGradient>
<linearGradient id="paint5_linear" x1="285" y1="26" x2="65" y2="26" gradientUnits="userSpaceOnUse">
<stop stop-color="#E1E1E1"/>
<stop offset="1" stop-color="#DFDCDC"/>
</linearGradient>
<linearGradient id="paint6_linear" x1="65" y1="459" x2="285" y2="459" gradientUnits="userSpaceOnUse">
<stop stop-color="#E1E1E1"/>
<stop offset="1" stop-color="#DFDCDC"/>
</linearGradient>
<linearGradient id="paint7_linear" x1="358.5" y1="210" x2="358.5" y2="142" gradientUnits="userSpaceOnUse">
<stop stop-color="#E1E1E1"/>
<stop offset="1" stop-color="#DFDCDC"/>
</linearGradient>
</defs>
</svg>
